  0
SECTION
  2
HEADER
  9
$ACADVER
  1
AC1014
  9
$HANDSEED
  5
FFFF
  9
$MEASUREMENT
 70
     1
  0
ENDSEC
  0
SECTION
  2
TABLES
  0
TABLE
  2
VPORT
  5
8
330
0
100
AcDbSymbolTable
 70
     4
  0
VPORT
  5
2E
330
8
100
AcDbSymbolTableRecord
100
AcDbViewportTableRecord
  2
*ACTIVE
 70
     0
 10
0.0
 20
0.0
 11
1.0
 21
1.0
 12
210.0
 22
148.5
 13
0.0
 23
0.0
 14
10.0
 24
10.0
 15
10.0
 25
10.0
 16
0.0
 26
0.0
 36
1.0
 17
0.0
 27
0.0
 37
0.0
 40
341.0
 41
1.24
 42
50.0
 43
0.0
 44
0.0
 50
0.0
 51
0.0
 71
     0
 72
   100
 73
     1
 74
     3
 75
     0
 76
     0
 77
     0
 78
     0
  0
ENDTAB
  0
TABLE
  2
LTYPE
  5
5
330
0
100
AcDbSymbolTable
 70
     1
  0
LTYPE
  5
14
330
5
100
AcDbSymbolTableRecord
100
AcDbLinetypeTableRecord
  2
BYBLOCK
 70
     0
  3

 72
    65
 73
     0
 40
0.0
  0
LTYPE
  5
15
330
5
100
AcDbSymbolTableRecord
100
AcDbLinetypeTableRecord
  2
BYLAYER
 70
     0
  3

 72
    65
 73
     0
 40
0.0
  0
LTYPE
  5
16
330
5
100
AcDbSymbolTableRecord
100
AcDbLinetypeTableRecord
  2
CONTINUOUS
 70
     0
  3
Solid line
 72
    65
 73
     0
 40
0.0
  0
ENDTAB
  0
TABLE
  2
LAYER
  5
2
100
AcDbSymbolTable
 70
2
  0
LAYER
  5
50
100
AcDbSymbolTableRecord
100
AcDbLayerTableRecord
  2
0
 70
0
  6
CONTINUOUS
  0
LAYER
  5
51
100
AcDbSymbolTableRecord
100
AcDbLayerTableRecord
  2
Calque_1
 70
0
  6
CONTINUOUS
  0
ENDTAB
  0
TABLE
  2
STYLE
  5
3
330
0
100
AcDbSymbolTable
 70
     1
  0
STYLE
  5
11
330
3
100
AcDbSymbolTableRecord
100
AcDbTextStyleTableRecord
  2
STANDARD
 70
     0
 40
0.0
 41
1.0
 50
0.0
 71
     0
 42
2.5
  3
txt
  4

  0
ENDTAB
  0
TABLE
  2
VIEW
  5
6
330
0
100
AcDbSymbolTable
 70
     0
  0
ENDTAB
  0
TABLE
  2
UCS
  5
7
330
0
100
AcDbSymbolTable
 70
     0
  0
ENDTAB
  0
TABLE
  2
APPID
  5
9
330
0
100
AcDbSymbolTable
 70
     2
  0
APPID
  5
12
330
9
100
AcDbSymbolTableRecord
100
AcDbRegAppTableRecord
  2
ACAD
 70
     0
  0
ENDTAB
  0
TABLE
  2
DIMSTYLE
  5
A
330
0
100
AcDbSymbolTable
 70
     1
  0
DIMSTYLE
105
27
330
A
100
AcDbSymbolTableRecord
100
AcDbDimStyleTableRecord
  2
ISO-25
 70
     0
  3

  4

  5

  6

  7

 40
1.0
 41
2.5
 42
0.625
 43
3.75
 44
1.25
 45
0.0
 46
0.0
 47
0.0
 48
0.0
140
2.5
141
2.5
142
0.0
143
0.03937007874016
144
1.0
145
0.0
146
1.0
147
0.625
 71
     0
 72
     0
 73
     0
 74
     0
 75
     0
 76
     0
 77
     1
 78
     8
170
     0
171
     3
172
     1
173
     0
174
     0
175
     0
176
     0
177
     0
178
     0
270
     2
271
     2
272
     2
273
     2
274
     3
340
11
275
     0
280
     0
281
     0
282
     0
283
     0
284
     8
285
     0
286
     0
287
     3
288
     0
  0
ENDTAB
  0
TABLE
  2
BLOCK_RECORD
  5
1
330
0
100
AcDbSymbolTable
 70
     1
  0
BLOCK_RECORD
  5
1F
330
1
100
AcDbSymbolTableRecord
100
AcDbBlockTableRecord
  2
*MODEL_SPACE
  0
BLOCK_RECORD
  5
1B
330
1
100
AcDbSymbolTableRecord
100
AcDbBlockTableRecord
  2
*PAPER_SPACE
  0
ENDTAB
  0
ENDSEC
  0
SECTION
  2
BLOCKS
  0
BLOCK
  5
20
330
1F
100
AcDbEntity
  8
0
100
AcDbBlockBegin
  2
*MODEL_SPACE
 70
     0
 10
0.0
 20
0.0
 30
0.0
  3
*MODEL_SPACE
  1

  0
ENDBLK
  5
21
330
1F
100
AcDbEntity
  8
0
100
AcDbBlockEnd
  0
BLOCK
  5
1C
330
1B
100
AcDbEntity
 67
     1
  8
0
100
AcDbBlockBegin
  2
*PAPER_SPACE
  1

  0
ENDBLK
  5
1D
330
1B
100
AcDbEntity
 67
     1
  8
0
100
AcDbBlockEnd
  0
ENDSEC
  0
SECTION
  2
ENTITIES
  0
LWPOLYLINE
  5
100
100
AcDbEntity
  8
Calque_1
 62
7
100
AcDbPolyline
 90
2224
 70
1
 10
-72.892092
 20
110.866869
 30
0.0
 10
-73.004212
 20
110.864752
 30
0.0
 10
-73.114371
 20
110.860571
 30
0.0
 10
-73.222538
 20
110.854380
 30
0.0
 10
-73.328681
 20
110.846152
 30
0.0
 10
-73.432765
 20
110.835886
 30
0.0
 10
-73.534759
 20
110.823609
 30
0.0
 10
-73.634632
 20
110.809322
 30
0.0
 10
-73.732350
 20
110.792997
 30
0.0
 10
-74.214048
 20
110.692945
 30
0.0
 10
-74.649229
 20
110.571440
 30
0.0
 10
-75.047401
 20
110.423252
 30
0.0
 10
-75.418072
 20
110.243153
 30
0.0
 10
-75.770748
 20
110.025912
 30
0.0
 10
-76.114936
 20
109.766297
 30
0.0
 10
-76.460146
 20
109.459087
 30
0.0
 10
-76.815884
 20
109.099044
 30
0.0
 10
-77.063814
 20
108.817332
 30
0.0
 10
-77.298407
 20
108.514643
 30
0.0
 10
-77.520490
 20
108.189515
 30
0.0
 10
-77.730890
 20
107.840488
 30
0.0
 10
-77.930425
 20
107.466108
 30
0.0
 10
-78.119925
 20
107.064907
 30
0.0
 10
-78.300212
 20
106.635432
 30
0.0
 10
-78.472112
 20
106.176224
 30
0.0
 10
-78.536808
 20
105.993897
 30
0.0
 10
-78.612656
 20
105.780863
 30
0.0
 10
-78.696886
 20
105.544846
 30
0.0
 10
-78.786733
 20
105.293577
 30
0.0
 10
-78.879435
 20
105.034785
 30
0.0
 10
-78.972225
 20
104.776195
 30
0.0
 10
-79.062339
 20
104.525536
 30
0.0
 10
-79.147009
 20
104.290539
 30
0.0
 10
-79.229503
 20
104.056816
 30
0.0
 10
-79.313334
 20
103.809796
 30
0.0
 10
-79.396172
 20
103.556963
 30
0.0
 10
-79.475690
 20
103.305797
 30
0.0
 10
-79.549548
 20
103.063774
 30
0.0
 10
-79.615424
 20
102.838381
 30
0.0
 10
-79.670984
 20
102.637097
 30
0.0
 10
-79.713897
 20
102.467401
 30
0.0
 10
-79.831687
 20
101.961832
 30
0.0
 10
-79.946145
 20
101.456092
 30
0.0
 10
-80.054654
 20
100.962721
 30
0.0
 10
-80.154590
 20
100.494257
 30
0.0
 10
-80.243331
 20
100.063246
 30
0.0
 10
-80.318258
 20
99.682225
 30
0.0
 10
-80.376750
 20
99.363735
 30
0.0
 10
-80.416180
 20
99.120316
 30
0.0
 10
-80.434754
 20
99.005579
 30
0.0
 10
-80.458540
 20
98.882723
 30
0.0
 10
-80.486565
 20
98.755564
 30
0.0
 10
-80.517823
 20
98.627910
 30
0.0
 10
-80.551330
 20
98.503572
 30
0.0
 10
-80.586096
 20
98.386367
 30
0.0
 10
-80.621127
 20
98.280100
 30
0.0
 10
-80.655433
 20
98.188586
 30
0.0
 10
-80.687378
 20
98.101244
 30
0.0
 10
-80.715668
 20
98.006931
 30
0.0
 10
-80.739771
 20
97.908630
 30
0.0
 10
-80.759192
 20
97.809340
 30
0.0
 10
-80.773400
 20
97.712042
 30
0.0
 10
-80.781866
 20
97.619734
 30
0.0
 10
-80.783983
 20
97.535403
 30
0.0
 10
-80.779406
 20
97.462040
 30
0.0
 10
-80.773929
 20
97.387742
 30
0.0
 10
-80.773664
 20
97.300750
 30
0.0
 10
-80.778056
 20
97.204224
 30
0.0
 10
-80.786893
 20
97.101336
 30
0.0
 10
-80.799832
 20
96.995249
 30
0.0
 10
-80.816580
 20
96.889129
 30
0.0
 10
-80.836794
 20
96.786143
 30
0.0
 10
-80.860157
 20
96.689456
 30
0.0
 10
-80.886980
 20
96.578567
 30
0.0
 10
-80.917262
 20
96.434856
 30
0.0
 10
-80.949959
 20
96.264350
 30
0.0
 10
-80.984034
 20
96.073078
 30
0.0
 10
-81.018454
 20
95.867063
 30
0.0
 10
-81.052175
 20
95.652332
 30
0.0
 10
-81.084161
 20
95.434913
 30
0.0
 10
-81.113373
 20
95.220834
 30
0.0
 10
-81.142184
 20
95.007352
 30
0.0
 10
-81.173071
 20
94.791661
 30
0.0
 10
-81.205073
 20
94.579653
 30
0.0
 10
-81.237222
 20
94.377223
 30
0.0
 10
-81.268551
 20
94.190260
 30
0.0
 10
-81.298100
 20
94.024658
 30
0.0
 10
-81.324897
 20
93.886307
 30
0.0
 10
-81.347995
 20
93.781103
 30
0.0
 10
-81.369030
 20
93.685380
 30
0.0
 10
-81.389852
 20
93.574197
 30
0.0
 10
-81.409908
 20
93.451552
 30
0.0
 10
-81.428693
 20
93.321451
 30
0.0
 10
-81.445653
 20
93.187892
 30
0.0
 10
-81.460258
 20
93.054883
 30
0.0
 10
-81.471979
 20
92.926420
 30
0.0
 10
-81.480287
 20
92.806511
 30
0.0
 10
-81.490685
 20
92.673790
 30
0.0
 10
-81.508465
 20
92.508653
 30
0.0
 10
-81.532674
 20
92.317667
 30
0.0
 10
-81.562332
 20
92.107405
 30
0.0
 10
-81.596460
 20
91.884440
 30
0.0
 10
-81.634084
 20
91.655343
 30
0.0
 10
-81.674234
 20
91.426688
 30
0.0
 10
-81.715930
 20
91.205041
 30
0.0
 10
-81.756824
 20
90.985667
 30
0.0
 10
-81.794517
 20
90.763523
 30
0.0
 10
-81.828217
 20
90.544728
 30
0.0
 10
-81.857133
 20
90.335406
 30
0.0
 10
-81.880469
 20
90.141672
 30
0.0
 10
-81.897455
 20
89.969651
 30
0.0
 10
-81.907298
 20
89.825464
 30
0.0
 10
-81.909150
 20
89.715225
 30
0.0
 10
-81.909944
 20
89.620898
 30
0.0
 10
-81.916188
 20
89.522301
 30
0.0
 10
-81.927433
 20
89.422350
 30
0.0
 10
-81.943123
 20
89.323954
 30
0.0
 10
-81.962728
 20
89.230021
 30
0.0
 10
-81.985668
 20
89.143471
 30
0.0
 10
-82.011438
 20
89.067213
 30
0.0
 10
-82.039463
 20
89.004157
 30
0.0
 10
-82.067757
 20
88.941962
 30
0.0
 10
-82.094350
 20
88.868183
 30
0.0
 10
-82.118639
 20
88.785558
 30
0.0
 10
-82.140070
 20
88.696820
 30
0.0
 10
-82.158036
 20
88.604705
 30
0.0
 10
-82.171926
 20
88.511950
 30
0.0
 10
-82.181187
 20
88.421285
 30
0.0
 10
-82.185208
 20
88.335449
 30
0.0
 10
-82.193384
 20
88.103193
 30
0.0
 10
-82.210952
 20
87.841216
 30
0.0
 10
-82.236458
 20
87.561233
 30
0.0
 10
-82.268470
 20
87.274970
 30
0.0
 10
-82.305546
 20
86.994141
 30
0.0
 10
-82.346247
 20
86.730468
 30
0.0
 10
-82.389128
 20
86.495669
 30
0.0
 10
-82.432753
 20
86.301465
 30
0.0
 10
-82.455480
 20
86.204858
 30
0.0
 10
-82.482206
 20
86.078151
 30
0.0
 10
-82.511948
 20
85.926738
 30
0.0
 10
-82.543721
 20
85.756016
 30
0.0
 10
-82.576548
 20
85.571374
 30
0.0
 10
-82.609441
 20
85.378207
 30
0.0
 10
-82.641419
 20
85.181904
 30
0.0
 10
-82.671499
 20
84.987862
 30
0.0
 10
-82.700900
 20
84.791808
 30
0.0
 10
-82.731282
 20
84.589777
 30
0.0
 10
-82.761757
 20
84.387551
 30
0.0
 10
-82.791435
 20
84.190921
 30
0.0
 10
-82.819428
 20
84.005667
 30
0.0
 10
-82.844854
 20
83.837580
 30
0.0
 10
-82.866815
 20
83.692443
 30
0.0
 10
-82.884410
 20
83.576045
 30
0.0
 10
-82.900364
 20
83.467658
 30
0.0
 10
-82.917985
 20
83.345508
 30
0.0
 10
-82.936665
 20
83.213772
 30
0.0
 10
-82.955794
 20
83.076628
 30
0.0
 10
-82.974738
 20
82.938251
 30
0.0
 10
-82.992915
 20
82.802819
 30
0.0
 10
-83.009690
 20
82.674512
 30
0.0
 10
-83.024453
 20
82.557505
 30
0.0
 10
-83.047578
 20
82.373434
 30
0.0
 10
-83.068824
 20
82.209406
 30
0.0
 10
-83.090758
 20
82.047761
 30
0.0
 10
-83.115973
 20
81.870845
 30
0.0
 10
-83.147067
 20
81.661004
 30
0.0
 10
-83.186614
 20
81.400583
 30
0.0
 10
-83.237205
 20
81.071922
 30
0.0
 10
-83.301425
 20
80.657373
 30
0.0
 10
-83.324549
 20
80.501801
 30
0.0
 10
-83.350690
 20
80.312640
 30
0.0
 10
-83.378971
 20
80.097168
 30
0.0
 10
-83.408491
 20
79.862679
 30
0.0
 10
-83.438357
 20
79.616452
 30
0.0
 10
-83.467670
 20
79.365775
 30
0.0
 10
-83.495534
 20
79.117937
 30
0.0
 10
-83.521066
 20
78.880220
 30
0.0
 10
-83.547471
 20
78.642733
 30
0.0
 10
-83.577763
 20
78.395548
 30
0.0
 10
-83.610852
 20
78.145901
 30
0.0
 10
-83.645658
 20
77.901023
 30
0.0
 10
-83.681104
 20
77.668153
 30
0.0
 10
-83.716111
 20
77.454521
 30
0.0
 10
-83.749592
 20
77.267362
 30
0.0
 10
-83.780474
 20
77.113915
 30
0.0
 10
-83.808409
 20
76.979361
 30
0.0
 10
-83.833121
 20
76.846349
 30
0.0
 10
-83.854155
 20
76.718336
 30
0.0
 10
-83.871088
 20
76.598779
 30
0.0
 10
-83.883471
 20
76.491128
 30
0.0
 10
-83.890879
 20
76.398841
 30
0.0
 10
-83.892731
 20
76.325372
 30
0.0
 10
-83.888842
 20
76.274180
 30
0.0
 10
-83.883444
 20
76.227190
 30
0.0
 10
-83.881063
 20
76.165801
 30
0.0
 10
-83.881592
 20
76.092610
 30
0.0
 10
-83.884900
 20
76.010218
 30
0.0
 10
-83.890826
 20
75.921223
 30
0.0
 10
-83.899240
 20
75.828225
 30
0.0
 10
-83.909982
 20
75.733819
 30
0.0
 10
-83.922894
 20
75.640609
 30
0.0
 10
-83.936626
 20
75.542895
 30
0.0
 10
-83.949881
 20
75.435578
 30
0.0
 10
-83.962343
 20
75.322156
 30
0.0
 10
-83.973667
 20
75.206131
 30
0.0
 10
-83.983536
 20
75.090992
 30
0.0
 10
-83.991580
 20
74.980243
 30
0.0
 10
-83.997480
 20
74.877378
 30
0.0
 10
-84.000893
 20
74.785899
 30
0.0
 10
-84.013143
 20
74.419660
 30
0.0
 10
-84.032008
 20
74.001150
 30
0.0
 10
-84.055820
 20
73.556420
 30
0.0
 10
-84.082919
 20
73.111517
 30
0.0
 10
-84.111618
 20
72.692492
 30
0.0
 10
-84.140241
 20
72.325398
 30
0.0
 10
-84.167107
 20
72.036283
 30
0.0
 10
-84.190549
 20
71.851193
 30
0.0
 10
-84.202455
 20
71.765048
 30
0.0
 10
-84.213435
 20
71.653883
 30
0.0
 10
-84.223278
 20
71.522337
 30
0.0
 10
-84.231745
 20
71.375039
 30
0.0
 10
-84.238624
 20
71.216625
 30
0.0
 10
-84.243677
 20
71.051728
 30
0.0
 10
-84.246667
 20
70.884985
 30
0.0
 10
-84.247461
 20
70.721026
 30
0.0
 10
-84.247990
 20
70.555656
 30
0.0
 10
-84.249842
 20
70.384891
 30
0.0
 10
-84.252753
 20
70.213642
 30
0.0
 10
-84.256642
 20
70.046822
 30
0.0
 10
-84.261404
 20
69.889345
 30
0.0
 10
-84.266961
 20
69.746126
 30
0.0
 10
-84.273178
 20
69.622081
 30
0.0
 10
-84.279978
 20
69.522119
 30
0.0
 10
-84.285958
 20
69.432510
 30
0.0
 10
-84.289582
 20
69.338112
 30
0.0
 10
-84.290905
 20
69.241769
 30
0.0
 10
-84.290112
 20
69.146316
 30
0.0
 10
-84.287122
 20
69.054590
 30
0.0
 10
-84.282068
 20
68.969434
 30
0.0
 10
-84.275030
 20
68.893686
 30
0.0
 10
-84.266035
 20
68.830181
 30
0.0
 10
-84.257938
 20
68.772192
 30
0.0
 10
-84.253467
 20
68.712245
 30
0.0
 10
-84.252409
 20
68.652079
 30
0.0
 10
-84.254790
 20
68.593421
 30
0.0
 10
-84.260346
 20
68.538004
 30
0.0
 10
-84.268971
 20
68.487559
 30
0.0
 10
-84.280560
 20
68.443820
 30
0.0
 10
-84.294954
 20
68.408514
 30
0.0
 10
-84.309691
 20
68.364273
 30
0.0
 10
-84.322285
 20
68.294931
 30
0.0
 10
-84.332551
 20
68.204015
 30
0.0
 10
-84.340277
 20
68.095047
 30
0.0
 10
-84.345277
 20
67.971547
 30
0.0
 10
-84.347394
 20
67.837046
 30
0.0
 10
-84.346336
 20
67.695063
 30
0.0
 10
-84.341970
 20
67.549121
 30
0.0
 10
-84.337155
 20
67.384042
 30
0.0
 10
-84.335038
 20
67.187203
 30
0.0
 10
-84.335292
 20
66.965972
 30
0.0
 10
-84.337938
 20
66.727717
 30
0.0
 10
-84.342833
 20
66.479805
 30
0.0
 10
-84.349870
 20
66.229604
 30
0.0
 10
-84.358972
 20
65.984481
 30
0.0
 10
-84.370005
 20
65.751807
 30
0.0
 10
-84.380324
 20
65.529419
 30
0.0
 10
-84.387415
 20
65.313773
 30
0.0
 10
-84.391304
 20
65.110179
 30
0.0
 10
-84.392098
 20
64.923947
 30
0.0
 10
-84.389717
 20
64.760386
 30
0.0
 10
-84.384187
 20
64.624814
 30
0.0
 10
-84.375561
 20
64.522537
 30
0.0
 10
-84.363893
 20
64.458867
 30
0.0
 10
-84.351643
 20
64.411118
 30
0.0
 10
-84.341324
 20
64.354441
 30
0.0
 10
-84.333069
 20
64.290941
 30
0.0
 10
-84.327010
 20
64.222721
 30
0.0
 10
-84.323306
 20
64.151882
 30
0.0
 10
-84.321983
 20
64.080532
 30
0.0
 10
-84.323306
 20
64.010769
 30
0.0
 10
-84.327513
 20
63.944702
 30
0.0
 10
-84.358432
 20
63.434985
 30
0.0
 10
-84.359755
 20
62.923316
 30
0.0
 10
-84.329656
 20
62.400343
 30
0.0
 10
-84.266561
 20
61.856719
 30
0.0
 10
-84.168816
 20
61.283095
 30
0.0
 10
-84.034757
 20
60.670116
 30
0.0
 10
-83.862733
 20
60.008433
 30
0.0
 10
-83.651082
 20
59.288697
 30
0.0
 10
-83.505270
 20
58.809672
 30
0.0
 10
-83.260546
 20
58.426666
 30
0.0
 10
-82.952807
 20
58.108071
 30
0.0
 10
-82.617945
 20
57.822265
 30
0.0
 10
-82.291857
 20
57.537629
 30
0.0
 10
-82.010435
 20
57.222553
 30
0.0
 10
-81.809577
 20
56.845416
 30
0.0
 10
-81.725175
 20
56.374603
 30
0.0
 10
-81.788090
 20
55.986819
 30
0.0
 10
-81.958704
 20
55.648472
 30
0.0
 10
-82.209891
 20
55.354528
 30
0.0
 10
-82.514527
 20
55.099957
 30
0.0
 10
-82.845484
 20
54.879723
 30
0.0
 10
-83.175642
 20
54.688794
 30
0.0
 10
-83.477873
 20
54.522139
 30
0.0
 10
-83.725052
 20
54.374723
 30
0.0
 10
-83.865736
 20
54.201191
 30
0.0
 10
-84.010325
 20
53.885940
 30
0.0
 10
-84.150816
 20
53.466679
 30
0.0
 10
-84.279198
 20
52.981115
 30
0.0
 10
-84.387470
 20
52.466956
 30
0.0
 10
-84.467626
 20
51.961908
 30
0.0
 10
-84.511661
 20
51.503682
 30
0.0
 10
-84.511568
 20
51.129979
 30
0.0
 10
-84.507626
 20
51.057060
 30
0.0
 10
-84.506832
 20
50.983376
 30
0.0
 10
-84.508949
 20
50.910941
 30
0.0
 10
-84.513976
 20
50.841768
 30
0.0
 10
-84.521622
 20
50.777874
 30
0.0
 10
-84.531703
 20
50.721275
 30
0.0
 10
-84.544059
 20
50.673983
 30
0.0
 10
-84.558479
 20
50.638013
 30
0.0
 10
-84.574406
 20
50.589681
 30
0.0
 10
-84.590943
 20
50.506989
 30
0.0
 10
-84.607612
 20
50.394435
 30
0.0
 10
-84.623910
 20
50.256526
 30
0.0
 10
-84.639362
 20
50.097768
 30
0.0
 10
-84.653490
 20
49.922667
 30
0.0
 10
-84.665794
 20
49.735725
 30
0.0
 10
-84.675795
 20
49.541447
 30
0.0
 10
-84.685293
 20
49.342970
 30
0.0
 10
-84.696221
 20
49.144011
 30
0.0
 10
-84.708206
 20
48.949905
 30
0.0
 10
-84.720827
 20
48.766001
 30
0.0
 10
-84.733686
 20
48.597633
 30
0.0
 10
-84.746412
 20
48.450149
 30
0.0
 10
-84.758583
 20
48.328891
 30
0.0
 10
-84.769828
 20
48.239195
 30
0.0
 10
-84.779194
 20
48.166744
 30
0.0
 10
-84.785941
 20
48.094915
 30
0.0
 10
-84.790015
 20
48.025570
 30
0.0
 10
-84.791338
 20
47.960575
 30
0.0
 10
-84.790015
 20
47.901790
 30
0.0
 10
-84.785994
 20
47.851080
 30
0.0
 10
-84.779220
 20
47.810308
 30
0.0
 10
-84.769695
 20
47.781333
 30
0.0
 10
-84.756599
 20
47.743961
 30
0.0
 10
-84.738845
 20
47.679199
 30
0.0
 10
-84.717229
 20
47.590606
 30
0.0
 10
-84.692516
 20
47.481743
 30
0.0
 10
-84.665502
 20
47.356164
 30
0.0
 10
-84.636970
 20
47.217427
 30
0.0
 10
-84.607702
 20
47.069093
 30
0.0
 10
-84.578484
 20
46.914717
 30
0.0
 10
-84.525387
 20
46.645223
 30
0.0
 10
-84.466872
 20
46.381862
 30
0.0
 10
-84.401898
 20
46.120999
 30
0.0
 10
-84.329434
 20
45.858990
 30
0.0
 10
-84.248440
 20
45.592200
 30
0.0
 10
-84.157876
 20
45.316988
 30
0.0
 10
-84.056709
 20
45.029717
 30
0.0
 10
-83.943899
 20
44.726745
 30
0.0
 10
-83.901166
 20
44.629309
 30
0.0
 10
-83.837010
 20
44.503005
 30
0.0
 10
-83.754571
 20
44.353129
 30
0.0
 10
-83.656990
 20
44.184992
 30
0.0
 10
-83.547408
 20
44.003893
 30
0.0
 10
-83.428964
 20
43.815136
 30
0.0
 10
-83.304798
 20
43.624028
 30
0.0
 10
-83.178052
 20
43.435869
 30
0.0
 10
-82.998183
 20
43.180470
 30
0.0
 10
-82.830191
 20
42.957831
 30
0.0
 10
-82.665787
 20
42.759499
 30
0.0
 10
-82.496686
 20
42.577016
 30
0.0
 10
-82.314603
 20
42.401928
 30
0.0
 10
-82.111255
 20
42.225782
 30
0.0
 10
-81.878350
 20
42.040121
 30
0.0
 10
-81.607607
 20
41.836490
 30
0.0
 10
-81.413363
 20
41.694506
 30
0.0
 10
-81.227417
 20
41.560754
 30
0.0
 10
-81.054175
 20
41.438257
 30
0.0
 10
-80.898042
 20
41.330048
 30
0.0
 10
-80.763427
 20
41.239148
 30
0.0
 10
-80.654734
 20
41.168589
 30
0.0
 10
-80.576367
 20
41.121400
 30
0.0
 10
-80.532737
 20
41.100604
 30
0.0
 10
-80.449394
 20
41.071262
 30
0.0
 10
-80.416082
 20
41.042374
 30
0.0
 10
-80.428147
 20
41.015350
 30
0.0
 10
-80.480956
 20
40.991590
 30
0.0
 10
-80.569853
 20
40.972514
 30
0.0
 10
-80.690191
 20
40.959523
 30
0.0
 10
-80.837326
 20
40.954046
 30
0.0
 10
-81.006603
 20
40.957459
 30
0.0
 10
-81.298338
 20
40.960105
 30
0.0
 10
-81.668422
 20
40.946982
 30
0.0
 10
-82.090686
 20
40.920518
 30
0.0
 10
-82.538970
 20
40.883145
 30
0.0
 10
-82.987105
 20
40.837296
 30
0.0
 10
-83.408922
 20
40.785403
 30
0.0
 10
-83.778259
 20
40.729901
 30
0.0
 10
-84.068949
 20
40.673222
 30
0.0
 10
-84.593070
 20
40.539457
 30
0.0
 10
-85.114328
 20
40.383710
 30
0.0
 10
-85.623993
 20
40.209551
 30
0.0
 10
-86.113342
 20
40.020548
 30
0.0
 10
-86.573643
 20
39.820275
 30
0.0
 10
-86.996177
 20
39.612301
 30
0.0
 10
-87.372209
 20
39.400198
 30
0.0
 10
-87.693018
 20
39.187534
 30
0.0
 10
-88.005796
 20
38.955963
 30
0.0
 10
-88.296231
 20
38.733911
 30
0.0
 10
-88.563977
 20
38.521686
 30
0.0
 10
-88.808687
 20
38.319592
 30
0.0
 10
-89.030016
 20
38.127933
 30
0.0
 10
-89.227620
 20
37.947019
 30
0.0
 10
-89.401153
 20
37.777149
 30
0.0
 10
-89.550269
 20
37.618634
 30
0.0
 10
-89.629194
 20
37.531036
 30
0.0
 10
-89.713567
 20
37.438363
 30
0.0
 10
-89.800766
 20
37.343409
 30
0.0
 10
-89.888168
 20
37.248974
 30
0.0
 10
-89.973158
 20
37.157854
 30
0.0
 10
-90.053115
 20
37.072849
 30
0.0
 10
-90.125415
 20
36.996750
 30
0.0
 10
-90.187439
 20
36.932358
 30
0.0
 10
-90.299437
 20
36.797680
 30
0.0
 10
-90.369104
 20
36.666158
 30
0.0
 10
-90.395959
 20
36.536147
 30
0.0
 10
-90.379529
 20
36.406007
 30
0.0
 10
-90.319312
 20
36.274093
 30
0.0
 10
-90.214836
 20
36.138767
 30
0.0
 10
-90.065625
 20
35.998382
 30
0.0
 10
-89.871190
 20
35.851297
 30
0.0
 10
-89.742534
 20
35.765466
 30
0.0
 10
-89.621103
 20
35.693613
 30
0.0
 10
-89.499056
 20
35.632936
 30
0.0
 10
-89.368553
 20
35.580631
 30
0.0
 10
-89.221749
 20
35.533900
 30
0.0
 10
-89.050802
 20
35.489940
 30
0.0
 10
-88.847872
 20
35.445947
 30
0.0
 10
-88.605117
 20
35.399124
 30
0.0
 10
-88.428962
 20
35.365681
 30
0.0
 10
-88.249993
 20
35.330205
 30
0.0
 10
-88.073169
 20
35.293775
 30
0.0
 10
-87.903450
 20
35.257469
 30
0.0
 10
-87.745800
 20
35.222364
 30
0.0
 10
-87.605174
 20
35.189540
 30
0.0
 10
-87.486540
 20
35.160073
 30
0.0
 10
-87.394854
 20
35.135043
 30
0.0
 10
-87.174538
 20
35.059092
 30
0.0
 10
-86.930357
 20
34.955770
 30
0.0
 10
-86.675735
 20
34.832664
 30
0.0
 10
-86.424101
 20
34.697356
 30
0.0
 10
-86.188873
 20
34.557429
 30
0.0
 10
-85.983477
 20
34.420467
 30
0.0
 10
-85.821343
 20
34.294055
 30
0.0
 10
-85.715888
 20
34.185771
 30
0.0
 10
-85.678502
 20
34.137781
 30
0.0
 10
-85.636587
 20
34.087121
 30
0.0
 10
-85.591557
 20
34.035319
 30
0.0
 10
-85.544827
 20
33.983905
 30
0.0
 10
-85.497805
 20
33.934401
 30
0.0
 10
-85.451908
 20
33.888343
 30
0.0
 10
-85.408548
 20
33.847250
 30
0.0
 10
-85.369138
 20
33.812656
 30
0.0
 10
-85.320698
 20
33.769621
 30
0.0
 10
-85.251409
 20
33.704402
 30
0.0
 10
-85.164520
 20
33.620217
 30
0.0
 10
-85.063269
 20
33.520294
 30
0.0
 10
-84.950901
 20
33.407857
 30
0.0
 10
-84.830661
 20
33.286127
 30
0.0
 10
-84.705785
 20
33.158331
 30
0.0
 10
-84.579523
 20
33.027690
 30
0.0
 10
-84.281650
 20
32.745414
 30
0.0
 10
-83.912197
 20
32.437955
 30
0.0
 10
-83.496184
 20
32.122212
 30
0.0
 10
-83.058643
 20
31.815084
 30
0.0
 10
-82.624594
 20
31.533488
 30
0.0
 10
-82.219062
 20
31.294278
 30
0.0
 10
-81.867076
 20
31.114414
 30
0.0
 10
-81.593658
 20
31.010777
 30
0.0
 10
-81.458874
 20
30.968285
 30
0.0
 10
-81.358356
 20
30.923120
 30
0.0
 10
-81.292888
 20
30.878009
 30
0.0
 10
-81.263255
 20
30.835702
 30
0.0
 10
-81.270240
 20
30.798925
 30
0.0
 10
-81.314623
 20
30.770456
 30
0.0
 10
-81.397192
 20
30.752993
 30
0.0
 10
-81.518728
 20
30.749289
 30
0.0
 10
-81.582284
 20
30.749289
 30
0.0
 10
-81.678222
 20
30.746643
 30
0.0
 10
-81.801822
 20
30.742939
 30
0.0
 10
-81.948364
 20
30.737383
 30
0.0
 10
-82.113131
 20
30.730239
 30
0.0
 10
-82.291396
 20
30.721772
 30
0.0
 10
-82.478449
 20
30.712247
 30
0.0
 10
-82.669563
 20
30.701664
 30
0.0
 10
-82.863547
 20
30.691610
 30
0.0
 10
-83.058804
 20
30.683408
 30
0.0
 10
-83.250037
 20
30.677322
 30
0.0
 10
-83.431949
 20
30.673354
 30
0.0
 10
-83.599242
 20
30.670708
 30
0.0
 10
-83.746618
 20
30.670708
 30
0.0
 10
-83.868784
 20
30.673618
 30
0.0
 10
-83.960441
 20
30.678910
 30
0.0
 10
-84.040591
 20
30.683937
 30
0.0
 10
-84.129806
 20
30.686583
 30
0.0
 10
-84.225093
 20
30.686583
 30
0.0
 10
-84.323465
 20
30.682879
 30
0.0
 10
-84.421935
 20
30.676529
 30
0.0
 10
-84.517516
 20
30.667797
 30
0.0
 10
-84.607215
 20
30.656949
 30
0.0
 10
-84.688045
 20
30.644249
 30
0.0
 10
-84.775291
 20
30.629168
 30
0.0
 10
-84.883387
 20
30.612235
 30
0.0
 10
-85.008064
 20
30.594508
 30
0.0
 10
-85.145057
 20
30.576251
 30
0.0
 10
-85.290102
 20
30.557995
 30
0.0
 10
-85.438930
 20
30.540533
 30
0.0
 10
-85.587274
 20
30.524129
 30
0.0
 10
-85.730874
 20
30.509576
 30
0.0
 10
-86.206939
 20
30.461237
 30
0.0
 10
-86.648340
 20
30.411760
 30
0.0
 10
-87.049557
 20
30.361965
 30
0.0
 10
-87.405057
 20
30.312674
 30
0.0
 10
-87.709319
 20
30.264705
 30
0.0
 10
-87.956813
 20
30.218879
 30
0.0
 10
-88.142016
 20
30.176043
 30
0.0
 10
-88.259401
 20
30.136990
 30
0.0
 10
-88.423509
 20
30.027559
 30
0.0
 10
-88.554552
 20
29.868570
 30
0.0
 10
-88.650850
 20
29.669842
 30
0.0
 10
-88.710728
 20
29.441163
 30
0.0
 10
-88.732503
 20
29.192375
 30
0.0
 10
-88.714485
 20
28.933268
 30
0.0
 10
-88.655014
 20
28.673686
 30
0.0
 10
-88.552401
 20
28.423390
 30
0.0
 10
-88.535230
 20
28.385528
 30
0.0
 10
-88.511417
 20
28.326394
 30
0.0
 10
-88.482067
 20
28.249029
 30
0.0
 10
-88.448248
 20
28.156399
 30
0.0
 10
-88.411039
 20
28.051518
 30
0.0
 10
-88.371524
 20
27.937350
 30
0.0
 10
-88.330775
 20
27.816912
 30
0.0
 10
-88.289879
 20
27.693193
 30
0.0
 10
-88.247844
 20
27.564658
 30
0.0
 10
-88.203871
 20
27.430409
 30
0.0
 10
-88.159262
 20
27.294413
 30
0.0
 10
-88.115312
 20
27.160613
 30
0.0
 10
-88.073320
 20
27.032978
 30
0.0
 10
-88.034585
 20
26.915503
 30
0.0
 10
-88.000401
 20
26.812130
 30
0.0
 10
-87.972067
 20
26.726855
 30
0.0
 10
-87.868334
 20
26.492514
 30
0.0
 10
-87.688071
 20
26.161414
 30
0.0
 10
-87.452748
 20
25.766682
 30
0.0
 10
-87.183833
 20
25.341417
 30
0.0
 10
-86.902795
 20
24.918693
 30
0.0
 10
-86.631103
 20
24.531607
 30
0.0
 10
-86.390226
 20
24.213287
 30
0.0
 10
-86.201634
 20
23.996778
 30
0.0
 10
-86.126778
 20
23.911106
 30
0.0
 10
-86.058761
 20
23.824032
 30
0.0
 10
-85.995714
 20
23.736719
 30
0.0
 10
-85.935762
 20
23.650306
 30
0.0
 10
-85.877040
 20
23.565957
 30
0.0
 10
-85.817670
 20
23.484836
 30
0.0
 10
-85.755790
 20
23.408080
 30
0.0
 10
-85.689519
 20
23.336881
 30
0.0
 10
-85.634200
 20
23.291849
 30
0.0
 10
-85.578677
 20
23.243668
 30
0.0
 10
-85.524443
 20
23.193847
 30
0.0
 10
-85.472984
 20
23.143868
 30
0.0
 10
-85.425791
 20
23.095264
 30
0.0
 10
-85.384352
 20
23.049491
 30
0.0
 10
-85.350152
 20
23.008083
 30
0.0
 10
-85.324699
 20
22.972550
 30
0.0
 10
-85.296333
 20
22.934900
 30
0.0
 10
-85.253798
 20
22.887433
 30
0.0
 10
-85.199167
 20
22.832135
 30
0.0
 10
-85.134519
 20
22.770858
 30
0.0
 10
-85.061925
 20
22.705532
 30
0.0
 10
-84.983463
 20
22.638090
 30
0.0
 10
-84.901207
 20
22.570383
 30
0.0
 10
-84.817236
 20
22.504370
 30
0.0
 10
-84.730111
 20
22.435763
 30
0.0
 10
-84.638793
 20
22.360674
 30
0.0
 10
-84.546003
 20
22.281511
 30
0.0
 10
-84.454463
 20
22.200734
 30
0.0
 10
-84.366896
 20
22.120750
 30
0.0
 10
-84.286024
 20
22.044021
 30
0.0
 10
-84.214570
 20
21.972980
 30
0.0
 10
-84.155259
 20
21.910089
 30
0.0
 10
-84.090380
 20
21.842991
 30
0.0
 10
-84.003010
 20
21.759911
 30
0.0
 10
-83.896973
 20
21.664159
 30
0.0
 10
-83.776106
 20
21.559013
 30
0.0
 10
-83.644240
 20
21.447730
 30
0.0
 10
-83.505201
 20
21.333641
 30
0.0
 10
-83.362829
 20
21.220029
 30
0.0
 10
-83.220949
 20
21.110148
 30
0.0
 10
-83.075216
 20
20.999129
 30
0.0
 10
-82.921814
 20
20.882236
 30
0.0
 10
-82.765342
 20
20.762961
 30
0.0
 10
-82.610402
 20
20.644825
 30
0.0
 10
-82.461597
 20
20.531345
 30
0.0
 10
-82.323530
 20
20.426015
 30
0.0
 10
-82.200806
 20
20.332352
 30
0.0
 10
-82.098020
 20
20.253850
 30
0.0
 10
-81.846444
 20
20.068324
 30
0.0
 10
-81.567052
 20
19.873961
 30
0.0
 10
-81.269409
 20
19.676688
 30
0.0
 10
-80.963087
 20
19.482431
 30
0.0
 10
-80.657652
 20
19.297143
 30
0.0
 10
-80.362671
 20
19.126778
 30
0.0
 10
-80.087713
 20
18.977236
 30
0.0
 10
-79.842344
 20
18.854469
 30
0.0
 10
-79.739752
 20
18.804039
 30
0.0
 10
-79.646227
 20
18.754245
 30
0.0
 10
-79.563664
 20
18.706329
 30
0.0
 10
-79.493949
 20
18.661641
 30
0.0
 10
-79.438974
 20
18.621450
 30
0.0
 10
-79.400630
 20
18.587028
 30
0.0
 10
-79.380813
 20
18.559723
 30
0.0
 10
-79.381342
 20
18.540673
 30
0.0
 10
-79.428964
 20
18.523211
 30
0.0
 10
-79.543844
 20
18.499927
 30
0.0
 10
-79.718419
 20
18.472093
 30
0.0
 10
-79.945127
 20
18.440555
 30
0.0
 10
-80.216404
 20
18.406291
 30
0.0
 10
-80.524694
 20
18.370334
 30
0.0
 10
-80.862432
 20
18.333637
 30
0.0
 10
-81.222056
 20
18.297177
 30
0.0
 10
-82.122997
 20
18.193275
 30
0.0
 10
-82.857030
 20
18.071144
 30
0.0
 10
-83.434761
 20
17.925173
 30
0.0
 10
-83.866792
 20
17.749781
 30
0.0
 10
-84.163731
 20
17.539358
 30
0.0
 10
-84.336181
 20
17.288321
 30
0.0
 10
-84.394744
 20
16.991061
 30
0.0
 10
-84.350029
 20
16.641970
 30
0.0
 10
-84.238827
 20
16.372175
 30
0.0
 10
-84.028981
 20
16.069253
 30
0.0
 10
-83.718635
 20
15.731565
 30
0.0
 10
-83.305941
 20
15.357630
 30
0.0
 10
-82.789054
 20
14.945806
 30
0.0
 10
-82.166116
 20
14.494559
 30
0.0
 10
-81.435284
 20
14.002302
 30
0.0
 10
-80.594703
 20
13.467499
 30
0.0
 10
-80.071322
 20
13.147936
 30
0.0
 10
-79.576732
 20
12.857159
 30
0.0
 10
-79.114568
 20
12.596967
 30
0.0
 10
-78.688475
 20
12.369320
 30
0.0
 10
-78.302093
 20
12.176068
 30
0.0
 10
-77.959066
 20
12.019117
 30
0.0
 10
-77.663032
 20
11.900346
 30
0.0
 10
-77.417636
 20
11.821606
 30
0.0
 10
-77.320434
 20
11.792951
 30
0.0
 10
-77.212907
 20
11.756201
 30
0.0
 10
-77.098620
 20
11.712915
 30
0.0
 10
-76.981135
 20
11.664549
 30
0.0
 10
-76.864017
 20
11.612664
 30
0.0
 10
-76.750831
 20
11.558795
 30
0.0
 10
-76.645140
 20
11.504423
 30
0.0
 10
-76.550507
 20
11.451083
 30
0.0
 10
-76.443941
 20
11.391870
 30
0.0
 10
-76.304061
 20
11.320617
 30
0.0
 10
-76.136810
 20
11.240078
 30
0.0
 10
-75.948127
 20
11.152898
 30
0.0
 10
-75.743954
 20
11.061828
 30
0.0
 10
-75.530226
 20
10.969568
 30
0.0
 10
-75.312889
 20
10.878790
 30
0.0
 10
-75.097881
 20
10.792218
 30
0.0
 10
-74.877959
 20
10.704509
 30
0.0
 10
-74.646536
 20
10.610502
 30
0.0
 10
-74.410559
 20
10.513135
 30
0.0
 10
-74.176975
 20
10.415319
 30
0.0
 10
-73.952730
 20
10.320016
 30
0.0
 10
-73.744767
 20
10.230164
 30
0.0
 10
-73.560035
 20
10.148698
 30
0.0
 10
-73.405479
 20
10.078557
 30
0.0
 10
-73.257034
 20
10.011538
 30
0.0
 10
-73.089833
 20
9.939043
 30
0.0
 10
-72.909591
 20
9.863372
 30
0.0
 10
-72.722023
 20
9.786801
 30
0.0
 10
-72.532846
 20
9.711633
 30
0.0
 10
-72.347770
 20
9.640143
 30
0.0
 10
-72.172518
 20
9.574605
 30
0.0
 10
-72.012799
 20
9.517350
 30
0.0
 10
-71.855610
 20
9.460755
 30
0.0
 10
-71.687605
 20
9.397123
 30
0.0
 10
-71.513983
 20
9.328596
 30
0.0
 10
-71.339943
 20
9.257396
 30
0.0
 10
-71.170686
 20
9.185694
 30
0.0
 10
-71.011415
 20
9.115633
 30
0.0
 10
-70.867328
 20
9.049408
 30
0.0
 10
-70.743625
 20
8.989215
 30
0.0
 10
-70.621488
 20
8.930742
 30
0.0
 10
-70.481899
 20
8.869411
 30
0.0
 10
-70.329756
 20
8.807049
 30
0.0
 10
-70.169947
 20
8.745454
 30
0.0
 10
-70.007369
 20
8.686426
 30
0.0
 10
-69.846918
 20
8.631763
 30
0.0
 10
-69.693486
 20
8.583265
 30
0.0
 10
-69.551965
 20
8.542730
 30
0.0
 10
-69.422269
 20
8.506297
 30
0.0
 10
-69.302828
 20
8.469229
 30
0.0
 10
-69.196154
 20
8.432584
 30
0.0
 10
-69.104756
 20
8.397342
 30
0.0
 10
-69.031149
 20
8.364613
 30
0.0
 10
-68.977843
 20
8.335376
 30
0.0
 10
-68.947353
 20
8.310770
 30
0.0
 10
-68.942193
 20
8.291720
 30
0.0
 10
-68.966456
 20
8.276904
 30
0.0
 10
-69.020219
 20
8.264204
 30
0.0
 10
-69.100081
 20
8.253885
 30
0.0
 10
-69.202633
 20
8.246212
 30
0.0
 10
-69.324471
 20
8.241449
 30
0.0
 10
-69.462187
 20
8.238804
 30
0.0
 10
-69.612367
 20
8.238804
 30
0.0
 10
-69.771607
 20
8.243566
 30
0.0
 10
-70.176710
 20
8.251768
 30
0.0
 10
-70.588939
 20
8.245947
 30
0.0
 10
-70.997654
 20
8.226897
 30
0.0
 10
-71.392227
 20
8.195941
 30
0.0
 10
-71.762019
 20
8.153978
 30
0.0
 10
-72.096402
 20
8.102040
 30
0.0
 10
-72.384737
 20
8.041133
 30
0.0
 10
-72.616396
 20
7.972262
 30
0.0
 10
-72.741348
 20
7.923896
 30
0.0
 10
-72.846298
 20
7.875372
 30
0.0
 10
-72.935031
 20
7.823275
 30
0.0
 10
-73.011334
 20
7.764220
 30
0.0
 10
-73.078999
 20
7.694847
 30
0.0
 10
-73.141814
 20
7.611768
 30
0.0
 10
-73.203562
 20
7.511570
 30
0.0
 10
-73.268036
 20
7.390920
 30
0.0
 10
-73.311401
 20
7.299374
 30
0.0
 10
-73.352086
 20
7.201319
 30
0.0
 10
-73.389178
 20
7.099878
 30
0.0
 10
-73.421759
 20
6.998040
 30
0.0
 10
-73.448915
 20
6.898848
 30
0.0
 10
-73.469738
 20
6.805397
 30
0.0
 10
-73.483311
 20
6.720704
 30
0.0
 10
-73.488709
 20
6.647811
 30
0.0
 10
-73.465875
 20
6.406511
 30
0.0
 10
-73.394954
 20
6.119332
 30
0.0
 10
-73.282453
 20
5.799954
 30
0.0
 10
-73.134879
 20
5.462028
 30
0.0
 10
-72.958735
 20
5.119260
 30
0.0
 10
-72.760522
 20
4.785277
 30
0.0
 10
-72.546752
 20
4.473730
 30
0.0
 10
-72.323926
 20
4.198351
 30
0.0
 10
-72.265699
 20
4.129084
 30
0.0
 10
-72.215867
 20
4.061985
 30
0.0
 10
-72.175201
 20
3.998670
 30
0.0
 10
-72.144472
 20
3.940833
 30
0.0
 10
-72.124443
 20
3.890059
 30
0.0
 10
-72.115897
 20
3.848043
 30
0.0
 10
-72.119601
 20
3.816399
 30
0.0
 10
-72.136323
 20
3.796820
 30
0.0
 10
-72.170660
 20
3.783591
 30
0.0
 10
-72.224805
 20
3.770626
 30
0.0
 10
-72.295988
 20
3.758191
 30
0.0
 10
-72.381446
 20
3.746549
 30
0.0
 10
-72.478411
 20
3.735966
 30
0.0
 10
-72.584119
 20
3.726705
 30
0.0
 10
-72.695805
 20
3.719297
 30
0.0
 10
-72.810701
 20
3.714005
 30
0.0
 10
-73.223112
 20
3.675323
 30
0.0
 10
-73.594627
 20
3.588328
 30
0.0
 10
-73.927528
 20
3.451248
 30
0.0
 10
-74.224097
 20
3.262309
 30
0.0
 10
-74.486622
 20
3.019712
 30
0.0
 10
-74.717378
 20
2.721712
 30
0.0
 10
-74.918655
 20
2.366535
 30
0.0
 10
-75.092732
 20
1.952356
 30
0.0
 10
-75.186717
 20
1.676237
 30
0.0
 10
-75.254551
 20
1.434699
 30
0.0
 10
-75.296308
 20
1.222821
 30
0.0
 10
-75.312050
 20
1.035628
 30
0.0
 10
-75.301864
 20
0.868120
 30
0.0
 10
-75.265828
 20
0.715350
 30
0.0
 10
-75.204005
 20
0.572343
 30
0.0
 10
-75.116473
 20
0.434098
 30
0.0
 10
-73.245139
 20
-1.280429
 30
0.0
 10
-70.503711
 20
-2.737992
 30
0.0
 10
-67.144154
 20
-3.967457
 30
0.0
 10
-63.418432
 20
-4.997692
 30
0.0
 10
-59.578507
 20
-5.857561
 30
0.0
 10
-55.876346
 20
-6.575932
 30
0.0
 10
-52.563914
 20
-7.181669
 30
0.0
 10
-49.893170
 20
-7.703639
 30
0.0
 10
-47.960735
 20
-8.040374
 30
0.0
 10
-46.145103
 20
-8.115489
 30
0.0
 10
-44.216759
 20
-7.967111
 30
0.0
 10
-41.946182
 20
-7.633418
 30
0.0
 10
-39.103850
 20
-7.152512
 30
0.0
 10
-35.460252
 20
-6.562597
 30
0.0
 10
-30.785864
 20
-5.901826
 30
0.0
 10
-24.851167
 20
-5.208300
 30
0.0
 10
-19.683418
 20
-5.615441
 30
0.0
 10
-14.549717
 20
-6.141010
 30
0.0
 10
-9.077802
 20
-6.629351
 30
0.0
 10
-2.895408
 20
-6.924785
 30
0.0
 10
4.369728
 20
-6.871683
 30
0.0
 10
13.089868
 20
-6.314365
 30
0.0
 10
23.637275
 20
-5.097149
 30
0.0
 10
36.384214
 20
-3.064408
 30
0.0
 10
38.443942
 20
-4.785787
 30
0.0
 10
40.920993
 20
-6.254886
 30
0.0
 10
43.708635
 20
-7.448316
 30
0.0
 10
46.700138
 20
-8.342793
 30
0.0
 10
49.788773
 20
-8.914901
 30
0.0
 10
52.867811
 20
-9.141358
 30
0.0
 10
55.830520
 20
-8.998748
 30
0.0
 10
58.570172
 20
-8.463787
 30
0.0
 10
58.873623
 20
-8.368457
 30
0.0
 10
59.191586
 20
-8.248971
 30
0.0
 10
59.519185
 20
-8.103160
 30
0.0
 10
59.851541
 20
-7.928826
 30
0.0
 10
60.183781
 20
-7.723800
 30
0.0
 10
60.511026
 20
-7.485940
 30
0.0
 10
60.828399
 20
-7.213022
 30
0.0
 10
61.131024
 20
-6.902930
 30
0.0
 10
61.246192
 20
-6.767384
 30
0.0
 10
61.336484
 20
-6.651894
 30
0.0
 10
61.404833
 20
-6.549606
 30
0.0
 10
61.454176
 20
-6.453774
 30
0.0
 10
61.487442
 20
-6.357545
 30
0.0
 10
61.507576
 20
-6.254145
 30
0.0
 10
61.517498
 20
-6.136776
 30
0.0
 10
61.520144
 20
-5.998584
 30
0.0
 10
61.490484
 20
-5.747389
 30
0.0
 10
61.402074
 20
-5.511354
 30
0.0
 10
61.255783
 20
-5.291247
 30
0.0
 10
61.052488
 20
-5.087783
 30
0.0
 10
60.793059
 20
-4.901675
 30
0.0
 10
60.478363
 20
-4.733691
 30
0.0
 10
60.109275
 20
-4.584572
 30
0.0
 10
59.686664
 20
-4.455005
 30
0.0
 10
59.467477
 20
-4.390394
 30
0.0
 10
59.304806
 20
-4.328878
 30
0.0
 10
59.198965
 20
-4.271226
 30
0.0
 10
59.150269
 20
-4.218230
 30
0.0
 10
59.159026
 20
-4.170710
 30
0.0
 10
59.225556
 20
-4.129462
 30
0.0
 10
59.350172
 20
-4.095278
 30
0.0
 10
59.533184
 20
-4.069084
 30
0.0
 10
59.935136
 20
-4.005187
 30
0.0
 10
60.352781
 20
-3.897131
 30
0.0
 10
60.779827
 20
-3.747880
 30
0.0
 10
61.209978
 20
-3.560475
 30
0.0
 10
61.636947
 20
-3.337881
 30
0.0
 10
62.054438
 20
-3.083167
 30
0.0
 10
62.456161
 20
-2.799322
 30
0.0
 10
62.835824
 20
-2.489336
 30
0.0
 10
63.027817
 20
-2.316749
 30
0.0
 10
63.189694
 20
-2.160327
 30
0.0
 10
63.329712
 20
-2.009038
 30
0.0
 10
63.456122
 20
-1.851823
 30
0.0
 10
63.577182
 20
-1.677647
 30
0.0
 10
63.701144
 20
-1.475532
 30
0.0
 10
63.836264
 20
-1.234365
 30
0.0
 10
63.990794
 20
-0.943191
 30
0.0
 10
64.191131
 20
-0.549385
 30
0.0
 10
64.337644
 20
-0.231911
 30
0.0
 10
64.431466
 20
0.021374
 30
0.0
 10
64.473733
 20
0.222643
 30
0.0
 10
64.465584
 20
0.384065
 30
0.0
 10
64.408145
 20
0.517786
 30
0.0
 10
64.302561
 20
0.635949
 30
0.0
 10
64.149960
 20
0.750778
 30
0.0
 10
64.041044
 20
0.821130
 30
0.0
 10
63.945363
 20
0.875926
 30
0.0
 10
63.855081
 20
0.917148
 30
0.0
 10
63.762363
 20
0.946781
 30
0.0
 10
63.659380
 20
0.966889
 30
0.0
 10
63.538296
 20
0.979325
 30
0.0
 10
63.391272
 20
0.985939
 30
0.0
 10
63.210482
 20
0.989114
 30
0.0
 10
62.973773
 20
0.992819
 30
0.0
 10
62.745141
 20
1.000756
 30
0.0
 10
62.503439
 20
1.014779
 30
0.0
 10
62.227529
 20
1.036739
 30
0.0
 10
61.896270
 20
1.068331
 30
0.0
 10
61.488518
 20
1.111590
 30
0.0
 10
60.983135
 20
1.168317
 30
0.0
 10
60.358975
 20
1.240416
 30
0.0
 10
60.052429
 20
1.278648
 30
0.0
 10
59.752627
 20
1.321272
 30
0.0
 10
59.461360
 20
1.367945
 30
0.0
 10
59.180423
 20
1.418348
 30
0.0
 10
58.911609
 20
1.472111
 30
0.0
 10
58.656704
 20
1.528891
 30
0.0
 10
58.417505
 20
1.588369
 30
0.0
 10
58.195800
 20
1.650202
 30
0.0
 10
58.085665
 20
1.682825
 30
0.0
 10
57.975529
 20
1.715449
 30
0.0
 10
57.865394
 20
1.748072
 30
0.0
 10
57.755258
 20
1.780668
 30
0.0
 10
57.645123
 20
1.813291
 30
0.0
 10
57.534987
 20
1.845915
 30
0.0
 10
57.424852
 20
1.878538
 30
0.0
 10
57.314716
 20
1.911161
 30
0.0
 10
57.410125
 20
1.933386
 30
0.0
 10
57.505531
 20
1.955611
 30
0.0
 10
57.600940
 20
1.977836
 30
0.0
 10
57.696349
 20
2.000061
 30
0.0
 10
57.791755
 20
2.022286
 30
0.0
 10
57.887164
 20
2.044511
 30
0.0
 10
57.982570
 20
2.066736
 30
0.0
 10
58.077978
 20
2.088961
 30
0.0
 10
58.269955
 20
2.139364
 30
0.0
 10
58.523841
 20
2.214929
 30
0.0
 10
58.828731
 20
2.311978
 30
0.0
 10
59.173729
 20
2.426754
 30
0.0
 10
59.547929
 20
2.555633
 30
0.0
 10
59.940431
 20
2.694857
 30
0.0
 10
60.340333
 20
2.840774
 30
0.0
 10
60.736731
 20
2.989682
 30
0.0
 10
61.126325
 20
3.138245
 30
0.0
 10
61.506701
 20
3.283211
 30
0.0
 10
61.868323
 20
3.420926
 30
0.0
 10
62.201645
 20
3.547820
 30
0.0
 10
62.497129
 20
3.660242
 30
0.0
 10
62.745234
 20
3.754539
 30
0.0
 10
62.936416
 20
3.827141
 30
0.0
 10
63.061136
 20
3.874369
 30
0.0
 10
64.033286
 20
4.251136
 30
0.0
 10
65.047802
 20
4.662431
 30
0.0
 10
66.090154
 20
5.101771
 30
0.0
 10
67.145818
 20
5.562728
 30
0.0
 10
68.200262
 20
6.038846
 30
0.0
 10
69.238966
 20
6.523695
 30
0.0
 10
70.247396
 20
7.010819
 30
0.0
 10
71.211027
 20
7.493790
 30
0.0
 10
71.364491
 20
7.572133
 30
0.0
 10
71.528940
 20
7.655874
 30
0.0
 10
71.699255
 20
7.742419
 30
0.0
 10
71.870316
 20
7.829149
 30
0.0
 10
72.036993
 20
7.913525
 30
0.0
 10
72.194171
 20
7.992900
 30
0.0
 10
72.336724
 20
8.064708
 30
0.0
 10
72.459530
 20
8.126329
 30
0.0
 10
72.582939
 20
8.188771
 30
0.0
 10
72.727249
 20
8.262881
 30
0.0
 10
72.887202
 20
8.345907
 30
0.0
 10
73.057557
 20
8.435045
 30
0.0
 10
73.233063
 20
8.527570
 30
0.0
 10
73.408471
 20
8.620677
 30
0.0
 10
73.578535
 20
8.711614
 30
0.0
 10
73.738004
 20
8.797604
 30
0.0
 10
73.900242
 20
8.885101
 30
0.0
 10
74.078211
 20
8.980404
 30
0.0
 10
74.266121
 20
9.080417
 30
0.0
 10
74.458171
 20
9.182123
 30
0.0
 10
74.648568
 20
9.282453
 30
0.0
 10
74.831514
 20
9.378390
 30
0.0
 10
75.001215
 20
9.466867
 30
0.0
 10
75.151872
 20
9.544840
 30
0.0
 10
75.288254
 20
9.616198
 30
0.0
 10
75.417032
 20
9.685783
 30
0.0
 10
75.535277
 20
9.751823
 30
0.0
 10
75.640060
 20
9.812598
 30
0.0
 10
75.728454
 20
9.866335
 30
0.0
 10
75.797534
 20
9.911341
 30
0.0
 10
75.844371
 20
9.945816
 30
0.0
 10
75.866040
 20
9.968041
 30
0.0
 10
75.882233
 20
9.986562
 30
0.0
 10
75.913332
 20
10.010374
 30
0.0
 10
75.957504
 20
10.038288
 30
0.0
 10
76.012918
 20
10.069456
 30
0.0
 10
76.077749
 20
10.102873
 30
0.0
 10
76.150168
 20
10.137586
 30
0.0
 10
76.228347
 20
10.172617
 30
0.0
 10
76.310456
 20
10.206960
 30
0.0
 10
76.567086
 20
10.330838
 30
0.0
 10
76.904773
 20
10.522872
 30
0.0
 10
77.294187
 20
10.763352
 30
0.0
 10
77.705992
 20
11.032645
 30
0.0
 10
78.110850
 20
11.311066
 30
0.0
 10
78.479425
 20
11.578904
 30
0.0
 10
78.782386
 20
11.816552
 30
0.0
 10
78.990394
 20
12.004274
 30
0.0
 10
79.081236
 20
12.101376
 30
0.0
 10
79.152993
 20
12.185884
 30
0.0
 10
79.207207
 20
12.261158
 30
0.0
 10
79.245410
 20
12.330664
 30
0.0
 10
79.269143
 20
12.397736
 30
0.0
 10
79.279964
 20
12.465840
 30
0.0
 10
79.279435
 20
12.538362
 30
0.0
 10
79.269011
 20
12.618716
 30
0.0
 10
79.206722
 20
12.843929
 30
0.0
 10
79.096328
 20
13.047791
 30
0.0
 10
78.928444
 20
13.236412
 30
0.0
 10
78.693682
 20
13.415932
 30
0.0
 10
78.382654
 20
13.592462
 30
0.0
 10
77.985969
 20
13.772114
 30
0.0
 10
77.494246
 20
13.961053
 30
0.0
 10
76.898095
 20
14.165391
 30
0.0
 10
76.525398
 20
14.291835
 30
0.0
 10
76.237275
 20
14.399626
 30
0.0
 10
76.029923
 20
14.491781
 30
0.0
 10
75.899547
 20
14.571288
 30
0.0
 10
75.842347
 20
14.641165
 30
0.0
 10
75.854518
 20
14.704453
 30
0.0
 10
75.932265
 20
14.764143
 30
0.0
 10
76.071788
 20
14.823224
 30
0.0
 10
76.285169
 20
14.931968
 30
0.0
 10
76.644040
 20
15.150091
 30
0.0
 10
77.108595
 20
15.450525
 30
0.0
 10
77.639032
 20
15.806204
 30
0.0
 10
78.195546
 20
16.190035
 30
0.0
 10
78.738333
 20
16.574925
 30
0.0
 10
79.227590
 20
16.933806
 30
0.0
 10
79.623510
 20
17.239611
 30
0.0
 10
80.300245
 20
17.794416
 30
0.0
 10
80.943913
 20
18.344379
 30
0.0
 10
81.561419
 20
18.896088
 30
0.0
 10
82.159668
 20
19.456158
 30
0.0
 10
82.745561
 20
20.031203
 30
0.0
 10
83.326002
 20
20.627839
 30
0.0
 10
83.907897
 20
21.252626
 30
0.0
 10
84.498148
 20
21.912206
 30
0.0
 10
84.847311
 20
22.323104
 30
0.0
 10
85.130201
 20
22.687541
 30
0.0
 10
85.349924
 20
23.012079
 30
0.0
 10
85.509587
 20
23.303279
 30
0.0
 10
85.612293
 20
23.567677
 30
0.0
 10
85.661143
 20
23.811835
 30
0.0
 10
85.659291
 20
24.042260
 30
0.0
 10
85.609750
 20
24.265542
 30
0.0
 10
85.526094
 20
24.482051
 30
0.0
 10
85.419020
 20
24.665089
 30
0.0
 10
85.273298
 20
24.823734
 30
0.0
 10
85.073707
 20
24.967111
 30
0.0
 10
84.805017
 20
25.104298
 30
0.0
 10
84.452005
 20
25.244421
 30
0.0
 10
83.999443
 20
25.396583
 30
0.0
 10
83.432105
 20
25.569859
 30
0.0
 10
83.032936
 20
25.686434
 30
0.0
 10
82.688737
 20
25.782451
 30
0.0
 10
82.390440
 20
25.859921
 30
0.0
 10
82.128971
 20
25.920828
 30
0.0
 10
81.895259
 20
25.967157
 30
0.0
 10
81.680235
 20
26.000918
 30
0.0
 10
81.474829
 20
26.023936
 30
0.0
 10
81.269964
 20
26.038489
 30
0.0
 10
81.126007
 20
26.046691
 30
0.0
 10
80.986831
 20
26.055686
 30
0.0
 10
80.855828
 20
26.065211
 30
0.0
 10
80.736387
 20
26.074736
 30
0.0
 10
80.631903
 20
26.084261
 30
0.0
 10
80.545768
 20
26.093257
 30
0.0
 10
80.481371
 20
26.101724
 30
0.0
 10
80.442107
 20
26.109132
 30
0.0
 10
80.387928
 20
26.138792
 30
0.0
 10
80.368878
 20
26.187608
 30
0.0
 10
80.382954
 20
26.252748
 30
0.0
 10
80.428124
 20
26.331435
 30
0.0
 10
80.502363
 20
26.420864
 30
0.0
 10
80.603651
 20
26.518231
 30
0.0
 10
80.729966
 20
26.620757
 30
0.0
 10
80.879281
 20
26.725638
 30
0.0
 10
81.109346
 20
26.887219
 30
0.0
 10
81.362701
 20
27.085180
 30
0.0
 10
81.634806
 20
27.315288
 30
0.0
 10
81.921130
 20
27.573416
 30
0.0
 10
82.217136
 20
27.855276
 30
0.0
 10
82.518290
 20
28.156716
 30
0.0
 10
82.820058
 20
28.473528
 30
0.0
 10
83.117904
 20
28.801479
 30
0.0
 10
83.330949
 20
29.046563
 30
0.0
 10
83.512798
 20
29.269633
 30
0.0
 10
83.675175
 20
29.489608
 30
0.0
 10
83.829819
 20
29.725457
 30
0.0
 10
83.988458
 20
29.996100
 30
0.0
 10
84.162823
 20
30.320426
 30
0.0
 10
84.364650
 20
30.717433
 30
0.0
 10
84.605670
 20
31.205986
 30
0.0
 10
84.792727
 20
31.595083
 30
0.0
 10
84.963950
 20
31.965208
 30
0.0
 10
85.118943
 20
32.315437
 30
0.0
 10
85.257307
 20
32.644785
 30
0.0
 10
85.378652
 20
32.952358
 30
0.0
 10
85.482581
 20
33.237214
 30
0.0
 10
85.568700
 20
33.498416
 30
0.0
 10
85.636613
 20
33.735027
 30
0.0
 10
85.715372
 20
34.029501
 30
0.0
 10
85.785807
 20
34.267226
 30
0.0
 10
85.857990
 20
34.467648
 30
0.0
 10
85.942001
 20
34.650208
 30
0.0
 10
86.047911
 20
34.834352
 30
0.0
 10
86.185796
 20
35.039521
 30
0.0
 10
86.365731
 20
35.285157
 30
0.0
 10
86.597794
 20
35.590709
 30
0.0
 10
86.750237
 20
35.790909
 30
0.0
 10
86.906431
 20
35.997538
 30
0.0
 10
87.061953
 20
36.204645
 30
0.0
 10
87.212382
 20
36.406287
 30
0.0
 10
87.353296
 20
36.596512
 30
0.0
 10
87.480275
 20
36.769375
 30
0.0
 10
87.588894
 20
36.918928
 30
0.0
 10
87.674733
 20
37.039223
 30
0.0
 10
87.753846
 20
37.147425
 30
0.0
 10
87.843191
 20
37.262344
 30
0.0
 10
87.939711
 20
37.380459
 30
0.0
 10
88.040350
 20
37.498259
 30
0.0
 10
88.142056
 20
37.612229
 30
0.0
 10
88.241770
 20
37.718851
 30
0.0
 10
88.336440
 20
37.814611
 30
0.0
 10
88.423007
 20
37.895997
 30
0.0
 10
88.736099
 20
38.194212
 30
0.0
 10
89.004831
 20
38.486597
 30
0.0
 10
89.226872
 20
38.769093
 30
0.0
 10
89.399896
 20
39.037621
 30
0.0
 10
89.521575
 20
39.288118
 30
0.0
 10
89.589576
 20
39.516512
 30
0.0
 10
89.601561
 20
39.718735
 30
0.0
 10
89.555225
 20
39.890717
 30
0.0
 10
89.449127
 20
39.969436
 30
0.0
 10
89.216182
 20
40.063104
 30
0.0
 10
88.882493
 20
40.165500
 30
0.0
 10
88.474158
 20
40.270413
 30
0.0
 10
88.017281
 20
40.371629
 30
0.0
 10
87.537959
 20
40.462932
 30
0.0
 10
87.062294
 20
40.538105
 30
0.0
 10
86.616387
 20
40.590937
 30
0.0
 10
86.436645
 20
40.607870
 30
0.0
 10
86.247264
 20
40.625994
 30
0.0
 10
86.053946
 20
40.644727
 30
0.0
 10
85.862390
 20
40.663486
 30
0.0
 10
85.678301
 20
40.681689
 30
0.0
 10
85.507378
 20
40.698781
 30
0.0
 10
85.355324
 20
40.714206
 30
0.0
 10
85.227840
 20
40.727356
 30
0.0
 10
84.627096
 20
40.776349
 30
0.0
 10
84.011320
 20
40.800135
 30
0.0
 10
83.389240
 20
40.799341
 30
0.0
 10
82.769578
 20
40.774338
 30
0.0
 10
82.161063
 20
40.725737
 30
0.0
 10
81.572415
 20
40.654077
 30
0.0
 10
81.012361
 20
40.559891
 30
0.0
 10
80.489629
 20
40.443718
 30
0.0
 10
80.333305
 20
40.405440
 30
0.0
 10
80.182527
 20
40.371037
 30
0.0
 10
80.040943
 20
40.341173
 30
0.0
 10
79.912205
 20
40.316514
 30
0.0
 10
79.799963
 20
40.297702
 30
0.0
 10
79.707870
 20
40.285399
 30
0.0
 10
79.639573
 20
40.280292
 30
0.0
 10
79.598726
 20
40.283018
 30
0.0
 10
79.574517
 20
40.301829
 30
0.0
 10
79.569331
 20
40.341231
 30
0.0
 10
79.583725
 20
40.402472
 30
0.0
 10
79.618237
 20
40.486794
 30
0.0
 10
79.673437
 20
40.595451
 30
0.0
 10
79.749883
 20
40.729682
 30
0.0
 10
79.848131
 20
40.890739
 30
0.0
 10
79.968738
 20
41.079866
 30
0.0
 10
80.449999
 20
41.869152
 30
0.0
 10
80.913269
 20
42.719309
 30
0.0
 10
81.346056
 20
43.600398
 30
0.0
 10
81.735872
 20
44.482487
 30
0.0
 10
82.070223
 20
45.335638
 30
0.0
 10
82.336624
 20
46.129918
 30
0.0
 10
82.522581
 20
46.835387
 30
0.0
 10
82.615603
 20
47.422114
 30
0.0
 10
82.624467
 20
47.515559
 30
0.0
 10
82.636188
 20
47.608944
 30
0.0
 10
82.650158
 20
47.699794
 30
0.0
 10
82.665821
 20
47.785630
 30
0.0
 10
82.682596
 20
47.863978
 30
0.0
 10
82.699926
 20
47.932363
 30
0.0
 10
82.717230
 20
47.988306
 30
0.0
 10
82.733952
 20
48.029332
 30
0.0
 10
82.770329
 20
48.175078
 30
0.0
 10
82.811527
 20
48.459264
 30
0.0
 10
82.854414
 20
48.844810
 30
0.0
 10
82.895855
 20
49.294628
 30
0.0
 10
82.932725
 20
49.771643
 30
0.0
 10
82.961890
 20
50.238767
 30
0.0
 10
82.980226
 20
50.658920
 30
0.0
 10
82.984591
 20
50.995020
 30
0.0
 10
82.984856
 20
51.097983
 30
0.0
 10
82.987978
 20
51.214225
 30
0.0
 10
82.993640
 20
51.339759
 30
0.0
 10
83.001578
 20
51.470588
 30
0.0
 10
83.011552
 20
51.602726
 30
0.0
 10
83.023300
 20
51.732181
 30
0.0
 10
83.036582
 20
51.854961
 30
0.0
 10
83.051134
 20
51.967073
 30
0.0
 10
83.088033
 20
52.299623
 30
0.0
 10
83.111845
 20
52.670447
 30
0.0
 10
83.122984
 20
53.057545
 30
0.0
 10
83.121926
 20
53.438916
 30
0.0
 10
83.108908
 20
53.792566
 30
0.0
 10
83.084408
 20
54.096490
 30
0.0
 10
83.048840
 20
54.328694
 30
0.0
 10
83.002596
 20
54.467174
 30
0.0
 10
82.889590
 20
54.589065
 30
0.0
 10
82.716127
 20
54.694152
 30
0.0
 10
82.493165
 20
54.780298
 30
0.0
 10
82.231656
 20
54.845369
 30
0.0
 10
81.942556
 20
54.887229
 30
0.0
 10
81.636820
 20
54.903739
 30
0.0
 10
81.325403
 20
54.892759
 30
0.0
 10
81.019256
 20
54.852164
 30
0.0
 10
80.593311
 20
54.765904
 30
0.0
 10
80.149216
 20
54.664172
 30
0.0
 10
79.701702
 20
54.551203
 30
0.0
 10
79.265502
 20
54.431225
 30
0.0
 10
78.855350
 20
54.308474
 30
0.0
 10
78.485976
 20
54.187184
 30
0.0
 10
78.172112
 20
54.071587
 30
0.0
 10
77.928489
 20
53.965916
 30
0.0
 10
77.822232
 20
53.915737
 30
0.0
 10
77.718838
 20
53.870036
 30
0.0
 10
77.620881
 20
53.829740
 30
0.0
 10
77.530931
 20
53.795767
 30
0.0
 10
77.451564
 20
53.769047
 30
0.0
 10
77.385355
 20
53.750500
 30
0.0
 10
77.334869
 20
53.741054
 30
0.0
 10
77.302688
 20
53.741583
 30
0.0
 10
77.301101
 20
53.787139
 30
0.0
 10
77.345881
 20
53.908371
 30
0.0
 10
77.435607
 20
54.102353
 30
0.0
 10
77.568772
 20
54.366169
 30
0.0
 10
77.743876
 20
54.696896
 30
0.0
 10
77.959416
 20
55.091614
 30
0.0
 10
78.213889
 20
55.547404
 30
0.0
 10
78.505791
 20
56.061344
 30
0.0
 10
78.778640
 20
56.540539
 30
0.0
 10
79.051634
 20
57.024322
 30
0.0
 10
79.317482
 20
57.499474
 30
0.0
 10
79.568900
 20
57.952784
 30
0.0
 10
79.798598
 20
58.371040
 30
0.0
 10
79.999287
 20
58.741031
 30
0.0
 10
80.163681
 20
59.049543
 30
0.0
 10
80.284495
 20
59.283361
 30
0.0
 10
80.603635
 20
59.936445
 30
0.0
 10
80.936838
 20
60.650979
 30
0.0
 10
81.268721
 20
61.390746
 30
0.0
 10
81.583911
 20
62.119525
 30
0.0
 10
81.867026
 20
62.801097
 30
0.0
 10
82.102690
 20
63.399243
 30
0.0
 10
82.275527
 20
63.877744
 30
0.0
 10
82.370155
 20
64.200377
 30
0.0
 10
82.400248
 20
64.331793
 30
0.0
 10
82.436160
 20
64.475824
 30
0.0
 10
82.476541
 20
64.627796
 30
0.0
 10
82.520041
 20
64.783027
 30
0.0
 10
82.565314
 20
64.936837
 30
0.0
 10
82.611013
 20
65.084546
 30
0.0
 10
82.655791
 20
65.221478
 30
0.0
 10
82.698299
 20
65.342954
 30
0.0
 10
82.739376
 20
65.461252
 30
0.0
 10
82.780002
 20
65.589096
 30
0.0
 10
82.819132
 20
65.722438
 30
0.0
 10
82.855718
 20
65.857230
 30
0.0
 10
82.888712
 20
65.989426
 30
0.0
 10
82.917062
 20
66.114976
 30
0.0
 10
82.939710
 20
66.229837
 30
0.0
 10
82.955638
 20
66.329956
 30
0.0
 10
82.971037
 20
66.429238
 30
0.0
 10
82.992203
 20
66.541673
 30
0.0
 10
83.018212
 20
66.663378
 30
0.0
 10
83.048083
 20
66.790476
 30
0.0
 10
83.080871
 20
66.919082
 30
0.0
 10
83.115613
 20
67.045312
 30
0.0
 10
83.151356
 20
67.165287
 30
0.0
 10
83.187146
 20
67.275127
 30
0.0
 10
83.222698
 20
67.386963
 30
0.0
 10
83.257652
 20
67.512688
 30
0.0
 10
83.291103
 20
67.648022
 30
0.0
 10
83.322149
 20
67.788683
 30
0.0
 10
83.349883
 20
67.930391
 30
0.0
 10
83.373405
 20
68.068863
 30
0.0
 10
83.391793
 20
68.199824
 30
0.0
 10
83.404176
 20
68.318987
 30
0.0
 10
83.415579
 20
68.437568
 30
0.0
 10
83.430872
 20
68.566854
 30
0.0
 10
83.449393
 20
68.702689
 30
0.0
 10
83.470454
 20
68.840907
 30
0.0
 10
83.493367
 20
68.977353
 30
0.0
 10
83.517444
 20
69.107861
 30
0.0
 10
83.542023
 20
69.228275
 30
0.0
 10
83.566418
 20
69.334432
 30
0.0
 10
83.620528
 20
69.567762
 30
0.0
 10
83.671759
 20
69.822657
 30
0.0
 10
83.719114
 20
70.092114
 30
0.0
 10
83.761606
 20
70.369135
 30
0.0
 10
83.798235
 20
70.646720
 30
0.0
 10
83.828014
 20
70.917870
 30
0.0
 10
83.849948
 20
71.175585
 30
0.0
 10
83.863045
 20
71.412866
 30
0.0
 10
83.868284
 20
71.528989
 30
0.0
 10
83.876274
 20
71.685326
 30
0.0
 10
83.886619
 20
71.875038
 30
0.0
 10
83.898975
 20
72.091274
 30
0.0
 10
83.912919
 20
72.327192
 30
0.0
 10
83.928106
 20
72.575948
 30
0.0
 10
83.944166
 20
72.830691
 30
0.0
 10
83.960703
 20
73.084583
 30
0.0
 10
83.991939
 20
73.653884
 30
0.0
 10
84.014588
 20
74.252948
 30
0.0
 10
84.028584
 20
74.853714
 30
0.0
 10
84.033876
 20
75.428117
 30
0.0
 10
84.030410
 20
75.948099
 30
0.0
 10
84.018133
 20
76.385599
 30
0.0
 10
83.996967
 20
76.712555
 30
0.0
 10
83.966870
 20
76.900906
 30
0.0
 10
83.954673
 20
76.950516
 30
0.0
 10
83.945280
 20
77.011423
 30
0.0
 10
83.938745
 20
77.081268
 30
0.0
 10
83.935120
 20
77.157682
 30
0.0
 10
83.934591
 20
77.238300
 30
0.0
 10
83.936972
 20
77.320760
 30
0.0
 10
83.942396
 20
77.402699
 30
0.0
 10
83.950969
 20
77.481746
 30
0.0
 10
83.958271
 20
77.566397
 30
0.0
 10
83.960123
 20
77.664401
 30
0.0
 10
83.957107
 20
77.772251
 30
0.0
 10
83.949408
 20
77.886440
 30
0.0
 10
83.937343
 20
78.003462
 30
0.0
 10
83.921203
 20
78.119810
 30
0.0
 10
83.901306
 20
78.231978
 30
0.0
 10
83.877970
 20
78.336456
 30
0.0
 10
83.854131
 20
78.441477
 30
0.0
 10
83.832594
 20
78.555200
 30
0.0
 10
83.813782
 20
78.674017
 30
0.0
 10
83.798093
 20
78.794310
 30
0.0
 10
83.785922
 20
78.912475
 30
0.0
 10
83.777693
 20
79.024897
 30
0.0
 10
83.773804
 20
79.127968
 30
0.0
 10
83.774598
 20
79.218074
 30
0.0
 10
83.776714
 20
79.365434
 30
0.0
 10
83.772587
 20
79.529436
 30
0.0
 10
83.762533
 20
79.706286
 30
0.0
 10
83.746922
 20
79.892193
 30
0.0
 10
83.726152
 20
80.083362
 30
0.0
 10
83.700567
 20
80.276003
 30
0.0
 10
83.670566
 20
80.466323
 30
0.0
 10
83.636522
 20
80.650528
 30
0.0
 10
83.625039
 20
80.711070
 30
0.0
 10
83.607074
 20
80.809302
 30
0.0
 10
83.583526
 20
80.940091
 30
0.0
 10
83.555335
 20
81.098301
 30
0.0
 10
83.523405
 20
81.278800
 30
0.0
 10
83.488652
 20
81.476449
 30
0.0
 10
83.451986
 20
81.686118
 30
0.0
 10
83.414322
 20
81.902669
 30
0.0
 10
83.313540
 20
82.477513
 30
0.0
 10
83.224336
 20
82.972890
 30
0.0
 10
83.145998
 20
83.392321
 30
0.0
 10
83.077815
 20
83.739330
 30
0.0
 10
83.019075
 20
84.017439
 30
0.0
 10
82.969066
 20
84.230166
 30
0.0
 10
82.927074
 20
84.381037
 30
0.0
 10
82.892389
 20
84.473572
 30
0.0
 10
82.874927
 20
84.518028
 30
0.0
 10
82.854633
 20
84.584078
 30
0.0
 10
82.832197
 20
84.668528
 30
0.0
 10
82.808384
 20
84.768178
 30
0.0
 10
82.783884
 20
84.879840
 30
0.0
 10
82.759436
 20
85.000313
 30
0.0
 10
82.735756
 20
85.126403
 30
0.0
 10
82.713584
 20
85.254913
 30
0.0
 10
82.688554
 20
85.393455
 30
0.0
 10
82.656736
 20
85.548278
 30
0.0
 10
82.619429
 20
85.714164
 30
0.0
 10
82.577937
 20
85.885884
 30
0.0
 10
82.533572
 20
86.058220
 30
0.0
 10
82.487635
 20
86.225942
 30
0.0
 10
82.441436
 20
86.383830
 30
0.0
 10
82.396282
 20
86.526660
 30
0.0
 10
82.353867
 20
86.657914
 30
0.0
 10
82.315537
 20
86.782634
 30
0.0
 10
82.282033
 20
86.897934
 30
0.0
 10
82.254093
 20
87.000923
 30
0.0
 10
82.232450
 20
87.088714
 30
0.0
 10
82.217871
 20
87.158424
 30
0.0
 10
82.211071
 20
87.207160
 30
0.0
 10
82.212923
 20
87.232031
 30
0.0
 10
82.208796
 20
87.309244
 30
0.0
 10
82.172821
 20
87.472402
 30
0.0
 10
82.111755
 20
87.699439
 30
0.0
 10
82.032345
 20
87.968290
 30
0.0
 10
81.941342
 20
88.256892
 30
0.0
 10
81.845483
 20
88.543182
 30
0.0
 10
81.751522
 20
88.805093
 30
0.0
 10
81.666199
 20
89.020561
 30
0.0
 10
81.629308
 20
89.111763
 30
0.0
 10
81.583445
 20
89.232498
 30
0.0
 10
81.530433
 20
89.377572
 30
0.0
 10
81.472090
 20
89.541788
 30
0.0
 10
81.410233
 20
89.719945
 30
0.0
 10
81.346686
 20
89.906852
 30
0.0
 10
81.283262
 20
90.097307
 30
0.0
 10
81.221784
 20
90.286116
 30
0.0
 10
81.157260
 20
90.483205
 30
0.0
 10
81.085105
 20
90.697393
 30
0.0
 10
81.007749
 20
90.921831
 30
0.0
 10
80.927625
 20
91.149661
 30
0.0
 10
80.847158
 20
91.374033
 30
0.0
 10
80.768783
 20
91.588091
 30
0.0
 10
80.694927
 20
91.784984
 30
0.0
 10
80.628019
 20
91.957860
 30
0.0
 10
80.565575
 20
92.119240
 30
0.0
 10
80.504506
 20
92.283186
 30
0.0
 10
80.446364
 20
92.445156
 30
0.0
 10
80.392699
 20
92.600604
 30
0.0
 10
80.345068
 20
92.744990
 30
0.0
 10
80.305018
 20
92.873763
 30
0.0
 10
80.274107
 20
92.982382
 30
0.0
 10
80.253893
 20
93.066305
 30
0.0
 10
80.236563
 20
93.139118
 30
0.0
 10
80.214020
 20
93.215874
 30
0.0
 10
80.187199
 20
93.294262
 30
0.0
 10
80.157042
 20
93.371962
 30
0.0
 10
80.124488
 20
93.446660
 30
0.0
 10
80.090478
 20
93.516039
 30
0.0
 10
80.055955
 20
93.577782
 30
0.0
 10
80.021859
 20
93.629577
 30
0.0
 10
79.981552
 20
93.696019
 30
0.0
 10
79.929225
 20
93.799749
 30
0.0
 10
79.867075
 20
93.935506
 30
0.0
 10
79.797304
 20
94.098032
 30
0.0
 10
79.722110
 20
94.282066
 30
0.0
 10
79.643690
 20
94.482350
 30
0.0
 10
79.564243
 20
94.693628
 30
0.0
 10
79.485974
 20
94.910636
 30
0.0
 10
79.406221
 20
95.132010
 30
0.0
 10
79.322570
 20
95.355800
 30
0.0
 10
79.237504
 20
95.575883
 30
0.0
 10
79.153504
 20
95.786127
 30
0.0
 10
79.073047
 20
95.980405
 30
0.0
 10
78.998614
 20
96.152588
 30
0.0
 10
78.932685
 20
96.296553
 30
0.0
 10
78.877742
 20
96.406167
 30
0.0
 10
78.824164
 20
96.512712
 30
0.0
 10
78.762151
 20
96.647893
 30
0.0
 10
78.693920
 20
96.806191
 30
0.0
 10
78.621694
 20
96.982086
 30
0.0
 10
78.547690
 20
97.170061
 30
0.0
 10
78.474128
 20
97.364599
 30
0.0
 10
78.403225
 20
97.560179
 30
0.0
 10
78.337206
 20
97.751282
 30
0.0
 10
78.269214
 20
97.946129
 30
0.0
 10
78.192643
 20
98.152420
 30
0.0
 10
78.110122
 20
98.363880
 30
0.0
 10
78.024273
 20
98.574245
 30
0.0
 10
77.937717
 20
98.777244
 30
0.0
 10
77.853077
 20
98.966609
 30
0.0
 10
77.772974
 20
99.136069
 30
0.0
 10
77.700037
 20
99.279357
 30
0.0
 10
77.634068
 20
99.405539
 30
0.0
 10
77.573942
 20
99.525962
 30
0.0
 10
77.520877
 20
99.637798
 30
0.0
 10
77.476083
 20
99.738221
 30
0.0
 10
77.440777
 20
99.824404
 30
0.0
 10
77.416171
 20
99.893521
 30
0.0
 10
77.403471
 20
99.942749
 30
0.0
 10
77.404000
 20
99.969258
 30
0.0
 10
77.405058
 20
99.995637
 30
0.0
 10
77.394263
 20
100.044542
 30
0.0
 10
77.372673
 20
100.113154
 30
0.0
 10
77.341349
 20
100.198662
 30
0.0
 10
77.301381
 20
100.298257
 30
0.0
 10
77.253851
 20
100.409125
 30
0.0
 10
77.199842
 20
100.528457
 30
0.0
 10
77.140430
 20
100.653439
 30
0.0
 10
77.075289
 20
100.792247
 30
0.0
 10
77.004876
 20
100.951185
 30
0.0
 10
76.931412
 20
101.124677
 30
0.0
 10
76.857127
 20
101.307142
 30
0.0
 10
76.784245
 20
101.492999
 30
0.0
 10
76.714993
 20
101.676664
 30
0.0
 10
76.651593
 20
101.852565
 30
0.0
 10
76.596277
 20
102.015117
 30
0.0
 10
76.536891
 20
102.181992
 30
0.0
 10
76.461816
 20
102.370322
 30
0.0
 10
76.374101
 20
102.573647
 30
0.0
 10
76.276793
 20
102.785507
 30
0.0
 10
76.172946
 20
102.999449
 30
0.0
 10
76.065608
 20
103.209012
 30
0.0
 10
75.957827
 20
103.407741
 30
0.0
 10
75.852655
 20
103.589176
 30
0.0
 10
75.753145
 20
103.756768
 30
0.0
 10
75.661613
 20
103.915823
 30
0.0
 10
75.579970
 20
104.062672
 30
0.0
 10
75.510128
 20
104.193635
 30
0.0
 10
75.454002
 20
104.305048
 30
0.0
 10
75.413505
 20
104.393234
 30
0.0
 10
75.390539
 20
104.454522
 30
0.0
 10
75.387047
 20
104.485240
 30
0.0
 10
75.365139
 20
104.596402
 30
0.0
 10
75.260115
 20
104.811419
 30
0.0
 10
75.087268
 20
105.107075
 30
0.0
 10
74.861902
 20
105.460148
 30
0.0
 10
74.599311
 20
105.847418
 30
0.0
 10
74.314788
 20
106.245672
 30
0.0
 10
74.023638
 20
106.631688
 30
0.0
 10
73.741153
 20
106.982245
 30
0.0
 10
73.555638
 20
107.195592
 30
0.0
 10
73.356332
 20
107.410640
 30
0.0
 10
73.145086
 20
107.625662
 30
0.0
 10
72.923744
 20
107.838935
 30
0.0
 10
72.694152
 20
108.048733
 30
0.0
 10
72.458154
 20
108.253330
 30
0.0
 10
72.217600
 20
108.451006
 30
0.0
 10
71.974334
 20
108.640029
 30
0.0
 10
71.680898
 20
108.860493
 30
0.0
 10
71.441331
 20
109.036333
 30
0.0
 10
71.242587
 20
109.174310
 30
0.0
 10
71.071613
 20
109.281189
 30
0.0
 10
70.915358
 20
109.363734
 30
0.0
 10
70.760773
 20
109.428707
 30
0.0
 10
70.594805
 20
109.482875
 30
0.0
 10
70.404405
 20
109.532998
 30
0.0
 10
70.404207
 20
109.532866
 30
0.0
 10
70.404008
 20
109.532734
 30
0.0
 10
70.403810
 20
109.532601
 30
0.0
 10
70.403612
 20
109.532469
 30
0.0
 10
70.403413
 20
109.532337
 30
0.0
 10
70.403215
 20
109.532204
 30
0.0
 10
70.403016
 20
109.532072
 30
0.0
 10
70.402818
 20
109.531940
 30
0.0
 10
70.372862
 20
109.539189
 30
0.0
 10
70.342072
 20
109.546545
 30
0.0
 10
70.310420
 20
109.554033
 30
0.0
 10
70.277879
 20
109.561626
 30
0.0
 10
70.244420
 20
109.569352
 30
0.0
 10
70.210011
 20
109.577236
 30
0.0
 10
70.174625
 20
109.585253
 30
0.0
 10
70.138234
 20
109.593429
 30
0.0
 10
69.887740
 20
109.647153
 30
0.0
 10
69.670837
 20
109.686266
 30
0.0
 10
69.472135
 20
109.711110
 30
0.0
 10
69.276256
 20
109.722011
 30
0.0
 10
69.067818
 20
109.719286
 30
0.0
 10
68.831431
 20
109.703279
 30
0.0
 10
68.551716
 20
109.674315
 30
0.0
 10
68.213288
 20
109.632725
 30
0.0
 10
67.698033
 20
109.554911
 30
0.0
 10
67.200179
 20
109.455459
 30
0.0
 10
66.717511
 20
109.333624
 30
0.0
 10
66.247809
 20
109.188659
 30
0.0
 10
65.788858
 20
109.019812
 30
0.0
 10
65.338441
 20
108.826338
 30
0.0
 10
64.894341
 20
108.607491
 30
0.0
 10
64.454344
 20
108.362516
 30
0.0
 10
63.912980
 20
108.035284
 30
0.0
 10
63.343052
 20
107.676126
 30
0.0
 10
62.773957
 20
107.305156
 30
0.0
 10
62.235088
 20
106.942487
 30
0.0
 10
61.755846
 20
106.608236
 30
0.0
 10
61.365619
 20
106.322518
 30
0.0
 10
61.093805
 20
106.105445
 30
0.0
 10
60.969803
 20
105.977138
 30
0.0
 10
60.949562
 20
105.950106
 30
0.0
 10
60.910922
 20
105.909749
 30
0.0
 10
60.856146
 20
105.858039
 30
0.0
 10
60.787484
 20
105.796944
 30
0.0
 10
60.707185
 20
105.728433
 30
0.0
 10
60.617497
 20
105.654471
 30
0.0
 10
60.520667
 20
105.577033
 30
0.0
 10
60.418946
 20
105.498084
 30
0.0
 10
60.229388
 20
105.351814
 30
0.0
 10
60.045571
 20
105.206566
 30
0.0
 10
59.856034
 20
105.052647
 30
0.0
 10
59.649302
 20
104.880374
 30
0.0
 10
59.413915
 20
104.680056
 30
0.0
 10
59.138402
 20
104.442007
 30
0.0
 10
58.811298
 20
104.156538
 30
0.0
 10
58.421132
 20
103.813958
 30
0.0
 10
58.267780
 20
103.680134
 30
0.0
 10
58.092822
 20
103.529335
 30
0.0
 10
57.902359
 20
103.366727
 30
0.0
 10
57.702482
 20
103.197468
 30
0.0
 10
57.499292
 20
103.026725
 30
0.0
 10
57.298881
 20
102.859653
 30
0.0
 10
57.107347
 20
102.701419
 30
0.0
 10
56.930785
 20
102.557187
 30
0.0
 10
56.402166
 20
102.123707
 30
0.0
 10
55.750973
 20
101.582679
 30
0.0
 10
55.026994
 20
100.976199
 30
0.0
 10
54.280012
 20
100.346366
 30
0.0
 10
53.559805
 20
99.735279
 30
0.0
 10
52.916161
 20
99.185035
 30
0.0
 10
52.398864
 20
98.737736
 30
0.0
 10
52.057697
 20
98.435481
 30
0.0
 10
51.976517
 20
98.360935
 30
0.0
 10
51.880069
 20
98.271527
 30
0.0
 10
51.771944
 20
98.170642
 30
0.0
 10
51.655729
 20
98.061652
 30
0.0
 10
51.535015
 20
97.947939
 30
0.0
 10
51.413394
 20
97.832885
 30
0.0
 10
51.294453
 20
97.719863
 30
0.0
 10
51.181783
 20
97.612257
 30
0.0
 10
51.069282
 20
97.504603
 30
0.0
 10
50.950836
 20
97.391428
 30
0.0
 10
50.830009
 20
97.276125
 30
0.0
 10
50.710357
 20
97.162087
 30
0.0
 10
50.595437
 20
97.052713
 30
0.0
 10
50.488808
 20
96.951394
 30
0.0
 10
50.394026
 20
96.861520
 30
0.0
 10
50.314651
 20
96.786492
 30
0.0
 10
50.237607
 20
96.711790
 30
0.0
 10
50.149511
 20
96.622869
 30
0.0
 10
50.053449
 20
96.523049
 30
0.0
 10
49.952510
 20
96.415652
 30
0.0
 10
49.849781
 20
96.303998
 30
0.0
 10
49.748350
 20
96.191410
 30
0.0
 10
49.651301
 20
96.081206
 30
0.0
 10
49.561726
 20
95.976709
 30
0.0
 10
49.475459
 20
95.876394
 30
0.0
 10
49.387916
 20
95.778184
 30
0.0
 10
49.301519
 20
95.684558
 30
0.0
 10
49.218694
 20
95.598000
 30
0.0
 10
49.141864
 20
95.520996
 30
0.0
 10
49.073454
 20
95.456022
 30
0.0
 10
49.015885
 20
95.405566
 30
0.0
 10
48.971581
 20
95.372109
 30
0.0
 10
48.924763
 20
95.335216
 30
0.0
 10
48.859982
 20
95.274907
 30
0.0
 10
48.780152
 20
95.194344
 30
0.0
 10
48.688196
 20
95.096694
 30
0.0
 10
48.587025
 20
94.985119
 30
0.0
 10
48.479559
 20
94.862786
 30
0.0
 10
48.368717
 20
94.732855
 30
0.0
 10
48.257412
 20
94.598494
 30
0.0
 10
48.142133
 20
94.459278
 30
0.0
 10
48.019912
 20
94.315424
 30
0.0
 10
47.894483
 20
94.171078
 30
0.0
 10
47.769584
 20
94.030391
 30
0.0
 10
47.648947
 20
93.897510
 30
0.0
 10
47.536312
 20
93.776587
 30
0.0
 10
47.435408
 20
93.671767
 30
0.0
 10
47.349974
 20
93.587204
 30
0.0
 10
47.271829
 20
93.508966
 30
0.0
 10
47.191829
 20
93.422318
 30
0.0
 10
47.112227
 20
93.330140
 30
0.0
 10
47.035281
 20
93.235308
 30
0.0
 10
46.963240
 20
93.140698
 30
0.0
 10
46.898362
 20
93.049189
 30
0.0
 10
46.842897
 20
92.963660
 30
0.0
 10
46.799103
 20
92.886984
 30
0.0
 10
46.750547
 20
92.806492
 30
0.0
 10
46.681353
 20
92.710015
 30
0.0
 10
46.594752
 20
92.601191
 30
0.0
 10
46.493970
 20
92.483658
 30
0.0
 10
46.382239
 20
92.361056
 30
0.0
 10
46.262785
 20
92.237014
 30
0.0
 10
46.138835
 20
92.115176
 30
0.0
 10
46.013621
 20
91.999174
 30
0.0
 10
45.888569
 20
91.883438
 30
0.0
 10
45.765077
 20
91.762356
 30
0.0
 10
45.646319
 20
91.639524
 30
0.0
 10
45.535458
 20
91.518532
 30
0.0
 10
45.435666
 20
91.402973
 30
0.0
 10
45.350102
 20
91.296438
 30
0.0
 10
45.281940
 20
91.202519
 30
0.0
 10
45.234341
 20
91.124806
 30
0.0
 10
45.187788
 20
91.046158
 30
0.0
 10
45.122222
 20
90.949673
 30
0.0
 10
45.040666
 20
90.839111
 30
0.0
 10
44.946149
 20
90.718244
 30
0.0
 10
44.841697
 20
90.590837
 30
0.0
 10
44.730334
 20
90.460657
 30
0.0
 10
44.615089
 20
90.331471
 30
0.0
 10
44.498985
 20
90.207046
 30
0.0
 10
44.382896
 20
90.082856
 30
0.0
 10
44.267699
 20
89.954345
 30
0.0
 10
44.156408
 20
89.825228
 30
0.0
 10
44.052040
 20
89.699220
 30
0.0
 10
43.957613
 20
89.580041
 30
0.0
 10
43.876143
 20
89.471406
 30
0.0
 10
43.810648
 20
89.377032
 30
0.0
 10
43.764147
 20
89.300636
 30
0.0
 10
43.722338
 20
89.230498
 30
0.0
 10
43.670223
 20
89.154046
 30
0.0
 10
43.609887
 20
89.073743
 30
0.0
 10
43.543408
 20
88.992050
 30
0.0
 10
43.472870
 20
88.911431
 30
0.0
 10
43.400353
 20
88.834353
 30
0.0
 10
43.327942
 20
88.763278
 30
0.0
 10
43.257719
 20
88.700667
 30
0.0
 10
43.180810
 20
88.630465
 30
0.0
 10
43.089253
 20
88.537633
 30
0.0
 10
42.986476
 20
88.426156
 30
0.0
 10
42.875904
 20
88.300022
 30
0.0
 10
42.760964
 20
88.163216
 30
0.0
 10
42.645079
 20
88.019727
 30
0.0
 10
42.531676
 20
87.873540
 30
0.0
 10
42.424178
 20
87.728641
 30
0.0
 10
42.312463
 20
87.577997
 30
0.0
 10
42.186953
 20
87.415366
 30
0.0
 10
42.051909
 20
87.245882
 30
0.0
 10
41.911593
 20
87.074683
 30
0.0
 10
41.770271
 20
86.906908
 30
0.0
 10
41.632206
 20
86.747693
 30
0.0
 10
41.501661
 20
86.602174
 30
0.0
 10
41.382897
 20
86.475495
 30
0.0
 10
41.270793
 20
86.356154
 30
0.0
 10
41.159374
 20
86.231697
 30
0.0
 10
41.051570
 20
86.105792
 30
0.0
 10
40.950311
 20
85.982113
 30
0.0
 10
40.858519
 20
85.864326
 30
0.0
 10
40.779126
 20
85.756103
 30
0.0
 10
40.715060
 20
85.661115
 30
0.0
 10
40.669244
 20
85.583029
 30
0.0
 10
40.627670
 20
85.509334
 30
0.0
 10
40.584348
 20
85.443868
 30
0.0
 10
40.539810
 20
85.387113
 30
0.0
 10
40.494604
 20
85.339543
 30
0.0
 10
40.449265
 20
85.301642
 30
0.0
 10
40.404330
 20
85.273887
 30
0.0
 10
40.360346
 20
85.256768
 30
0.0
 10
40.317846
 20
85.250736
 30
0.0
 10
40.241519
 20
85.262298
 30
0.0
 10
40.136141
 20
85.301983
 30
0.0
 10
39.989593
 20
85.377360
 30
0.0
 10
39.789756
 20
85.495981
 30
0.0
 10
39.524511
 20
85.665404
 30
0.0
 10
39.181738
 20
85.893184
 30
0.0
 10
38.749317
 20
86.186877
 30
0.0
 10
38.215131
 20
86.554034
 30
0.0
 10
38.029528
 20
86.680073
 30
0.0
 10
37.810027
 20
86.825769
 30
0.0
 10
37.564756
 20
86.985910
 30
0.0
 10
37.301845
 20
87.155297
 30
0.0
 10
37.029427
 20
87.328718
 30
0.0
 10
36.755634
 20
87.500972
 30
0.0
 10
36.488595
 20
87.666850
 30
0.0
 10
36.236442
 20
87.821150
 30
0.0
 10
35.454423
 20
88.280876
 30
0.0
 10
34.753103
 20
88.662120
 30
0.0
 10
34.129832
 20
88.965859
 30
0.0
 10
33.581962
 20
89.193080
 30
0.0
 10
33.106842
 20
89.344766
 30
0.0
 10
32.701820
 20
89.421900
 30
0.0
 10
32.364246
 20
89.425472
 30
0.0
 10
32.091474
 20
89.356453
 30
0.0
 10
32.008326
 20
89.316019
 30
0.0
 10
31.929877
 20
89.269161
 30
0.0
 10
31.856251
 20
89.215996
 30
0.0
 10
31.787579
 20
89.156626
 30
0.0
 10
31.723978
 20
89.091165
 30
0.0
 10
31.665582
 20
89.019723
 30
0.0
 10
31.612509
 20
88.942406
 30
0.0
 10
31.564892
 20
88.859327
 30
0.0
 10
31.525742
 20
88.789199
 30
0.0
 10
31.483932
 20
88.723014
 30
0.0
 10
31.440752
 20
88.662273
 30
0.0
 10
31.397504
 20
88.608486
 30
0.0
 10
31.355475
 20
88.563155
 30
0.0
 10
31.315962
 20
88.527786
 30
0.0
 10
31.280261
 20
88.503894
 30
0.0
 10
31.249665
 20
88.492966
 30
0.0
 10
31.212854
 20
88.496803
 30
0.0
 10
31.159389
 20
88.515244
 30
0.0
 10
31.091812
 20
88.546804
 30
0.0
 10
31.012659
 20
88.590026
 30
0.0
 10
30.924474
 20
88.643435
 30
0.0
 10
30.829790
 20
88.705559
 30
0.0
 10
30.731153
 20
88.774930
 30
0.0
 10
30.631098
 20
88.850074
 30
0.0
 10
30.518849
 20
88.934694
 30
0.0
 10
30.385266
 20
89.031243
 30
0.0
 10
30.235335
 20
89.136348
 30
0.0
 10
30.074029
 20
89.246643
 30
0.0
 10
29.906328
 20
89.358749
 30
0.0
 10
29.737209
 20
89.469300
 30
0.0
 10
29.571651
 20
89.574922
 30
0.0
 10
29.414634
 20
89.672241
 30
0.0
 10
29.240684
 20
89.779434
 30
0.0
 10
29.026617
 20
89.913337
 30
0.0
 10
28.780814
 20
90.068602
 30
0.0
 10
28.511664
 20
90.239878
 30
0.0
 10
28.227552
 20
90.421813
 30
0.0
 10
27.936859
 20
90.609062
 30
0.0
 10
27.647977
 20
90.796270
 30
0.0
 10
27.369283
 20
90.978092
 30
0.0
 10
27.096149
 20
91.154569
 30
0.0
 10
26.823191
 20
91.326437
 30
0.0
 10
26.557679
 20
91.489410
 30
0.0
 10
26.306883
 20
91.639206
 30
0.0
 10
26.078074
 20
91.771540
 30
0.0
 10
25.878520
 20
91.882125
 30
0.0
 10
25.715493
 20
91.966681
 30
0.0
 10
25.596262
 20
92.020921
 30
0.0
 10
25.502152
 20
92.059462
 30
0.0
 10
25.411122
 20
92.099044
 30
0.0
 10
25.325405
 20
92.138544
 30
0.0
 10
25.247234
 20
92.176832
 30
0.0
 10
25.178844
 20
92.212780
 30
0.0
 10
25.122468
 20
92.245263
 30
0.0
 10
25.080341
 20
92.273153
 30
0.0
 10
25.054695
 20
92.295325
 30
0.0
 10
25.015632
 20
92.322855
 30
0.0
 10
24.935027
 20
92.366120
 30
0.0
 10
24.817804
 20
92.422913
 30
0.0
 10
24.668886
 20
92.491035
 30
0.0
 10
24.493200
 20
92.568283
 30
0.0
 10
24.295668
 20
92.652457
 30
0.0
 10
24.081216
 20
92.741354
 30
0.0
 10
23.854767
 20
92.832773
 30
0.0
 10
23.619276
 20
92.926973
 30
0.0
 10
23.378904
 20
93.023840
 30
0.0
 10
23.140388
 20
93.120614
 30
0.0
 10
22.910465
 20
93.214543
 30
0.0
 10
22.695874
 20
93.302869
 30
0.0
 10
22.503351
 20
93.382831
 30
0.0
 10
22.339633
 20
93.451673
 30
0.0
 10
22.211458
 20
93.506641
 30
0.0
 10
21.843867
 20
93.658940
 30
0.0
 10
21.417256
 20
93.823199
 30
0.0
 10
20.959369
 20
93.990034
 30
0.0
 10
20.497952
 20
94.150065
 30
0.0
 10
20.060746
 20
94.293906
 30
0.0
 10
19.675498
 20
94.412174
 30
0.0
 10
19.369951
 20
94.495489
 30
0.0
 10
19.171848
 20
94.534467
 30
0.0
 10
19.079452
 20
94.539151
 30
0.0
 10
18.988310
 20
94.533885
 30
0.0
 10
18.896431
 20
94.518010
 30
0.0
 10
18.801829
 20
94.490830
 30
0.0
 10
18.702512
 20
94.451661
 30
0.0
 10
18.596494
 20
94.399821
 30
0.0
 10
18.481784
 20
94.334630
 30
0.0
 10
18.356395
 20
94.255406
 30
0.0
 10
18.209053
 20
94.154682
 30
0.0
 10
18.085493
 20
94.058384
 30
0.0
 10
17.977515
 20
93.955580
 30
0.0
 10
17.876919
 20
93.835343
 30
0.0
 10
17.775506
 20
93.686740
 30
0.0
 10
17.665075
 20
93.498843
 30
0.0
 10
17.537428
 20
93.260716
 30
0.0
 10
17.384363
 20
92.961435
 30
0.0
 10
17.283022
 20
92.763881
 30
0.0
 10
17.184977
 20
92.578466
 30
0.0
 10
17.092621
 20
92.409321
 30
0.0
 10
17.008346
 20
92.260577
 30
0.0
 10
16.934544
 20
92.136364
 30
0.0
 10
16.873607
 20
92.040809
 30
0.0
 10
16.827929
 20
91.978047
 30
0.0
 10
16.799901
 20
91.952198
 30
0.0
 10
16.768534
 20
91.961035
 30
0.0
 10
16.713297
 20
91.997735
 30
0.0
 10
16.637255
 20
92.059478
 30
0.0
 10
16.543468
 20
92.143431
 30
0.0
 10
16.435002
 20
92.246758
 30
0.0
 10
16.314917
 20
92.366628
 30
0.0
 10
16.186276
 20
92.500211
 30
0.0
 10
16.052144
 20
92.644673
 30
0.0
 10
15.897604
 20
92.806564
 30
0.0
 10
15.710440
 20
92.990113
 30
0.0
 10
15.497823
 20
93.188974
 30
0.0
 10
15.266923
 20
93.396801
 30
0.0
 10
15.024913
 20
93.607246
 30
0.0
 10
14.778963
 20
93.813959
 30
0.0
 10
14.536245
 20
94.010600
 30
0.0
 10
14.303930
 20
94.190819
 30
0.0
 10
13.975817
 20
94.436646
 30
0.0
 10
13.705371
 20
94.632705
 30
0.0
 10
13.479045
 20
94.786676
 30
0.0
 10
13.283291
 20
94.906231
 30
0.0
 10
13.104562
 20
94.999052
 30
0.0
 10
12.929310
 20
95.072813
 30
0.0
 10
12.743986
 20
95.135185
 30
0.0
 10
12.535045
 20
95.193854
 30
0.0
 10
12.185217
 20
95.275753
 30
0.0
 10
11.825996
 20
95.337655
 30
0.0
 10
11.445946
 20
95.379920
 30
0.0
 10
11.033630
 20
95.402912
 30
0.0
 10
10.577609
 20
95.406960
 30
0.0
 10
10.066447
 20
95.392434
 30
0.0
 10
9.488704
 20
95.359700
 30
0.0
 10
8.832945
 20
95.309109
 30
0.0
 10
8.134352
 20
95.246604
 30
0.0
 10
7.550666
 20
95.184689
 30
0.0
 10
7.044375
 20
95.115717
 30
0.0
 10
6.577964
 20
95.032048
 30
0.0
 10
6.113922
 20
94.926038
 30
0.0
 10
5.614734
 20
94.790044
 30
0.0
 10
5.042887
 20
94.616427
 30
0.0
 10
4.360868
 20
94.397540
 30
0.0
 10
3.785295
 20
94.206625
 30
0.0
 10
3.275201
 20
94.029510
 30
0.0
 10
2.822018
 20
93.862659
 30
0.0
 10
2.417179
 20
93.702535
 30
0.0
 10
2.052115
 20
93.545603
 30
0.0
 10
1.718260
 20
93.388327
 30
0.0
 10
1.407045
 20
93.227167
 30
0.0
 10
1.109903
 20
93.058590
 30
0.0
 10
0.939375
 20
92.965121
 30
0.0
 10
0.796603
 20
92.903888
 30
0.0
 10
0.680267
 20
92.875257
 30
0.0
 10
0.589048
 20
92.879597
 30
0.0
 10
0.521627
 20
92.917252
 30
0.0
 10
0.476685
 20
92.988592
 30
0.0
 10
0.452903
 20
93.093981
 30
0.0
 10
0.448961
 20
93.233778
 30
0.0
 10
0.449321
 20
93.365274
 30
0.0
 10
0.439530
 20
93.498375
 30
0.0
 10
0.418683
 20
93.636395
 30
0.0
 10
0.384740
 20
93.787430
 30
0.0
 10
0.336040
 20
93.957985
 30
0.0
 10
0.270921
 20
94.154568
 30
0.0
 10
0.187721
 20
94.383679
 30
0.0
 10
0.084780
 20
94.651823
 30
0.0
 10
-0.043398
 20
94.975208
 30
0.0
 10
-0.149704
 20
95.223157
 30
0.0
 10
-0.245744
 20
95.409027
 30
0.0
 10
-0.343125
 20
95.546168
 30
0.0
 10
-0.453455
 20
95.647932
 30
0.0
 10
-0.588340
 20
95.727672
 30
0.0
 10
-0.759388
 20
95.798739
 30
0.0
 10
-0.978205
 20
95.874489
 30
0.0
 10
-1.173632
 20
95.938003
 30
0.0
 10
-1.337188
 20
95.983982
 30
0.0
 10
-1.483660
 20
96.012824
 30
0.0
 10
-1.627837
 20
96.024916
 30
0.0
 10
-1.784505
 20
96.020656
 30
0.0
 10
-1.968452
 20
96.000442
 30
0.0
 10
-2.194467
 20
95.964678
 30
0.0
 10
-2.477337
 20
95.913748
 30
0.0
 10
-2.671118
 20
95.878143
 30
0.0
 10
-2.880827
 20
95.839935
 30
0.0
 10
-3.099811
 20
95.800311
 30
0.0
 10
-3.321417
 20
95.760473
 30
0.0
 10
-3.538992
 20
95.721608
 30
0.0
 10
-3.745885
 20
95.684913
 30
0.0
 10
-3.935442
 20
95.651583
 30
0.0
 10
-4.101010
 20
95.622812
 30
0.0
 10
-4.258697
 20
95.595042
 30
0.0
 10
-4.425631
 20
95.564562
 30
0.0
 10
-4.596737
 20
95.532365
 30
0.0
 10
-4.766936
 20
95.499448
 30
0.0
 10
-4.931150
 20
95.466801
 30
0.0
 10
-5.084303
 20
95.435419
 30
0.0
 10
-5.221315
 20
95.406296
 30
0.0
 10
-5.337109
 20
95.380420
 30
0.0
 10
-5.464011
 20
95.351816
 30
0.0
 10
-5.632836
 20
95.314877
 30
0.0
 10
-5.836282
 20
95.271136
 30
0.0
 10
-6.067052
 20
95.222133
 30
0.0
 10
-6.317844
 20
95.169404
 30
0.0
 10
-6.581360
 20
95.114487
 30
0.0
 10
-6.850300
 20
95.058917
 30
0.0
 10
-7.117364
 20
95.004235
 30
0.0
 10
-7.643663
 20
94.883143
 30
0.0
 10
-8.218889
 20
94.726161
 30
0.0
 10
-8.824884
 20
94.539712
 30
0.0
 10
-9.443492
 20
94.330222
 30
0.0
 10
-10.056555
 20
94.104120
 30
0.0
 10
-10.645917
 20
93.867829
 30
0.0
 10
-11.193421
 20
93.627775
 30
0.0
 10
-11.680910
 20
93.390383
 30
0.0
 10
-11.817011
 20
93.320813
 30
0.0
 10
-11.948999
 20
93.255178
 30
0.0
 10
-12.073624
 20
93.194972
 30
0.0
 10
-12.187639
 20
93.141688
 30
0.0
 10
-12.287792
 20
93.096817
 30
0.0
 10
-12.370836
 20
93.061852
 30
0.0
 10
-12.433519
 20
93.038278
 30
0.0
 10
-12.472594
 20
93.027615
 30
0.0
 10
-12.502015
 20
93.032378
 30
0.0
 10
-12.537062
 20
93.053121
 30
0.0
 10
-12.576420
 20
93.088236
 30
0.0
 10
-12.618778
 20
93.136089
 30
0.0
 10
-12.662823
 20
93.195059
 30
0.0
 10
-12.707242
 20
93.263520
 30
0.0
 10
-12.750723
 20
93.339847
 30
0.0
 10
-12.791954
 20
93.422416
 30
0.0
 10
-12.897541
 20
93.624550
 30
0.0
 10
-13.012788
 20
93.792309
 30
0.0
 10
-13.143527
 20
93.929117
 30
0.0
 10
-13.295590
 20
94.038405
 30
0.0
 10
-13.474808
 20
94.123599
 30
0.0
 10
-13.687016
 20
94.188123
 30
0.0
 10
-13.938043
 20
94.235404
 30
0.0
 10
-14.233723
 20
94.268871
 30
0.0
 10
-14.374791
 20
94.279692
 30
0.0
 10
-14.513269
 20
94.287656
 30
0.0
 10
-14.645637
 20
94.292736
 30
0.0
 10
-14.768374
 20
94.294853
 30
0.0
 10
-14.877958
 20
94.294059
 30
0.0
 10
-14.970870
 20
94.290328
 30
0.0
 10
-15.043586
 20
94.283608
 30
0.0
 10
-15.092587
 20
94.273871
 30
0.0
 10
-15.149768
 20
94.258235
 30
0.0
 10
-15.245940
 20
94.234528
 30
0.0
 10
-15.375937
 20
94.203953
 30
0.0
 10
-15.534592
 20
94.167678
 30
0.0
 10
-15.716738
 20
94.126882
 30
0.0
 10
-15.917210
 20
94.082736
 30
0.0
 10
-16.130839
 20
94.036424
 30
0.0
 10
-16.352459
 20
93.989122
 30
0.0
 10
-17.010631
 20
93.837272
 30
0.0
 10
-17.703338
 20
93.653762
 30
0.0
 10
-18.422972
 20
93.441148
 30
0.0
 10
-19.161928
 20
93.201989
 30
0.0
 10
-19.912597
 20
92.938847
 30
0.0
 10
-20.667374
 20
92.654277
 30
0.0
 10
-21.418651
 20
92.350843
 30
0.0
 10
-22.158822
 20
92.031099
 30
0.0
 10
-22.411146
 20
91.910002
 30
0.0
 10
-22.774152
 20
91.725360
 30
0.0
 10
-23.203849
 20
91.500795
 30
0.0
 10
-23.656243
 20
91.259923
 30
0.0
 10
-24.087340
 20
91.026376
 30
0.0
 10
-24.453148
 20
90.823768
 30
0.0
 10
-24.709674
 20
90.675726
 30
0.0
 10
-24.812924
 20
90.605868
 30
0.0
 10
-24.833022
 20
90.585045
 30
0.0
 10
-24.878483
 20
90.548070
 30
0.0
 10
-24.946406
 20
90.497013
 30
0.0
 10
-25.033889
 20
90.433952
 30
0.0
 10
-25.138033
 20
90.360956
 30
0.0
 10
-25.255934
 20
90.280094
 30
0.0
 10
-25.384693
 20
90.193441
 30
0.0
 10
-25.521406
 20
90.103062
 30
0.0
 10
-25.668717
 20
90.005198
 30
0.0
 10
-25.827852
 20
89.897062
 30
0.0
 10
-25.993772
 20
89.782223
 30
0.0
 10
-26.161436
 20
89.664248
 30
0.0
 10
-26.325803
 20
89.546701
 30
0.0
 10
-26.481833
 20
89.433153
 30
0.0
 10
-26.624489
 20
89.327168
 30
0.0
 10
-26.748724
 20
89.232318
 30
0.0
 10
-26.863667
 20
89.144773
 30
0.0
 10
-26.979718
 20
89.059733
 30
0.0
 10
-27.093714
 20
88.979300
 30
0.0
 10
-27.202479
 20
88.905568
 30
0.0
 10
-27.302841
 20
88.840642
 30
0.0
 10
-27.391630
 20
88.786619
 30
0.0
 10
-27.465673
 20
88.745601
 30
0.0
 10
-27.521802
 20
88.719698
 30
0.0
 10
-27.570999
 20
88.697685
 30
0.0
 10
-27.625217
 20
88.667811
 30
0.0
 10
-27.682669
 20
88.631402
 30
0.0
 10
-27.741565
 20
88.589788
 30
0.0
 10
-27.800122
 20
88.544293
 30
0.0
 10
-27.856553
 20
88.496242
 30
0.0
 10
-27.909070
 20
88.446955
 30
0.0
 10
-27.955885
 20
88.397761
 30
0.0
 10
-28.002254
 20
88.349271
 30
0.0
 10
-28.053503
 20
88.302003
 30
0.0
 10
-28.107952
 20
88.257143
 30
0.0
 10
-28.163914
 20
88.215876
 30
0.0
 10
-28.219712
 20
88.179390
 30
0.0
 10
-28.273663
 20
88.148865
 30
0.0
 10
-28.324085
 20
88.125502
 30
0.0
 10
-28.369297
 20
88.110474
 30
0.0
 10
-28.425653
 20
88.100764
 30
0.0
 10
-28.473016
 20
88.103410
 30
0.0
 10
-28.512661
 20
88.120052
 30
0.0
 10
-28.545880
 20
88.152471
 30
0.0
 10
-28.573947
 20
88.202380
 30
0.0
 10
-28.598156
 20
88.271500
 30
0.0
 10
-28.619773
 20
88.361558
 30
0.0
 10
-28.640093
 20
88.474281
 30
0.0
 10
-28.689070
 20
88.693531
 30
0.0
 10
-28.764650
 20
88.923171
 30
0.0
 10
-28.862067
 20
89.154636
 30
0.0
 10
-28.976550
 20
89.379365
 30
0.0
 10
-29.103333
 20
89.588786
 30
0.0
 10
-29.237649
 20
89.774335
 30
0.0
 10
-29.374729
 20
89.927447
 30
0.0
 10
-29.509807
 20
90.039556
 30
0.0
 10
-29.751737
 20
90.177045
 30
0.0
 10
-30.021001
 20
90.285717
 30
0.0
 10
-30.312151
 20
90.364973
 30
0.0
 10
-30.619737
 20
90.414209
 30
0.0
 10
-30.938316
 20
90.432836
 30
0.0
 10
-31.262439
 20
90.420242
 30
0.0
 10
-31.586659
 20
90.375823
 30
0.0
 10
-31.905527
 20
90.298988
 30
0.0
 10
-32.603233
 20
90.052791
 30
0.0
 10
-33.328964
 20
89.726779
 30
0.0
 10
-34.053684
 20
89.340138
 30
0.0
 10
-34.748353
 20
88.912053
 30
0.0
 10
-35.383938
 20
88.461706
 30
0.0
 10
-35.931401
 20
88.008281
 30
0.0
 10
-36.361703
 20
87.570965
 30
0.0
 10
-36.645807
 20
87.168941
 30
0.0
 10
-36.729588
 20
87.028090
 30
0.0
 10
-36.806211
 20
86.931795
 30
0.0
 10
-36.874442
 20
86.879733
 30
0.0
 10
-36.933036
 20
86.871584
 30
0.0
 10
-36.980762
 20
86.907035
 30
0.0
 10
-37.016372
 20
86.985765
 30
0.0
 10
-37.038624
 20
87.107452
 30
0.0
 10
-37.046297
 20
87.271779
 30
0.0
 10
-37.055372
 20
87.453387
 30
0.0
 10
-37.082875
 20
87.634277
 30
0.0
 10
-37.129061
 20
87.811125
 30
0.0
 10
-37.194188
 20
87.980598
 30
0.0
 10
-37.278519
 20
88.139372
 30
0.0
 10
-37.382315
 20
88.284115
 30
0.0
 10
-37.505838
 20
88.411504
 30
0.0
 10
-37.649348
 20
88.518205
 30
0.0
 10
-37.880980
 20
88.633076
 30
0.0
 10
-38.127456
 20
88.705757
 30
0.0
 10
-38.378505
 20
88.739106
 30
0.0
 10
-38.623854
 20
88.735983
 30
0.0
 10
-38.853229
 20
88.699241
 30
0.0
 10
-39.056357
 20
88.631740
 30
0.0
 10
-39.222968
 20
88.536339
 30
0.0
 10
-39.342787
 20
88.415896
 30
0.0
 10
-39.499074
 20
88.201004
 30
0.0
 10
-39.679808
 20
87.973171
 30
0.0
 10
-39.884273
 20
87.745201
 30
0.0
 10
-40.111741
 20
87.529907
 30
0.0
 10
-40.361494
 20
87.340095
 30
0.0
 10
-40.632811
 20
87.188571
 30
0.0
 10
-40.924967
 20
87.088145
 30
0.0
 10
-41.237244
 20
87.051625
 30
0.0
 10
-41.640278
 20
87.092278
 30
0.0
 10
-42.015666
 20
87.208822
 30
0.0
 10
-42.355365
 20
87.393215
 30
0.0
 10
-42.651336
 20
87.637415
 30
0.0
 10
-42.895538
 20
87.933386
 30
0.0
 10
-43.079932
 20
88.273084
 30
0.0
 10
-43.196473
 20
88.648470
 30
0.0
 10
-43.237123
 20
89.051504
 30
0.0
 10
-43.236859
 20
89.354651
 30
0.0
 10
-43.239637
 20
89.604722
 30
0.0
 10
-43.250961
 20
89.814396
 30
0.0
 10
-43.276308
 20
89.996361
 30
0.0
 10
-43.321160
 20
90.163294
 30
0.0
 10
-43.390981
 20
90.327881
 30
0.0
 10
-43.491242
 20
90.502800
 30
0.0
 10
-43.627418
 20
90.700732
 30
0.0
 10
-43.943026
 20
91.125764
 30
0.0
 10
-44.273147
 20
91.556902
 30
0.0
 10
-44.615433
 20
91.990843
 30
0.0
 10
-44.967533
 20
92.424280
 30
0.0
 10
-45.327099
 20
92.853908
 30
0.0
 10
-45.691779
 20
93.276419
 30
0.0
 10
-46.059230
 20
93.688507
 30
0.0
 10
-46.427101
 20
94.086869
 30
0.0
 10
-46.695606
 20
94.366970
 30
0.0
 10
-47.083755
 20
94.765271
 30
0.0
 10
-47.548900
 20
95.238714
 30
0.0
 10
-48.048399
 20
95.744246
 30
0.0
 10
-48.539603
 20
96.238815
 30
0.0
 10
-48.979867
 20
96.679365
 30
0.0
 10
-49.326543
 20
97.022847
 30
0.0
 10
-49.536987
 20
97.226203
 30
0.0
 10
-50.140600
 20
97.772719
 30
0.0
 10
-50.817264
 20
98.361687
 30
0.0
 10
-51.535798
 20
98.967892
 30
0.0
 10
-52.265027
 20
99.566115
 30
0.0
 10
-52.973769
 20
100.131135
 30
0.0
 10
-53.630848
 20
100.637736
 30
0.0
 10
-54.205081
 20
101.060693
 30
0.0
 10
-54.665295
 20
101.374791
 30
0.0
 10
-54.810459
 20
101.469001
 30
0.0
 10
-54.965780
 20
101.572223
 30
0.0
 10
-55.126445
 20
101.681104
 30
0.0
 10
-55.287643
 20
101.792282
 30
0.0
 10
-55.444554
 20
101.902404
 30
0.0
 10
-55.592369
 20
102.008105
 30
0.0
 10
-55.726274
 20
102.106035
 30
0.0
 10
-55.841453
 20
102.192829
 30
0.0
 10
-56.129967
 20
102.411844
 30
0.0
 10
-56.473685
 20
102.668114
 30
0.0
 10
-56.860482
 20
102.952853
 30
0.0
 10
-57.278241
 20
103.257277
 30
0.0
 10
-57.714835
 20
103.572597
 30
0.0
 10
-58.158150
 20
103.890026
 30
0.0
 10
-58.596064
 20
104.200773
 30
0.0
 10
-59.016453
 20
104.496054
 30
0.0
 10
-59.205997
 20
104.628737
 30
0.0
 10
-59.401173
 20
104.765976
 30
0.0
 10
-59.596398
 20
104.903806
 30
0.0
 10
-59.786102
 20
105.038254
 30
0.0
 10
-59.964701
 20
105.165357
 30
0.0
 10
-60.126623
 20
105.281149
 30
0.0
 10
-60.266291
 20
105.381659
 30
0.0
 10
-60.378125
 20
105.462921
 30
0.0
 10
-60.478024
 20
105.534403
 30
0.0
 10
-60.583487
 20
105.606875
 30
0.0
 10
-60.691321
 20
105.678336
 30
0.0
 10
-60.798331
 20
105.746779
 30
0.0
 10
-60.901328
 20
105.810194
 30
0.0
 10
-60.997118
 20
105.866580
 30
0.0
 10
-61.082510
 20
105.913927
 30
0.0
 10
-61.154307
 20
105.950230
 30
0.0
 10
-61.226001
 20
105.986642
 30
0.0
 10
-61.311104
 20
106.034288
 30
0.0
 10
-61.406455
 20
106.091155
 30
0.0
 10
-61.508894
 20
106.155227
 30
0.0
 10
-61.615262
 20
106.224484
 30
0.0
 10
-61.722402
 20
106.296914
 30
0.0
 10
-61.827150
 20
106.370500
 30
0.0
 10
-61.926351
 20
106.443228
 30
0.0
 10
-62.107622
 20
106.573110
 30
0.0
 10
-62.342191
 20
106.730796
 30
0.0
 10
-62.627057
 20
106.914438
 30
0.0
 10
-62.959221
 20
107.122192
 30
0.0
 10
-63.335680
 20
107.352207
 30
0.0
 10
-63.753441
 20
107.602633
 30
0.0
 10
-64.209501
 20
107.871624
 30
0.0
 10
-64.700861
 20
108.157331
 30
0.0
 10
-65.819615
 20
108.767593
 30
0.0
 10
-66.937667
 20
109.307970
 30
0.0
 10
-68.041787
 20
109.774597
 30
0.0
 10
-69.118752
 20
110.163611
 30
0.0
 10
-70.155334
 20
110.471144
 30
0.0
 10
-71.138312
 20
110.693331
 30
0.0
 10
-72.054455
 20
110.826308
 30
0.0
 10
-72.890541
 20
110.866204
 30
0.0
 10
-72.890734
 20
110.866286
 30
0.0
 10
-72.890927
 20
110.866366
 30
0.0
 10
-72.891121
 20
110.866448
 30
0.0
 10
-72.891314
 20
110.866527
 30
0.0
 10
-72.891504
 20
110.866609
 30
0.0
 10
-72.891697
 20
110.866691
 30
0.0
 10
-72.891891
 20
110.866771
 30
0.0
  0
LWPOLYLINE
  5
101
100
AcDbEntity
  8
Calque_1
 62
7
100
AcDbPolyline
 90
32
 70
1
 10
-47.155518
 20
49.058741
 30
0.0
 10
-43.418019
 20
49.058741
 30
0.0
 10
-39.680518
 20
49.058741
 30
0.0
 10
-35.943019
 20
49.058741
 30
0.0
 10
-32.205520
 20
49.058741
 30
0.0
 10
-28.468018
 20
49.058741
 30
0.0
 10
-24.730519
 20
49.058741
 30
0.0
 10
-20.993019
 20
49.058741
 30
0.0
 10
-17.255519
 20
49.058741
 30
0.0
 10
-17.255519
 20
48.683766
 30
0.0
 10
-17.255519
 20
48.308793
 30
0.0
 10
-17.255519
 20
47.933818
 30
0.0
 10
-17.255519
 20
47.558845
 30
0.0
 10
-17.255519
 20
47.183869
 30
0.0
 10
-17.255519
 20
46.808897
 30
0.0
 10
-17.255519
 20
46.433921
 30
0.0
 10
-17.255519
 20
46.058948
 30
0.0
 10
-20.993019
 20
46.058948
 30
0.0
 10
-24.730519
 20
46.058948
 30
0.0
 10
-28.468018
 20
46.058948
 30
0.0
 10
-32.205520
 20
46.058948
 30
0.0
 10
-35.943019
 20
46.058948
 30
0.0
 10
-39.680518
 20
46.058948
 30
0.0
 10
-43.418019
 20
46.058948
 30
0.0
 10
-47.155518
 20
46.058948
 30
0.0
 10
-47.155518
 20
46.433921
 30
0.0
 10
-47.155518
 20
46.808897
 30
0.0
 10
-47.155518
 20
47.183869
 30
0.0
 10
-47.155518
 20
47.558845
 30
0.0
 10
-47.155518
 20
47.933818
 30
0.0
 10
-47.155518
 20
48.308793
 30
0.0
 10
-47.155518
 20
48.683766
 30
0.0
  0
LWPOLYLINE
  5
102
100
AcDbEntity
  8
Calque_1
 62
7
100
AcDbPolyline
 90
32
 70
1
 10
17.154482
 20
49.058741
 30
0.0
 10
20.891982
 20
49.058741
 30
0.0
 10
24.629482
 20
49.058741
 30
0.0
 10
28.366982
 20
49.058741
 30
0.0
 10
32.104481
 20
49.058741
 30
0.0
 10
35.841982
 20
49.058741
 30
0.0
 10
39.579481
 20
49.058741
 30
0.0
 10
43.316983
 20
49.058741
 30
0.0
 10
47.054482
 20
49.058741
 30
0.0
 10
47.054482
 20
48.683766
 30
0.0
 10
47.054482
 20
48.308793
 30
0.0
 10
47.054482
 20
47.933818
 30
0.0
 10
47.054482
 20
47.558845
 30
0.0
 10
47.054482
 20
47.183869
 30
0.0
 10
47.054482
 20
46.808897
 30
0.0
 10
47.054482
 20
46.433921
 30
0.0
 10
47.054482
 20
46.058948
 30
0.0
 10
43.316983
 20
46.058948
 30
0.0
 10
39.579481
 20
46.058948
 30
0.0
 10
35.841982
 20
46.058948
 30
0.0
 10
32.104481
 20
46.058948
 30
0.0
 10
28.366982
 20
46.058948
 30
0.0
 10
24.629482
 20
46.058948
 30
0.0
 10
20.891982
 20
46.058948
 30
0.0
 10
17.154482
 20
46.058948
 30
0.0
 10
17.154482
 20
46.433921
 30
0.0
 10
17.154482
 20
46.808897
 30
0.0
 10
17.154482
 20
47.183869
 30
0.0
 10
17.154482
 20
47.558845
 30
0.0
 10
17.154482
 20
47.933818
 30
0.0
 10
17.154482
 20
48.308793
 30
0.0
 10
17.154482
 20
48.683766
 30
0.0
  0
LWPOLYLINE
  5
103
100
AcDbEntity
  8
Calque_1
 62
7
100
AcDbPolyline
 90
32
 70
1
 10
-32.550367
 20
37.983971
 30
0.0
 10
-31.542712
 20
37.882331
 30
0.0
 10
-30.604187
 20
37.590940
 30
0.0
 10
-29.754901
 20
37.129904
 30
0.0
 10
-29.014957
 20
36.519328
 30
0.0
 10
-28.404458
 20
35.779317
 30
0.0
 10
-27.943506
 20
34.929983
 30
0.0
 10
-27.652210
 20
33.991432
 30
0.0
 10
-27.550674
 20
32.983769
 30
0.0
 10
-27.652300
 20
31.976188
 30
0.0
 10
-27.943657
 20
31.037711
 30
0.0
 10
-28.404635
 20
30.188452
 30
0.0
 10
-29.015140
 20
29.448544
 30
0.0
 10
-29.755065
 20
28.838045
 30
0.0
 10
-30.604314
 20
28.377061
 30
0.0
 10
-31.542781
 20
28.085702
 30
0.0
 10
-32.550367
 20
27.984076
 30
0.0
 10
-33.558033
 20
28.085623
 30
0.0
 10
-34.496587
 20
28.376903
 30
0.0
 10
-35.345920
 20
28.837860
 30
0.0
 10
-36.085931
 20
29.448359
 30
0.0
 10
-36.696507
 20
30.188293
 30
0.0
 10
-37.157546
 20
31.037579
 30
0.0
 10
-37.448937
 20
31.976109
 30
0.0
 10
-37.550579
 20
32.983769
 30
0.0
 10
-37.449027
 20
33.991506
 30
0.0
 10
-37.157694
 20
34.930116
 30
0.0
 10
-36.696684
 20
35.779489
 30
0.0
 10
-36.086113
 20
36.519515
 30
0.0
 10
-35.346084
 20
37.130086
 30
0.0
 10
-34.496711
 20
37.591094
 30
0.0
 10
-33.558102
 20
37.882424
 30
0.0
  0
LWPOLYLINE
  5
104
100
AcDbEntity
  8
Calque_1
 62
7
100
AcDbPolyline
 90
32
 70
1
 10
32.449283
 20
37.983971
 30
0.0
 10
33.457018
 20
37.882424
 30
0.0
 10
34.395627
 20
37.591094
 30
0.0
 10
35.245000
 20
37.130086
 30
0.0
 10
35.985029
 20
36.519515
 30
0.0
 10
36.595600
 20
35.779489
 30
0.0
 10
37.056610
 20
34.930116
 30
0.0
 10
37.347943
 20
33.991506
 30
0.0
 10
37.449495
 20
32.983769
 30
0.0
 10
37.347853
 20
31.976109
 30
0.0
 10
37.056462
 20
31.037579
 30
0.0
 10
36.595423
 20
30.188293
 30
0.0
 10
35.984847
 20
29.448359
 30
0.0
 10
35.244836
 20
28.837860
 30
0.0
 10
34.395503
 20
28.376903
 30
0.0
 10
33.456949
 20
28.085623
 30
0.0
 10
32.449283
 20
27.984076
 30
0.0
 10
31.441697
 20
28.085702
 30
0.0
 10
30.503228
 20
28.377061
 30
0.0
 10
29.653981
 20
28.838045
 30
0.0
 10
28.914053
 20
29.448544
 30
0.0
 10
28.303548
 20
30.188452
 30
0.0
 10
27.842570
 20
31.037711
 30
0.0
 10
27.551213
 20
31.976188
 30
0.0
 10
27.449587
 20
32.983769
 30
0.0
 10
27.551123
 20
33.991432
 30
0.0
 10
27.842419
 20
34.929983
 30
0.0
 10
28.303371
 20
35.779317
 30
0.0
 10
28.913870
 20
36.519328
 30
0.0
 10
29.653817
 20
37.129904
 30
0.0
 10
30.503103
 20
37.590940
 30
0.0
 10
31.441628
 20
37.882331
 30
0.0
  0
LWPOLYLINE
  5
105
100
AcDbEntity
  8
Calque_1
 62
7
100
AcDbPolyline
 90
32
 70
1
 10
-10.000518
 20
3.058976
 30
0.0
 10
-7.513018
 20
3.058976
 30
0.0
 10
-5.025518
 20
3.058976
 30
0.0
 10
-2.538017
 20
3.058976
 30
0.0
 10
-0.050517
 20
3.058976
 30
0.0
 10
2.436983
 20
3.058976
 30
0.0
 10
4.924483
 20
3.058976
 30
0.0
 10
7.411983
 20
3.058976
 30
0.0
 10
9.899483
 20
3.058976
 30
0.0
 10
9.899483
 20
2.684009
 30
0.0
 10
9.899483
 20
2.309015
 30
0.0
 10
9.899483
 20
1.934047
 30
0.0
 10
9.899483
 20
1.559053
 30
0.0
 10
9.899483
 20
1.184086
 30
0.0
 10
9.899483
 20
0.809118
 30
0.0
 10
9.899483
 20
0.434124
 30
0.0
 10
9.899483
 20
0.059157
 30
0.0
 10
7.411983
 20
0.059157
 30
0.0
 10
4.924483
 20
0.059157
 30
0.0
 10
2.436983
 20
0.059157
 30
0.0
 10
-0.050517
 20
0.059157
 30
0.0
 10
-2.538017
 20
0.059157
 30
0.0
 10
-5.025518
 20
0.059157
 30
0.0
 10
-7.513018
 20
0.059157
 30
0.0
 10
-10.000518
 20
0.059157
 30
0.0
 10
-10.000518
 20
0.434124
 30
0.0
 10
-10.000518
 20
0.809118
 30
0.0
 10
-10.000518
 20
1.184086
 30
0.0
 10
-10.000518
 20
1.559053
 30
0.0
 10
-10.000518
 20
1.934047
 30
0.0
 10
-10.000518
 20
2.309015
 30
0.0
 10
-10.000518
 20
2.684009
 30
0.0
  0
ENDSEC
  0
SECTION
  2
OBJECTS
  0
DICTIONARY
  5
C
330
0
100
AcDbDictionary
  3
ACAD_GROUP
350
D
  3
ACAD_MLINESTYLE
350
17
  0
DICTIONARY
  5
D
330
C
100
AcDbDictionary
  0
DICTIONARY
  5
1A
330
C
100
AcDbDictionary
  0
DICTIONARY
  5
17
330
C
100
AcDbDictionary
  3
STANDARD
350
18
  0
DICTIONARY
  5
19
330
C
100
AcDbDictionary
  0
ENDSEC
  0
EOF
