  0
SECTION
  2
HEADER
  9
$ACADVER
  1
AC1014
  9
$HANDSEED
  5
FFFF
  9
$MEASUREMENT
 70
     1
  0
ENDSEC
  0
SECTION
  2
TABLES
  0
TABLE
  2
VPORT
  5
8
330
0
100
AcDbSymbolTable
 70
     4
  0
VPORT
  5
2E
330
8
100
AcDbSymbolTableRecord
100
AcDbViewportTableRecord
  2
*ACTIVE
 70
     0
 10
0.0
 20
0.0
 11
1.0
 21
1.0
 12
210.0
 22
148.5
 13
0.0
 23
0.0
 14
10.0
 24
10.0
 15
10.0
 25
10.0
 16
0.0
 26
0.0
 36
1.0
 17
0.0
 27
0.0
 37
0.0
 40
341.0
 41
1.24
 42
50.0
 43
0.0
 44
0.0
 50
0.0
 51
0.0
 71
     0
 72
   100
 73
     1
 74
     3
 75
     0
 76
     0
 77
     0
 78
     0
  0
ENDTAB
  0
TABLE
  2
LTYPE
  5
5
330
0
100
AcDbSymbolTable
 70
     1
  0
LTYPE
  5
14
330
5
100
AcDbSymbolTableRecord
100
AcDbLinetypeTableRecord
  2
BYBLOCK
 70
     0
  3

 72
    65
 73
     0
 40
0.0
  0
LTYPE
  5
15
330
5
100
AcDbSymbolTableRecord
100
AcDbLinetypeTableRecord
  2
BYLAYER
 70
     0
  3

 72
    65
 73
     0
 40
0.0
  0
LTYPE
  5
16
330
5
100
AcDbSymbolTableRecord
100
AcDbLinetypeTableRecord
  2
CONTINUOUS
 70
     0
  3
Solid line
 72
    65
 73
     0
 40
0.0
  0
ENDTAB
  0
TABLE
  2
LAYER
  5
2
100
AcDbSymbolTable
 70
2
  0
LAYER
  5
50
100
AcDbSymbolTableRecord
100
AcDbLayerTableRecord
  2
0
 70
0
  6
CONTINUOUS
  0
LAYER
  5
51
100
AcDbSymbolTableRecord
100
AcDbLayerTableRecord
  2
Calque_1
 70
0
  6
CONTINUOUS
  0
ENDTAB
  0
TABLE
  2
STYLE
  5
3
330
0
100
AcDbSymbolTable
 70
     1
  0
STYLE
  5
11
330
3
100
AcDbSymbolTableRecord
100
AcDbTextStyleTableRecord
  2
STANDARD
 70
     0
 40
0.0
 41
1.0
 50
0.0
 71
     0
 42
2.5
  3
txt
  4

  0
ENDTAB
  0
TABLE
  2
VIEW
  5
6
330
0
100
AcDbSymbolTable
 70
     0
  0
ENDTAB
  0
TABLE
  2
UCS
  5
7
330
0
100
AcDbSymbolTable
 70
     0
  0
ENDTAB
  0
TABLE
  2
APPID
  5
9
330
0
100
AcDbSymbolTable
 70
     2
  0
APPID
  5
12
330
9
100
AcDbSymbolTableRecord
100
AcDbRegAppTableRecord
  2
ACAD
 70
     0
  0
ENDTAB
  0
TABLE
  2
DIMSTYLE
  5
A
330
0
100
AcDbSymbolTable
 70
     1
  0
DIMSTYLE
105
27
330
A
100
AcDbSymbolTableRecord
100
AcDbDimStyleTableRecord
  2
ISO-25
 70
     0
  3

  4

  5

  6

  7

 40
1.0
 41
2.5
 42
0.625
 43
3.75
 44
1.25
 45
0.0
 46
0.0
 47
0.0
 48
0.0
140
2.5
141
2.5
142
0.0
143
0.03937007874016
144
1.0
145
0.0
146
1.0
147
0.625
 71
     0
 72
     0
 73
     0
 74
     0
 75
     0
 76
     0
 77
     1
 78
     8
170
     0
171
     3
172
     1
173
     0
174
     0
175
     0
176
     0
177
     0
178
     0
270
     2
271
     2
272
     2
273
     2
274
     3
340
11
275
     0
280
     0
281
     0
282
     0
283
     0
284
     8
285
     0
286
     0
287
     3
288
     0
  0
ENDTAB
  0
TABLE
  2
BLOCK_RECORD
  5
1
330
0
100
AcDbSymbolTable
 70
     1
  0
BLOCK_RECORD
  5
1F
330
1
100
AcDbSymbolTableRecord
100
AcDbBlockTableRecord
  2
*MODEL_SPACE
  0
BLOCK_RECORD
  5
1B
330
1
100
AcDbSymbolTableRecord
100
AcDbBlockTableRecord
  2
*PAPER_SPACE
  0
ENDTAB
  0
ENDSEC
  0
SECTION
  2
BLOCKS
  0
BLOCK
  5
20
330
1F
100
AcDbEntity
  8
0
100
AcDbBlockBegin
  2
*MODEL_SPACE
 70
     0
 10
0.0
 20
0.0
 30
0.0
  3
*MODEL_SPACE
  1

  0
ENDBLK
  5
21
330
1F
100
AcDbEntity
  8
0
100
AcDbBlockEnd
  0
BLOCK
  5
1C
330
1B
100
AcDbEntity
 67
     1
  8
0
100
AcDbBlockBegin
  2
*PAPER_SPACE
  1

  0
ENDBLK
  5
1D
330
1B
100
AcDbEntity
 67
     1
  8
0
100
AcDbBlockEnd
  0
ENDSEC
  0
SECTION
  2
ENTITIES
  0
LWPOLYLINE
  5
100
100
AcDbEntity
  8
Calque_1
 62
7
100
AcDbPolyline
 90
2224
 70
1
 10
-72.842308
 20
110.866861
 30
0.0
 10
-72.954428
 20
110.864744
 30
0.0
 10
-73.064587
 20
110.860564
 30
0.0
 10
-73.172754
 20
110.854346
 30
0.0
 10
-73.278894
 20
110.846117
 30
0.0
 10
-73.382981
 20
110.835851
 30
0.0
 10
-73.484975
 20
110.823575
 30
0.0
 10
-73.584848
 20
110.809287
 30
0.0
 10
-73.682566
 20
110.792962
 30
0.0
 10
-74.164264
 20
110.692910
 30
0.0
 10
-74.599445
 20
110.571406
 30
0.0
 10
-74.997617
 20
110.423218
 30
0.0
 10
-75.368288
 20
110.243119
 30
0.0
 10
-75.720964
 20
110.025877
 30
0.0
 10
-76.065152
 20
109.766265
 30
0.0
 10
-76.410362
 20
109.459052
 30
0.0
 10
-76.766100
 20
109.099010
 30
0.0
 10
-77.014030
 20
108.817300
 30
0.0
 10
-77.248623
 20
108.514612
 30
0.0
 10
-77.470706
 20
108.189484
 30
0.0
 10
-77.681106
 20
107.840459
 30
0.0
 10
-77.880641
 20
107.466073
 30
0.0
 10
-78.070141
 20
107.064875
 30
0.0
 10
-78.250428
 20
106.635401
 30
0.0
 10
-78.422328
 20
106.176190
 30
0.0
 10
-78.487024
 20
105.993865
 30
0.0
 10
-78.562869
 20
105.780833
 30
0.0
 10
-78.647099
 20
105.544817
 30
0.0
 10
-78.736949
 20
105.293550
 30
0.0
 10
-78.829651
 20
105.034759
 30
0.0
 10
-78.922441
 20
104.776171
 30
0.0
 10
-79.012553
 20
104.525512
 30
0.0
 10
-79.097222
 20
104.290518
 30
0.0
 10
-79.179716
 20
104.056790
 30
0.0
 10
-79.263550
 20
103.809767
 30
0.0
 10
-79.346388
 20
103.556931
 30
0.0
 10
-79.425903
 20
103.305762
 30
0.0
 10
-79.499764
 20
103.063740
 30
0.0
 10
-79.565640
 20
102.838347
 30
0.0
 10
-79.621200
 20
102.637065
 30
0.0
 10
-79.664113
 20
102.467374
 30
0.0
 10
-79.781900
 20
101.961806
 30
0.0
 10
-79.896359
 20
101.456065
 30
0.0
 10
-80.004867
 20
100.962692
 30
0.0
 10
-80.104803
 20
100.494228
 30
0.0
 10
-80.193547
 20
100.063217
 30
0.0
 10
-80.268474
 20
99.682196
 30
0.0
 10
-80.326963
 20
99.363706
 30
0.0
 10
-80.366396
 20
99.120292
 30
0.0
 10
-80.384970
 20
99.005553
 30
0.0
 10
-80.408756
 20
98.882696
 30
0.0
 10
-80.436778
 20
98.755535
 30
0.0
 10
-80.468039
 20
98.627879
 30
0.0
 10
-80.501546
 20
98.503540
 30
0.0
 10
-80.536309
 20
98.386335
 30
0.0
 10
-80.571340
 20
98.280073
 30
0.0
 10
-80.605646
 20
98.188564
 30
0.0
 10
-80.637592
 20
98.101223
 30
0.0
 10
-80.665884
 20
98.006904
 30
0.0
 10
-80.689987
 20
97.908601
 30
0.0
 10
-80.709408
 20
97.809305
 30
0.0
 10
-80.723616
 20
97.712007
 30
0.0
 10
-80.732082
 20
97.619694
 30
0.0
 10
-80.734199
 20
97.535361
 30
0.0
 10
-80.729622
 20
97.461995
 30
0.0
 10
-80.724145
 20
97.387700
 30
0.0
 10
-80.723880
 20
97.300707
 30
0.0
 10
-80.728272
 20
97.204185
 30
0.0
 10
-80.737109
 20
97.101299
 30
0.0
 10
-80.750048
 20
96.995214
 30
0.0
 10
-80.766796
 20
96.889098
 30
0.0
 10
-80.787010
 20
96.786114
 30
0.0
 10
-80.810373
 20
96.689433
 30
0.0
 10
-80.837196
 20
96.578538
 30
0.0
 10
-80.867478
 20
96.434821
 30
0.0
 10
-80.900175
 20
96.264313
 30
0.0
 10
-80.934250
 20
96.073038
 30
0.0
 10
-80.968667
 20
95.867023
 30
0.0
 10
-81.002389
 20
95.652290
 30
0.0
 10
-81.034374
 20
95.434868
 30
0.0
 10
-81.063587
 20
95.220786
 30
0.0
 10
-81.092397
 20
95.007312
 30
0.0
 10
-81.123285
 20
94.791627
 30
0.0
 10
-81.155286
 20
94.579624
 30
0.0
 10
-81.187436
 20
94.377196
 30
0.0
 10
-81.218767
 20
94.190234
 30
0.0
 10
-81.248313
 20
94.024634
 30
0.0
 10
-81.275113
 20
93.886286
 30
0.0
 10
-81.298185
 20
93.781082
 30
0.0
 10
-81.319219
 20
93.685356
 30
0.0
 10
-81.340042
 20
93.574168
 30
0.0
 10
-81.360097
 20
93.451520
 30
0.0
 10
-81.378883
 20
93.321419
 30
0.0
 10
-81.395843
 20
93.187860
 30
0.0
 10
-81.410448
 20
93.054846
 30
0.0
 10
-81.422169
 20
92.926380
 30
0.0
 10
-81.430476
 20
92.806463
 30
0.0
 10
-81.440875
 20
92.673748
 30
0.0
 10
-81.458655
 20
92.508614
 30
0.0
 10
-81.482864
 20
92.317632
 30
0.0
 10
-81.512516
 20
92.107373
 30
0.0
 10
-81.546642
 20
91.884411
 30
0.0
 10
-81.584266
 20
91.655317
 30
0.0
 10
-81.624411
 20
91.426658
 30
0.0
 10
-81.666106
 20
91.205012
 30
0.0
 10
-81.707000
 20
90.985638
 30
0.0
 10
-81.744693
 20
90.763491
 30
0.0
 10
-81.778393
 20
90.544694
 30
0.0
 10
-81.807309
 20
90.335369
 30
0.0
 10
-81.830646
 20
90.141633
 30
0.0
 10
-81.847632
 20
89.969609
 30
0.0
 10
-81.857474
 20
89.825419
 30
0.0
 10
-81.859326
 20
89.715180
 30
0.0
 10
-81.860120
 20
89.620853
 30
0.0
 10
-81.866364
 20
89.522259
 30
0.0
 10
-81.877609
 20
89.422310
 30
0.0
 10
-81.893299
 20
89.323911
 30
0.0
 10
-81.912905
 20
89.229982
 30
0.0
 10
-81.935844
 20
89.143431
 30
0.0
 10
-81.961614
 20
89.067170
 30
0.0
 10
-81.989639
 20
89.004112
 30
0.0
 10
-82.017934
 20
88.941919
 30
0.0
 10
-82.044527
 20
88.868146
 30
0.0
 10
-82.068816
 20
88.785521
 30
0.0
 10
-82.090247
 20
88.696785
 30
0.0
 10
-82.108212
 20
88.604673
 30
0.0
 10
-82.122103
 20
88.511918
 30
0.0
 10
-82.131363
 20
88.421256
 30
0.0
 10
-82.135385
 20
88.335420
 30
0.0
 10
-82.143560
 20
88.103161
 30
0.0
 10
-82.161129
 20
87.841181
 30
0.0
 10
-82.186634
 20
87.561202
 30
0.0
 10
-82.218646
 20
87.274938
 30
0.0
 10
-82.255722
 20
86.994112
 30
0.0
 10
-82.296423
 20
86.730439
 30
0.0
 10
-82.339307
 20
86.495643
 30
0.0
 10
-82.382932
 20
86.301436
 30
0.0
 10
-82.405659
 20
86.204823
 30
0.0
 10
-82.432385
 20
86.078117
 30
0.0
 10
-82.462127
 20
85.926704
 30
0.0
 10
-82.493900
 20
85.755981
 30
0.0
 10
-82.526725
 20
85.571339
 30
0.0
 10
-82.559618
 20
85.378170
 30
0.0
 10
-82.591595
 20
85.181865
 30
0.0
 10
-82.621676
 20
84.987819
 30
0.0
 10
-82.651076
 20
84.791768
 30
0.0
 10
-82.681458
 20
84.589738
 30
0.0
 10
-82.711933
 20
84.387514
 30
0.0
 10
-82.741611
 20
84.190884
 30
0.0
 10
-82.769604
 20
84.005630
 30
0.0
 10
-82.795031
 20
83.837546
 30
0.0
 10
-82.816991
 20
83.692414
 30
0.0
 10
-82.834586
 20
83.576021
 30
0.0
 10
-82.850540
 20
83.467629
 30
0.0
 10
-82.868161
 20
83.345479
 30
0.0
 10
-82.886841
 20
83.213740
 30
0.0
 10
-82.905970
 20
83.076596
 30
0.0
 10
-82.924915
 20
82.938222
 30
0.0
 10
-82.943091
 20
82.802792
 30
0.0
 10
-82.959866
 20
82.674485
 30
0.0
 10
-82.974630
 20
82.557478
 30
0.0
 10
-82.997754
 20
82.373405
 30
0.0
 10
-83.019000
 20
82.209371
 30
0.0
 10
-83.040934
 20
82.047724
 30
0.0
 10
-83.066149
 20
81.870808
 30
0.0
 10
-83.097240
 20
81.660967
 30
0.0
 10
-83.136790
 20
81.400543
 30
0.0
 10
-83.187379
 20
81.071885
 30
0.0
 10
-83.251598
 20
80.657336
 30
0.0
 10
-83.274723
 20
80.501769
 30
0.0
 10
-83.300864
 20
80.312608
 30
0.0
 10
-83.329148
 20
80.097137
 30
0.0
 10
-83.358667
 20
79.862644
 30
0.0
 10
-83.388533
 20
79.616415
 30
0.0
 10
-83.417847
 20
79.365738
 30
0.0
 10
-83.445710
 20
79.117898
 30
0.0
 10
-83.471242
 20
78.880183
 30
0.0
 10
-83.497648
 20
78.642701
 30
0.0
 10
-83.527937
 20
78.395519
 30
0.0
 10
-83.561028
 20
78.145874
 30
0.0
 10
-83.595834
 20
77.900997
 30
0.0
 10
-83.631281
 20
77.668127
 30
0.0
 10
-83.666288
 20
77.454494
 30
0.0
 10
-83.699768
 20
77.267333
 30
0.0
 10
-83.730650
 20
77.113883
 30
0.0
 10
-83.758585
 20
76.979326
 30
0.0
 10
-83.783297
 20
76.846312
 30
0.0
 10
-83.804331
 20
76.718299
 30
0.0
 10
-83.821265
 20
76.598742
 30
0.0
 10
-83.833647
 20
76.491091
 30
0.0
 10
-83.841056
 20
76.398804
 30
0.0
 10
-83.842908
 20
76.325337
 30
0.0
 10
-83.839018
 20
76.274140
 30
0.0
 10
-83.833621
 20
76.227150
 30
0.0
 10
-83.831239
 20
76.165762
 30
0.0
 10
-83.831769
 20
76.092573
 30
0.0
 10
-83.835076
 20
76.010181
 30
0.0
 10
-83.841003
 20
75.921189
 30
0.0
 10
-83.849416
 20
75.828193
 30
0.0
 10
-83.860132
 20
75.733792
 30
0.0
 10
-83.873044
 20
75.640588
 30
0.0
 10
-83.886776
 20
75.542869
 30
0.0
 10
-83.900031
 20
75.435549
 30
0.0
 10
-83.912493
 20
75.322124
 30
0.0
 10
-83.923817
 20
75.206094
 30
0.0
 10
-83.933686
 20
75.090955
 30
0.0
 10
-83.941729
 20
74.980203
 30
0.0
 10
-83.947630
 20
74.877341
 30
0.0
 10
-83.951043
 20
74.785859
 30
0.0
 10
-83.963293
 20
74.419623
 30
0.0
 10
-83.982158
 20
74.001113
 30
0.0
 10
-84.005970
 20
73.556383
 30
0.0
 10
-84.033069
 20
73.111480
 30
0.0
 10
-84.061768
 20
72.692457
 30
0.0
 10
-84.090391
 20
72.325361
 30
0.0
 10
-84.117254
 20
72.036243
 30
0.0
 10
-84.140696
 20
71.851154
 30
0.0
 10
-84.152602
 20
71.765008
 30
0.0
 10
-84.163583
 20
71.653846
 30
0.0
 10
-84.173425
 20
71.522300
 30
0.0
 10
-84.181892
 20
71.375004
 30
0.0
 10
-84.188771
 20
71.216593
 30
0.0
 10
-84.193824
 20
71.051699
 30
0.0
 10
-84.196814
 20
70.884953
 30
0.0
 10
-84.197608
 20
70.720991
 30
0.0
 10
-84.198137
 20
70.555627
 30
0.0
 10
-84.199989
 20
70.384862
 30
0.0
 10
-84.202900
 20
70.213613
 30
0.0
 10
-84.206789
 20
70.046793
 30
0.0
 10
-84.211552
 20
69.889316
 30
0.0
 10
-84.217081
 20
69.746099
 30
0.0
 10
-84.223299
 20
69.622055
 30
0.0
 10
-84.230099
 20
69.522098
 30
0.0
 10
-84.236078
 20
69.432481
 30
0.0
 10
-84.239703
 20
69.338083
 30
0.0
 10
-84.241026
 20
69.241737
 30
0.0
 10
-84.240232
 20
69.146284
 30
0.0
 10
-84.237243
 20
69.054561
 30
0.0
 10
-84.232189
 20
68.969405
 30
0.0
 10
-84.225151
 20
68.893654
 30
0.0
 10
-84.216155
 20
68.830149
 30
0.0
 10
-84.208059
 20
68.772158
 30
0.0
 10
-84.203588
 20
68.712211
 30
0.0
 10
-84.202529
 20
68.652045
 30
0.0
 10
-84.204911
 20
68.593389
 30
0.0
 10
-84.210467
 20
68.537970
 30
0.0
 10
-84.219092
 20
68.487524
 30
0.0
 10
-84.230681
 20
68.443781
 30
0.0
 10
-84.245074
 20
68.408469
 30
0.0
 10
-84.259812
 20
68.364228
 30
0.0
 10
-84.272406
 20
68.294889
 30
0.0
 10
-84.282672
 20
68.203973
 30
0.0
 10
-84.290397
 20
68.095007
 30
0.0
 10
-84.295398
 20
67.971510
 30
0.0
 10
-84.297515
 20
67.837009
 30
0.0
 10
-84.296456
 20
67.695028
 30
0.0
 10
-84.292091
 20
67.549092
 30
0.0
 10
-84.287275
 20
67.384008
 30
0.0
 10
-84.285159
 20
67.187166
 30
0.0
 10
-84.285413
 20
66.965937
 30
0.0
 10
-84.288058
 20
66.727683
 30
0.0
 10
-84.292953
 20
66.479773
 30
0.0
 10
-84.299991
 20
66.229573
 30
0.0
 10
-84.309093
 20
65.984455
 30
0.0
 10
-84.320126
 20
65.751780
 30
0.0
 10
-84.330445
 20
65.529393
 30
0.0
 10
-84.337536
 20
65.313744
 30
0.0
 10
-84.341425
 20
65.110144
 30
0.0
 10
-84.342219
 20
64.923909
 30
0.0
 10
-84.339837
 20
64.760349
 30
0.0
 10
-84.334308
 20
64.624774
 30
0.0
 10
-84.325682
 20
64.522502
 30
0.0
 10
-84.314014
 20
64.458841
 30
0.0
 10
-84.301764
 20
64.411091
 30
0.0
 10
-84.291445
 20
64.354415
 30
0.0
 10
-84.283190
 20
64.290912
 30
0.0
 10
-84.277131
 20
64.222690
 30
0.0
 10
-84.273427
 20
64.151850
 30
0.0
 10
-84.272104
 20
64.080495
 30
0.0
 10
-84.273427
 20
64.010727
 30
0.0
 10
-84.277660
 20
63.944650
 30
0.0
 10
-84.308580
 20
63.434938
 30
0.0
 10
-84.309902
 20
62.923273
 30
0.0
 10
-84.279801
 20
62.400303
 30
0.0
 10
-84.216708
 20
61.856677
 30
0.0
 10
-84.118961
 20
61.283047
 30
0.0
 10
-83.984904
 20
60.670066
 30
0.0
 10
-83.812877
 20
60.008382
 30
0.0
 10
-83.601229
 20
59.288644
 30
0.0
 10
-83.455417
 20
58.809624
 30
0.0
 10
-83.210694
 20
58.426627
 30
0.0
 10
-82.902954
 20
58.108031
 30
0.0
 10
-82.568092
 20
57.822226
 30
0.0
 10
-82.242004
 20
57.537592
 30
0.0
 10
-81.960582
 20
57.222516
 30
0.0
 10
-81.759721
 20
56.845381
 30
0.0
 10
-81.675319
 20
56.374576
 30
0.0
 10
-81.738235
 20
55.986792
 30
0.0
 10
-81.908851
 20
55.648443
 30
0.0
 10
-82.160039
 20
55.354497
 30
0.0
 10
-82.464672
 20
55.099920
 30
0.0
 10
-82.795631
 20
54.879683
 30
0.0
 10
-83.125789
 20
54.688755
 30
0.0
 10
-83.428020
 20
54.522104
 30
0.0
 10
-83.675199
 20
54.374697
 30
0.0
 10
-83.815886
 20
54.201167
 30
0.0
 10
-83.960475
 20
53.885919
 30
0.0
 10
-84.100966
 20
53.466657
 30
0.0
 10
-84.229347
 20
52.981094
 30
0.0
 10
-84.337620
 20
52.466932
 30
0.0
 10
-84.417773
 20
51.961885
 30
0.0
 10
-84.461805
 20
51.503655
 30
0.0
 10
-84.461712
 20
51.129953
 30
0.0
 10
-84.457770
 20
51.057033
 30
0.0
 10
-84.456976
 20
50.983350
 30
0.0
 10
-84.459093
 20
50.910915
 30
0.0
 10
-84.464120
 20
50.841742
 30
0.0
 10
-84.471767
 20
50.777848
 30
0.0
 10
-84.481847
 20
50.721248
 30
0.0
 10
-84.494203
 20
50.673956
 30
0.0
 10
-84.508650
 20
50.637986
 30
0.0
 10
-84.524577
 20
50.589655
 30
0.0
 10
-84.541114
 20
50.506962
 30
0.0
 10
-84.557783
 20
50.394406
 30
0.0
 10
-84.574081
 20
50.256497
 30
0.0
 10
-84.589533
 20
50.097736
 30
0.0
 10
-84.603661
 20
49.922630
 30
0.0
 10
-84.615965
 20
49.735680
 30
0.0
 10
-84.625966
 20
49.541394
 30
0.0
 10
-84.635464
 20
49.342928
 30
0.0
 10
-84.646392
 20
49.143972
 30
0.0
 10
-84.658377
 20
48.949873
 30
0.0
 10
-84.670998
 20
48.765969
 30
0.0
 10
-84.683857
 20
48.597607
 30
0.0
 10
-84.696583
 20
48.450123
 30
0.0
 10
-84.708754
 20
48.328864
 30
0.0
 10
-84.719999
 20
48.239168
 30
0.0
 10
-84.729365
 20
48.166717
 30
0.0
 10
-84.736112
 20
48.094888
 30
0.0
 10
-84.740186
 20
48.025543
 30
0.0
 10
-84.741509
 20
47.960549
 30
0.0
 10
-84.740186
 20
47.901763
 30
0.0
 10
-84.736165
 20
47.851053
 30
0.0
 10
-84.729418
 20
47.810281
 30
0.0
 10
-84.719893
 20
47.781307
 30
0.0
 10
-84.706796
 20
47.743934
 30
0.0
 10
-84.689042
 20
47.679172
 30
0.0
 10
-84.667426
 20
47.590579
 30
0.0
 10
-84.642714
 20
47.481716
 30
0.0
 10
-84.615700
 20
47.356137
 30
0.0
 10
-84.587167
 20
47.217400
 30
0.0
 10
-84.557899
 20
47.069067
 30
0.0
 10
-84.528681
 20
46.914690
 30
0.0
 10
-84.475585
 20
46.645194
 30
0.0
 10
-84.417067
 20
46.381833
 30
0.0
 10
-84.352096
 20
46.120964
 30
0.0
 10
-84.279629
 20
45.858953
 30
0.0
 10
-84.198635
 20
45.592160
 30
0.0
 10
-84.108070
 20
45.316951
 30
0.0
 10
-84.006904
 20
45.029682
 30
0.0
 10
-83.894094
 20
44.726718
 30
0.0
 10
-83.851361
 20
44.629283
 30
0.0
 10
-83.787205
 20
44.502979
 30
0.0
 10
-83.704766
 20
44.353103
 30
0.0
 10
-83.607188
 20
44.184966
 30
0.0
 10
-83.497605
 20
44.003866
 30
0.0
 10
-83.379162
 20
43.815110
 30
0.0
 10
-83.254996
 20
43.624001
 30
0.0
 10
-83.128250
 20
43.435843
 30
0.0
 10
-82.948380
 20
43.180443
 30
0.0
 10
-82.780389
 20
42.957804
 30
0.0
 10
-82.615984
 20
42.759473
 30
0.0
 10
-82.446884
 20
42.576989
 30
0.0
 10
-82.264800
 20
42.401901
 30
0.0
 10
-82.061450
 20
42.225755
 30
0.0
 10
-81.828545
 20
42.040094
 30
0.0
 10
-81.557802
 20
41.836463
 30
0.0
 10
-81.363558
 20
41.694480
 30
0.0
 10
-81.177614
 20
41.560728
 30
0.0
 10
-81.004370
 20
41.438231
 30
0.0
 10
-80.848240
 20
41.330021
 30
0.0
 10
-80.713622
 20
41.239121
 30
0.0
 10
-80.604929
 20
41.168562
 30
0.0
 10
-80.526565
 20
41.121374
 30
0.0
 10
-80.482932
 20
41.100577
 30
0.0
 10
-80.399588
 20
41.071235
 30
0.0
 10
-80.366277
 20
41.042348
 30
0.0
 10
-80.378342
 20
41.015323
 30
0.0
 10
-80.431151
 20
40.991564
 30
0.0
 10
-80.520048
 20
40.972487
 30
0.0
 10
-80.640388
 20
40.959496
 30
0.0
 10
-80.787520
 20
40.954019
 30
0.0
 10
-80.956801
 20
40.957433
 30
0.0
 10
-81.248533
 20
40.960078
 30
0.0
 10
-81.618616
 20
40.946955
 30
0.0
 10
-82.040883
 20
40.920491
 30
0.0
 10
-82.489167
 20
40.883119
 30
0.0
 10
-82.937300
 20
40.837269
 30
0.0
 10
-83.359120
 20
40.785377
 30
0.0
 10
-83.728457
 20
40.729875
 30
0.0
 10
-84.019147
 20
40.673196
 30
0.0
 10
-84.543268
 20
40.539423
 30
0.0
 10
-85.064523
 20
40.383673
 30
0.0
 10
-85.574190
 20
40.209511
 30
0.0
 10
-86.063537
 20
40.020509
 30
0.0
 10
-86.523841
 20
39.820235
 30
0.0
 10
-86.946372
 20
39.612259
 30
0.0
 10
-87.322406
 20
39.400153
 30
0.0
 10
-87.643213
 20
39.187481
 30
0.0
 10
-87.955990
 20
38.955918
 30
0.0
 10
-88.246426
 20
38.733874
 30
0.0
 10
-88.514171
 20
38.521652
 30
0.0
 10
-88.758882
 20
38.319558
 30
0.0
 10
-88.980214
 20
38.127899
 30
0.0
 10
-89.177818
 20
37.946980
 30
0.0
 10
-89.351350
 20
37.777106
 30
0.0
 10
-89.500467
 20
37.618581
 30
0.0
 10
-89.579392
 20
37.530991
 30
0.0
 10
-89.663765
 20
37.438326
 30
0.0
 10
-89.750963
 20
37.343378
 30
0.0
 10
-89.838366
 20
37.248945
 30
0.0
 10
-89.923355
 20
37.157828
 30
0.0
 10
-90.003312
 20
37.072820
 30
0.0
 10
-90.075613
 20
36.996723
 30
0.0
 10
-90.137636
 20
36.932332
 30
0.0
 10
-90.249634
 20
36.797653
 30
0.0
 10
-90.319302
 20
36.666126
 30
0.0
 10
-90.346157
 20
36.536113
 30
0.0
 10
-90.329726
 20
36.405970
 30
0.0
 10
-90.269510
 20
36.274056
 30
0.0
 10
-90.165034
 20
36.138727
 30
0.0
 10
-90.015822
 20
35.998347
 30
0.0
 10
-89.821388
 20
35.851271
 30
0.0
 10
-89.692731
 20
35.765434
 30
0.0
 10
-89.571301
 20
35.693576
 30
0.0
 10
-89.449254
 20
35.632897
 30
0.0
 10
-89.318748
 20
35.580597
 30
0.0
 10
-89.171944
 20
35.533866
 30
0.0
 10
-89.000999
 20
35.489908
 30
0.0
 10
-88.798069
 20
35.445921
 30
0.0
 10
-88.555314
 20
35.399098
 30
0.0
 10
-88.379160
 20
35.365654
 30
0.0
 10
-88.200190
 20
35.330179
 30
0.0
 10
-88.023367
 20
35.293748
 30
0.0
 10
-87.853647
 20
35.257442
 30
0.0
 10
-87.695995
 20
35.222337
 30
0.0
 10
-87.555372
 20
35.189513
 30
0.0
 10
-87.436738
 20
35.160047
 30
0.0
 10
-87.345052
 20
35.135017
 30
0.0
 10
-87.124736
 20
35.059066
 30
0.0
 10
-86.880554
 20
34.955743
 30
0.0
 10
-86.625933
 20
34.832638
 30
0.0
 10
-86.374295
 20
34.697327
 30
0.0
 10
-86.139068
 20
34.557397
 30
0.0
 10
-85.933674
 20
34.420430
 30
0.0
 10
-85.771538
 20
34.294010
 30
0.0
 10
-85.666085
 20
34.185718
 30
0.0
 10
-85.628700
 20
34.137736
 30
0.0
 10
-85.586784
 20
34.087079
 30
0.0
 10
-85.541755
 20
34.035279
 30
0.0
 10
-85.495024
 20
33.983865
 30
0.0
 10
-85.448002
 20
33.934364
 30
0.0
 10
-85.402105
 20
33.888303
 30
0.0
 10
-85.358745
 20
33.847216
 30
0.0
 10
-85.319336
 20
33.812630
 30
0.0
 10
-85.270896
 20
33.769595
 30
0.0
 10
-85.201607
 20
33.704375
 30
0.0
 10
-85.114717
 20
33.620190
 30
0.0
 10
-85.013467
 20
33.520268
 30
0.0
 10
-84.901098
 20
33.407830
 30
0.0
 10
-84.780858
 20
33.286101
 30
0.0
 10
-84.655983
 20
33.158304
 30
0.0
 10
-84.529721
 20
33.027664
 30
0.0
 10
-84.231848
 20
32.745388
 30
0.0
 10
-83.862394
 20
32.437929
 30
0.0
 10
-83.446382
 20
32.122185
 30
0.0
 10
-83.008840
 20
31.815057
 30
0.0
 10
-82.574791
 20
31.533435
 30
0.0
 10
-82.169259
 20
31.294251
 30
0.0
 10
-81.817273
 20
31.114388
 30
0.0
 10
-81.543856
 20
31.010724
 30
0.0
 10
-81.409072
 20
30.968232
 30
0.0
 10
-81.308551
 20
30.923067
 30
0.0
 10
-81.243085
 20
30.877956
 30
0.0
 10
-81.213452
 20
30.835649
 30
0.0
 10
-81.220437
 20
30.798898
 30
0.0
 10
-81.264823
 20
30.770403
 30
0.0
 10
-81.347392
 20
30.752940
 30
0.0
 10
-81.468928
 20
30.749236
 30
0.0
 10
-81.532484
 20
30.749236
 30
0.0
 10
-81.628422
 20
30.746590
 30
0.0
 10
-81.752022
 20
30.742886
 30
0.0
 10
-81.898564
 20
30.737330
 30
0.0
 10
-82.063331
 20
30.730186
 30
0.0
 10
-82.241596
 20
30.721719
 30
0.0
 10
-82.428649
 20
30.712194
 30
0.0
 10
-82.619763
 20
30.701611
 30
0.0
 10
-82.813747
 20
30.691557
 30
0.0
 10
-83.009004
 20
30.683355
 30
0.0
 10
-83.200237
 20
30.677269
 30
0.0
 10
-83.382146
 20
30.673301
 30
0.0
 10
-83.549440
 20
30.670655
 30
0.0
 10
-83.696818
 20
30.670655
 30
0.0
 10
-83.818981
 20
30.673565
 30
0.0
 10
-83.910638
 20
30.678857
 30
0.0
 10
-83.990791
 20
30.683884
 30
0.0
 10
-84.080003
 20
30.686530
 30
0.0
 10
-84.175293
 20
30.686530
 30
0.0
 10
-84.273665
 20
30.682826
 30
0.0
 10
-84.372135
 20
30.676476
 30
0.0
 10
-84.467713
 20
30.667744
 30
0.0
 10
-84.557412
 20
30.656896
 30
0.0
 10
-84.638242
 20
30.644196
 30
0.0
 10
-84.725489
 20
30.629115
 30
0.0
 10
-84.833584
 20
30.612182
 30
0.0
 10
-84.958261
 20
30.594455
 30
0.0
 10
-85.095255
 20
30.576199
 30
0.0
 10
-85.240299
 20
30.557942
 30
0.0
 10
-85.389127
 20
30.540215
 30
0.0
 10
-85.537474
 20
30.523811
 30
0.0
 10
-85.681074
 20
30.509259
 30
0.0
 10
-86.157139
 20
30.460920
 30
0.0
 10
-86.598540
 20
30.411443
 30
0.0
 10
-86.999757
 20
30.361648
 30
0.0
 10
-87.355257
 20
30.312383
 30
0.0
 10
-87.659517
 20
30.264414
 30
0.0
 10
-87.907013
 20
30.218588
 30
0.0
 10
-88.092216
 20
30.175725
 30
0.0
 10
-88.209602
 20
30.136673
 30
0.0
 10
-88.373709
 20
30.027241
 30
0.0
 10
-88.504752
 20
29.868279
 30
0.0
 10
-88.601050
 20
29.669551
 30
0.0
 10
-88.660928
 20
29.440871
 30
0.0
 10
-88.682703
 20
29.192084
 30
0.0
 10
-88.664685
 20
28.932977
 30
0.0
 10
-88.605214
 20
28.673395
 30
0.0
 10
-88.502601
 20
28.423099
 30
0.0
 10
-88.485430
 20
28.385237
 30
0.0
 10
-88.461617
 20
28.326103
 30
0.0
 10
-88.432267
 20
28.248738
 30
0.0
 10
-88.398448
 20
28.156108
 30
0.0
 10
-88.361240
 20
28.051227
 30
0.0
 10
-88.321721
 20
27.937059
 30
0.0
 10
-88.280976
 20
27.816621
 30
0.0
 10
-88.240076
 20
27.692902
 30
0.0
 10
-88.198042
 20
27.564367
 30
0.0
 10
-88.154071
 20
27.430118
 30
0.0
 10
-88.109462
 20
27.294095
 30
0.0
 10
-88.065512
 20
27.160295
 30
0.0
 10
-88.023520
 20
27.032687
 30
0.0
 10
-87.984782
 20
26.915212
 30
0.0
 10
-87.950601
 20
26.811839
 30
0.0
 10
-87.922267
 20
26.726564
 30
0.0
 10
-87.818534
 20
26.492223
 30
0.0
 10
-87.638271
 20
26.161123
 30
0.0
 10
-87.402948
 20
25.766391
 30
0.0
 10
-87.134033
 20
25.341126
 30
0.0
 10
-86.852995
 20
24.918401
 30
0.0
 10
-86.581303
 20
24.531316
 30
0.0
 10
-86.340426
 20
24.212996
 30
0.0
 10
-86.151834
 20
23.996487
 30
0.0
 10
-86.076978
 20
23.910815
 30
0.0
 10
-86.008959
 20
23.823741
 30
0.0
 10
-85.945911
 20
23.736428
 30
0.0
 10
-85.885962
 20
23.650015
 30
0.0
 10
-85.827238
 20
23.565666
 30
0.0
 10
-85.767870
 20
23.484545
 30
0.0
 10
-85.705990
 20
23.407789
 30
0.0
 10
-85.639719
 20
23.336590
 30
0.0
 10
-85.584398
 20
23.291558
 30
0.0
 10
-85.528878
 20
23.243377
 30
0.0
 10
-85.474643
 20
23.193556
 30
0.0
 10
-85.423184
 20
23.143576
 30
0.0
 10
-85.375991
 20
23.094973
 30
0.0
 10
-85.334549
 20
23.049200
 30
0.0
 10
-85.300352
 20
23.007792
 30
0.0
 10
-85.274872
 20
22.972259
 30
0.0
 10
-85.246509
 20
22.934582
 30
0.0
 10
-85.203975
 20
22.887142
 30
0.0
 10
-85.149343
 20
22.831844
 30
0.0
 10
-85.084692
 20
22.770567
 30
0.0
 10
-85.012099
 20
22.705241
 30
0.0
 10
-84.933637
 20
22.637773
 30
0.0
 10
-84.851383
 20
22.570092
 30
0.0
 10
-84.767409
 20
22.504079
 30
0.0
 10
-84.680285
 20
22.435472
 30
0.0
 10
-84.588966
 20
22.360383
 30
0.0
 10
-84.496177
 20
22.281220
 30
0.0
 10
-84.404637
 20
22.200443
 30
0.0
 10
-84.317070
 20
22.120459
 30
0.0
 10
-84.236200
 20
22.043730
 30
0.0
 10
-84.164747
 20
21.972689
 30
0.0
 10
-84.105435
 20
21.909798
 30
0.0
 10
-84.040557
 20
21.842700
 30
0.0
 10
-83.953183
 20
21.759620
 30
0.0
 10
-83.847149
 20
21.663868
 30
0.0
 10
-83.726282
 20
21.558696
 30
0.0
 10
-83.594414
 20
21.447439
 30
0.0
 10
-83.455378
 20
21.333350
 30
0.0
 10
-83.313005
 20
21.219712
 30
0.0
 10
-83.171125
 20
21.109830
 30
0.0
 10
-83.025398
 20
20.998811
 30
0.0
 10
-82.871995
 20
20.881918
 30
0.0
 10
-82.715523
 20
20.762644
 30
0.0
 10
-82.560583
 20
20.644534
 30
0.0
 10
-82.411776
 20
20.531054
 30
0.0
 10
-82.273709
 20
20.425724
 30
0.0
 10
-82.150982
 20
20.332061
 30
0.0
 10
-82.048197
 20
20.253559
 30
0.0
 10
-81.796620
 20
20.068033
 30
0.0
 10
-81.517225
 20
19.873670
 30
0.0
 10
-81.219585
 20
19.676397
 30
0.0
 10
-80.913264
 20
19.482140
 30
0.0
 10
-80.607829
 20
19.296852
 30
0.0
 10
-80.312847
 20
19.126487
 30
0.0
 10
-80.037890
 20
18.976945
 30
0.0
 10
-79.792520
 20
18.854178
 30
0.0
 10
-79.689928
 20
18.803748
 30
0.0
 10
-79.596403
 20
18.753954
 30
0.0
 10
-79.513840
 20
18.706038
 30
0.0
 10
-79.444125
 20
18.661350
 30
0.0
 10
-79.389150
 20
18.621159
 30
0.0
 10
-79.350804
 20
18.586737
 30
0.0
 10
-79.330987
 20
18.559432
 30
0.0
 10
-79.331516
 20
18.540382
 30
0.0
 10
-79.379141
 20
18.522920
 30
0.0
 10
-79.494020
 20
18.499636
 30
0.0
 10
-79.668595
 20
18.471776
 30
0.0
 10
-79.895300
 20
18.440237
 30
0.0
 10
-80.166580
 20
18.406000
 30
0.0
 10
-80.474868
 20
18.370043
 30
0.0
 10
-80.812606
 20
18.333346
 30
0.0
 10
-81.172230
 20
18.296886
 30
0.0
 10
-82.073171
 20
18.192984
 30
0.0
 10
-82.807204
 20
18.070853
 30
0.0
 10
-83.384935
 20
17.924882
 30
0.0
 10
-83.816968
 20
17.749490
 30
0.0
 10
-84.113904
 20
17.539066
 30
0.0
 10
-84.286355
 20
17.288030
 30
0.0
 10
-84.344920
 20
16.990770
 30
0.0
 10
-84.300206
 20
16.641679
 30
0.0
 10
-84.189004
 20
16.371884
 30
0.0
 10
-83.979157
 20
16.068936
 30
0.0
 10
-83.668812
 20
15.731274
 30
0.0
 10
-83.256117
 20
15.357312
 30
0.0
 10
-82.739230
 20
14.945488
 30
0.0
 10
-82.116292
 20
14.494241
 30
0.0
 10
-81.385460
 20
14.002011
 30
0.0
 10
-80.544879
 20
13.467208
 30
0.0
 10
-80.021496
 20
13.147671
 30
0.0
 10
-79.526905
 20
12.856868
 30
0.0
 10
-79.064742
 20
12.596676
 30
0.0
 10
-78.638649
 20
12.369029
 30
0.0
 10
-78.252267
 20
12.175777
 30
0.0
 10
-77.909240
 20
12.018826
 30
0.0
 10
-77.613208
 20
11.900028
 30
0.0
 10
-77.367813
 20
11.821315
 30
0.0
 10
-77.270610
 20
11.792660
 30
0.0
 10
-77.163083
 20
11.755910
 30
0.0
 10
-77.048797
 20
11.712624
 30
0.0
 10
-76.931311
 20
11.664258
 30
0.0
 10
-76.814193
 20
11.612373
 30
0.0
 10
-76.701004
 20
11.558504
 30
0.0
 10
-76.595314
 20
11.504132
 30
0.0
 10
-76.500680
 20
11.450792
 30
0.0
 10
-76.394114
 20
11.391552
 30
0.0
 10
-76.254237
 20
11.320326
 30
0.0
 10
-76.086986
 20
11.239761
 30
0.0
 10
-75.898304
 20
11.152580
 30
0.0
 10
-75.694127
 20
11.061511
 30
0.0
 10
-75.480402
 20
10.969251
 30
0.0
 10
-75.263065
 20
10.878472
 30
0.0
 10
-75.048057
 20
10.791927
 30
0.0
 10
-74.828135
 20
10.704218
 30
0.0
 10
-74.596712
 20
10.610211
 30
0.0
 10
-74.360736
 20
10.512844
 30
0.0
 10
-74.127151
 20
10.415028
 30
0.0
 10
-73.902903
 20
10.319725
 30
0.0
 10
-73.694941
 20
10.229873
 30
0.0
 10
-73.510209
 20
10.148407
 30
0.0
 10
-73.355652
 20
10.078266
 30
0.0
 10
-73.207208
 20
10.011247
 30
0.0
 10
-73.040007
 20
9.938751
 30
0.0
 10
-72.859765
 20
9.863081
 30
0.0
 10
-72.672199
 20
9.786510
 30
0.0
 10
-72.483020
 20
9.711342
 30
0.0
 10
-72.297946
 20
9.639852
 30
0.0
 10
-72.122691
 20
9.574314
 30
0.0
 10
-71.962973
 20
9.517059
 30
0.0
 10
-71.805787
 20
9.460464
 30
0.0
 10
-71.637782
 20
9.396805
 30
0.0
 10
-71.464159
 20
9.328305
 30
0.0
 10
-71.290119
 20
9.257105
 30
0.0
 10
-71.120863
 20
9.185377
 30
0.0
 10
-70.961591
 20
9.115342
 30
0.0
 10
-70.817505
 20
9.049116
 30
0.0
 10
-70.693801
 20
8.988924
 30
0.0
 10
-70.571664
 20
8.930451
 30
0.0
 10
-70.432075
 20
8.869120
 30
0.0
 10
-70.279932
 20
8.806758
 30
0.0
 10
-70.120124
 20
8.745163
 30
0.0
 10
-69.957545
 20
8.686135
 30
0.0
 10
-69.797094
 20
8.631472
 30
0.0
 10
-69.643662
 20
8.582974
 30
0.0
 10
-69.502142
 20
8.542439
 30
0.0
 10
-69.372446
 20
8.506006
 30
0.0
 10
-69.253005
 20
8.468938
 30
0.0
 10
-69.146327
 20
8.432293
 30
0.0
 10
-69.054932
 20
8.397051
 30
0.0
 10
-68.981325
 20
8.364322
 30
0.0
 10
-68.928020
 20
8.335085
 30
0.0
 10
-68.897526
 20
8.310479
 30
0.0
 10
-68.892367
 20
8.291429
 30
0.0
 10
-68.916629
 20
8.276613
 30
0.0
 10
-68.970393
 20
8.263913
 30
0.0
 10
-69.050255
 20
8.253594
 30
0.0
 10
-69.152810
 20
8.245921
 30
0.0
 10
-69.274648
 20
8.241158
 30
0.0
 10
-69.412361
 20
8.238513
 30
0.0
 10
-69.562543
 20
8.238513
 30
0.0
 10
-69.721783
 20
8.243275
 30
0.0
 10
-70.126886
 20
8.251477
 30
0.0
 10
-70.539115
 20
8.245656
 30
0.0
 10
-70.947830
 20
8.226606
 30
0.0
 10
-71.342403
 20
8.195650
 30
0.0
 10
-71.712196
 20
8.153687
 30
0.0
 10
-72.046576
 20
8.101749
 30
0.0
 10
-72.334914
 20
8.040842
 30
0.0
 10
-72.566570
 20
7.971971
 30
0.0
 10
-72.691524
 20
7.923605
 30
0.0
 10
-72.796474
 20
7.875081
 30
0.0
 10
-72.885205
 20
7.822984
 30
0.0
 10
-72.961511
 20
7.763929
 30
0.0
 10
-73.029175
 20
7.694556
 30
0.0
 10
-73.091987
 20
7.611450
 30
0.0
 10
-73.153736
 20
7.511279
 30
0.0
 10
-73.218209
 20
7.390602
 30
0.0
 10
-73.261575
 20
7.299056
 30
0.0
 10
-73.302262
 20
7.201028
 30
0.0
 10
-73.339351
 20
7.099587
 30
0.0
 10
-73.371935
 20
6.997749
 30
0.0
 10
-73.399092
 20
6.898557
 30
0.0
 10
-73.419914
 20
6.805106
 30
0.0
 10
-73.433488
 20
6.720413
 30
0.0
 10
-73.438885
 20
6.647520
 30
0.0
 10
-73.416052
 20
6.406194
 30
0.0
 10
-73.345130
 20
6.119015
 30
0.0
 10
-73.232629
 20
5.799636
 30
0.0
 10
-73.085055
 20
5.461737
 30
0.0
 10
-72.908909
 20
5.118943
 30
0.0
 10
-72.710699
 20
4.784959
 30
0.0
 10
-72.496926
 20
4.473439
 30
0.0
 10
-72.274099
 20
4.198034
 30
0.0
 10
-72.215872
 20
4.128793
 30
0.0
 10
-72.166041
 20
4.061694
 30
0.0
 10
-72.125377
 20
3.998379
 30
0.0
 10
-72.094646
 20
3.940515
 30
0.0
 10
-72.074617
 20
3.889768
 30
0.0
 10
-72.066071
 20
3.847752
 30
0.0
 10
-72.069775
 20
3.816108
 30
0.0
 10
-72.086496
 20
3.796529
 30
0.0
 10
-72.120834
 20
3.783300
 30
0.0
 10
-72.174978
 20
3.770335
 30
0.0
 10
-72.246162
 20
3.757900
 30
0.0
 10
-72.331620
 20
3.746258
 30
0.0
 10
-72.428584
 20
3.735675
 30
0.0
 10
-72.534293
 20
3.726414
 30
0.0
 10
-72.645979
 20
3.719006
 30
0.0
 10
-72.760874
 20
3.713714
 30
0.0
 10
-73.173286
 20
3.675032
 30
0.0
 10
-73.544800
 20
3.588037
 30
0.0
 10
-73.877699
 20
3.450956
 30
0.0
 10
-74.174271
 20
3.262018
 30
0.0
 10
-74.436793
 20
3.019421
 30
0.0
 10
-74.667552
 20
2.721421
 30
0.0
 10
-74.868828
 20
2.366218
 30
0.0
 10
-75.042906
 20
1.952065
 30
0.0
 10
-75.136891
 20
1.675920
 30
0.0
 10
-75.204725
 20
1.434408
 30
0.0
 10
-75.246481
 20
1.222530
 30
0.0
 10
-75.262224
 20
1.035337
 30
0.0
 10
-75.252038
 20
0.867829
 30
0.0
 10
-75.216001
 20
0.715059
 30
0.0
 10
-75.154179
 20
0.572025
 30
0.0
 10
-75.066647
 20
0.433807
 30
0.0
 10
-73.195270
 20
-1.280693
 30
0.0
 10
-70.453824
 20
-2.738230
 30
0.0
 10
-67.094264
 20
-3.967696
 30
0.0
 10
-63.368550
 20
-4.997930
 30
0.0
 10
-59.528644
 20
-5.857826
 30
0.0
 10
-55.826499
 20
-6.576196
 30
0.0
 10
-52.514079
 20
-7.181960
 30
0.0
 10
-49.843343
 20
-7.703930
 30
0.0
 10
-47.910909
 20
-8.040691
 30
0.0
 10
-46.095277
 20
-8.115780
 30
0.0
 10
-44.166933
 20
-7.967428
 30
0.0
 10
-41.896355
 20
-7.633709
 30
0.0
 10
-39.054024
 20
-7.152829
 30
0.0
 10
-35.410426
 20
-6.562914
 30
0.0
 10
-30.736037
 20
-5.902117
 30
0.0
 10
-24.801341
 20
-5.208618
 30
0.0
 10
-19.633591
 20
-5.615759
 30
0.0
 10
-14.499891
 20
-6.141327
 30
0.0
 10
-9.027975
 20
-6.629642
 30
0.0
 10
-2.845581
 20
-6.925102
 30
0.0
 10
4.419554
 20
-6.871974
 30
0.0
 10
13.139694
 20
-6.314656
 30
0.0
 10
23.687102
 20
-5.097440
 30
0.0
 10
36.434040
 20
-3.064699
 30
0.0
 10
38.493769
 20
-4.786078
 30
0.0
 10
40.970819
 20
-6.255177
 30
0.0
 10
43.758461
 20
-7.448607
 30
0.0
 10
46.749965
 20
-8.343084
 30
0.0
 10
49.838599
 20
-8.915192
 30
0.0
 10
52.917638
 20
-9.141649
 30
0.0
 10
55.880347
 20
-8.999039
 30
0.0
 10
58.619999
 20
-8.464078
 30
0.0
 10
58.923449
 20
-8.368748
 30
0.0
 10
59.241412
 20
-8.249289
 30
0.0
 10
59.569011
 20
-8.103451
 30
0.0
 10
59.901368
 20
-7.929117
 30
0.0
 10
60.233608
 20
-7.724117
 30
0.0
 10
60.560852
 20
-7.486231
 30
0.0
 10
60.878225
 20
-7.213339
 30
0.0
 10
61.180850
 20
-6.903221
 30
0.0
 10
61.296018
 20
-6.767675
 30
0.0
 10
61.386310
 20
-6.652185
 30
0.0
 10
61.454660
 20
-6.549897
 30
0.0
 10
61.504002
 20
-6.454065
 30
0.0
 10
61.537268
 20
-6.357836
 30
0.0
 10
61.557403
 20
-6.254436
 30
0.0
 10
61.567325
 20
-6.137067
 30
0.0
 10
61.569970
 20
-5.998875
 30
0.0
 10
61.540311
 20
-5.747680
 30
0.0
 10
61.451900
 20
-5.511645
 30
0.0
 10
61.305609
 20
-5.291538
 30
0.0
 10
61.102314
 20
-5.088074
 30
0.0
 10
60.842885
 20
-4.901992
 30
0.0
 10
60.528189
 20
-4.734008
 30
0.0
 10
60.159101
 20
-4.584863
 30
0.0
 10
59.736490
 20
-4.455296
 30
0.0
 10
59.517304
 20
-4.390711
 30
0.0
 10
59.354633
 20
-4.329169
 30
0.0
 10
59.248791
 20
-4.271517
 30
0.0
 10
59.200095
 20
-4.218521
 30
0.0
 10
59.208853
 20
-4.171001
 30
0.0
 10
59.275382
 20
-4.129779
 30
0.0
 10
59.399998
 20
-4.095595
 30
0.0
 10
59.583010
 20
-4.069401
 30
0.0
 10
59.984963
 20
-4.005505
 30
0.0
 10
60.402608
 20
-3.897422
 30
0.0
 10
60.829653
 20
-3.748171
 30
0.0
 10
61.259805
 20
-3.560766
 30
0.0
 10
61.686773
 20
-3.338199
 30
0.0
 10
62.104265
 20
-3.083485
 30
0.0
 10
62.505987
 20
-2.799640
 30
0.0
 10
62.885651
 20
-2.489654
 30
0.0
 10
63.077643
 20
-2.317066
 30
0.0
 10
63.239520
 20
-2.160644
 30
0.0
 10
63.379538
 20
-2.009329
 30
0.0
 10
63.505948
 20
-1.852114
 30
0.0
 10
63.627008
 20
-1.677965
 30
0.0
 10
63.750971
 20
-1.475823
 30
0.0
 10
63.886091
 20
-1.234682
 30
0.0
 10
64.040620
 20
-0.943482
 30
0.0
 10
64.240958
 20
-0.549676
 30
0.0
 10
64.387471
 20
-0.232202
 30
0.0
 10
64.481292
 20
0.021083
 30
0.0
 10
64.523559
 20
0.222352
 30
0.0
 10
64.515410
 20
0.383774
 30
0.0
 10
64.457972
 20
0.517468
 30
0.0
 10
64.352387
 20
0.635658
 30
0.0
 10
64.199786
 20
0.750460
 30
0.0
 10
64.090870
 20
0.820813
 30
0.0
 10
63.995189
 20
0.875635
 30
0.0
 10
63.904908
 20
0.916857
 30
0.0
 10
63.812190
 20
0.946490
 30
0.0
 10
63.709206
 20
0.966598
 30
0.0
 10
63.588122
 20
0.979034
 30
0.0
 10
63.441098
 20
0.985648
 30
0.0
 10
63.260309
 20
0.988823
 30
0.0
 10
63.023599
 20
0.992528
 30
0.0
 10
62.794967
 20
1.000465
 30
0.0
 10
62.553265
 20
1.014488
 30
0.0
 10
62.277355
 20
1.036448
 30
0.0
 10
61.946097
 20
1.068066
 30
0.0
 10
61.538345
 20
1.111325
 30
0.0
 10
61.032962
 20
1.168052
 30
0.0
 10
60.408801
 20
1.240151
 30
0.0
 10
60.102255
 20
1.278383
 30
0.0
 10
59.802453
 20
1.321008
 30
0.0
 10
59.511187
 20
1.367680
 30
0.0
 10
59.230249
 20
1.418083
 30
0.0
 10
58.961435
 20
1.471847
 30
0.0
 10
58.706531
 20
1.528626
 30
0.0
 10
58.467331
 20
1.588105
 30
0.0
 10
58.245626
 20
1.649938
 30
0.0
 10
58.135491
 20
1.682561
 30
0.0
 10
58.025355
 20
1.715184
 30
0.0
 10
57.915220
 20
1.747807
 30
0.0
 10
57.805085
 20
1.780404
 30
0.0
 10
57.694949
 20
1.813027
 30
0.0
 10
57.584814
 20
1.845650
 30
0.0
 10
57.474678
 20
1.878273
 30
0.0
 10
57.364543
 20
1.910896
 30
0.0
 10
57.459951
 20
1.933121
 30
0.0
 10
57.555358
 20
1.955346
 30
0.0
 10
57.650766
 20
1.977571
 30
0.0
 10
57.746175
 20
1.999796
 30
0.0
 10
57.841581
 20
2.022021
 30
0.0
 10
57.936990
 20
2.044246
 30
0.0
 10
58.032396
 20
2.066471
 30
0.0
 10
58.127805
 20
2.088696
 30
0.0
 10
58.319781
 20
2.139099
 30
0.0
 10
58.573667
 20
2.214664
 30
0.0
 10
58.878557
 20
2.311714
 30
0.0
 10
59.223555
 20
2.426490
 30
0.0
 10
59.597756
 20
2.555368
 30
0.0
 10
59.990257
 20
2.694592
 30
0.0
 10
60.390159
 20
2.840510
 30
0.0
 10
60.786558
 20
2.989417
 30
0.0
 10
61.176151
 20
3.137981
 30
0.0
 10
61.556527
 20
3.282920
 30
0.0
 10
61.918149
 20
3.420662
 30
0.0
 10
62.251471
 20
3.547556
 30
0.0
 10
62.546955
 20
3.659951
 30
0.0
 10
62.795060
 20
3.754275
 30
0.0
 10
62.986243
 20
3.826876
 30
0.0
 10
63.110962
 20
3.874105
 30
0.0
 10
64.083113
 20
4.250871
 30
0.0
 10
65.097628
 20
4.662166
 30
0.0
 10
66.139981
 20
5.101507
 30
0.0
 10
67.195644
 20
5.562464
 30
0.0
 10
68.250088
 20
6.038581
 30
0.0
 10
69.288792
 20
6.523430
 30
0.0
 10
70.297223
 20
7.010555
 30
0.0
 10
71.260854
 20
7.493525
 30
0.0
 10
71.414317
 20
7.571868
 30
0.0
 10
71.578766
 20
7.655609
 30
0.0
 10
71.749081
 20
7.742154
 30
0.0
 10
71.920142
 20
7.828885
 30
0.0
 10
72.086819
 20
7.913260
 30
0.0
 10
72.243998
 20
7.992609
 30
0.0
 10
72.386550
 20
8.064417
 30
0.0
 10
72.509356
 20
8.126038
 30
0.0
 10
72.632766
 20
8.188480
 30
0.0
 10
72.777075
 20
8.262590
 30
0.0
 10
72.937029
 20
8.345616
 30
0.0
 10
73.107383
 20
8.434780
 30
0.0
 10
73.282889
 20
8.527305
 30
0.0
 10
73.458298
 20
8.620412
 30
0.0
 10
73.628361
 20
8.711349
 30
0.0
 10
73.787831
 20
8.797339
 30
0.0
 10
73.950068
 20
8.884837
 30
0.0
 10
74.128037
 20
8.980113
 30
0.0
 10
74.315947
 20
9.080152
 30
0.0
 10
74.507998
 20
9.181831
 30
0.0
 10
74.698394
 20
9.282188
 30
0.0
 10
74.881340
 20
9.378126
 30
0.0
 10
75.051042
 20
9.466603
 30
0.0
 10
75.201698
 20
9.544575
 30
0.0
 10
75.338080
 20
9.615933
 30
0.0
 10
75.466858
 20
9.685519
 30
0.0
 10
75.585103
 20
9.751559
 30
0.0
 10
75.689886
 20
9.812334
 30
0.0
 10
75.778281
 20
9.866070
 30
0.0
 10
75.847361
 20
9.911076
 30
0.0
 10
75.894197
 20
9.945551
 30
0.0
 10
75.915867
 20
9.967776
 30
0.0
 10
75.932059
 20
9.986297
 30
0.0
 10
75.963158
 20
10.010110
 30
0.0
 10
76.007330
 20
10.038023
 30
0.0
 10
76.062745
 20
10.069191
 30
0.0
 10
76.127576
 20
10.102608
 30
0.0
 10
76.199995
 20
10.137321
 30
0.0
 10
76.278174
 20
10.172352
 30
0.0
 10
76.360282
 20
10.206695
 30
0.0
 10
76.616912
 20
10.330573
 30
0.0
 10
76.954600
 20
10.522608
 30
0.0
 10
77.344013
 20
10.763087
 30
0.0
 10
77.755819
 20
11.032380
 30
0.0
 10
78.160676
 20
11.310801
 30
0.0
 10
78.529251
 20
11.578639
 30
0.0
 10
78.832213
 20
11.816288
 30
0.0
 10
79.040220
 20
12.004010
 30
0.0
 10
79.131062
 20
12.101112
 30
0.0
 10
79.202820
 20
12.185620
 30
0.0
 10
79.257033
 20
12.260894
 30
0.0
 10
79.295236
 20
12.330400
 30
0.0
 10
79.318969
 20
12.397471
 30
0.0
 10
79.329764
 20
12.465575
 30
0.0
 10
79.329235
 20
12.538098
 30
0.0
 10
79.318810
 20
12.618451
 30
0.0
 10
79.256522
 20
12.843665
 30
0.0
 10
79.146127
 20
13.047526
 30
0.0
 10
78.978244
 20
13.236148
 30
0.0
 10
78.743482
 20
13.415641
 30
0.0
 10
78.432454
 20
13.592171
 30
0.0
 10
78.035769
 20
13.771850
 30
0.0
 10
77.544046
 20
13.960789
 30
0.0
 10
76.947895
 20
14.165126
 30
0.0
 10
76.575198
 20
14.291571
 30
0.0
 10
76.287074
 20
14.399362
 30
0.0
 10
76.079723
 20
14.491516
 30
0.0
 10
75.949347
 20
14.571024
 30
0.0
 10
75.892147
 20
14.640900
 30
0.0
 10
75.904318
 20
14.704188
 30
0.0
 10
75.982065
 20
14.763878
 30
0.0
 10
76.121588
 20
14.822960
 30
0.0
 10
76.334969
 20
14.931704
 30
0.0
 10
76.693840
 20
15.149826
 30
0.0
 10
77.158395
 20
15.450260
 30
0.0
 10
77.688832
 20
15.805940
 30
0.0
 10
78.245346
 20
16.189771
 30
0.0
 10
78.788133
 20
16.574660
 30
0.0
 10
79.277390
 20
16.933541
 30
0.0
 10
79.673310
 20
17.239346
 30
0.0
 10
80.350045
 20
17.794151
 30
0.0
 10
80.993713
 20
18.344088
 30
0.0
 10
81.611219
 20
18.895823
 30
0.0
 10
82.209468
 20
19.455893
 30
0.0
 10
82.795361
 20
20.030939
 30
0.0
 10
83.375802
 20
20.627548
 30
0.0
 10
83.957697
 20
21.252361
 30
0.0
 10
84.547948
 20
21.911941
 30
0.0
 10
84.897111
 20
22.322839
 30
0.0
 10
85.180001
 20
22.687276
 30
0.0
 10
85.399724
 20
23.011814
 30
0.0
 10
85.559387
 20
23.303014
 30
0.0
 10
85.662093
 20
23.567413
 30
0.0
 10
85.710943
 20
23.811570
 30
0.0
 10
85.709091
 20
24.041996
 30
0.0
 10
85.659550
 20
24.265278
 30
0.0
 10
85.575894
 20
24.481786
 30
0.0
 10
85.468820
 20
24.664825
 30
0.0
 10
85.323098
 20
24.823469
 30
0.0
 10
85.123507
 20
24.966847
 30
0.0
 10
84.854817
 20
25.104033
 30
0.0
 10
84.501805
 20
25.244156
 30
0.0
 10
84.049243
 20
25.396318
 30
0.0
 10
83.481905
 20
25.569594
 30
0.0
 10
83.082736
 20
25.686169
 30
0.0
 10
82.738537
 20
25.782187
 30
0.0
 10
82.440240
 20
25.859657
 30
0.0
 10
82.178771
 20
25.920564
 30
0.0
 10
81.945059
 20
25.966892
 30
0.0
 10
81.730035
 20
26.000653
 30
0.0
 10
81.524628
 20
26.023672
 30
0.0
 10
81.319764
 20
26.038224
 30
0.0
 10
81.175807
 20
26.046426
 30
0.0
 10
81.036631
 20
26.055422
 30
0.0
 10
80.905628
 20
26.064947
 30
0.0
 10
80.786187
 20
26.074472
 30
0.0
 10
80.681703
 20
26.083997
 30
0.0
 10
80.595568
 20
26.092993
 30
0.0
 10
80.531171
 20
26.101459
 30
0.0
 10
80.491907
 20
26.108868
 30
0.0
 10
80.437728
 20
26.138528
 30
0.0
 10
80.418678
 20
26.187343
 30
0.0
 10
80.432754
 20
26.252484
 30
0.0
 10
80.477924
 20
26.331171
 30
0.0
 10
80.552163
 20
26.420600
 30
0.0
 10
80.653451
 20
26.517966
 30
0.0
 10
80.779766
 20
26.620493
 30
0.0
 10
80.929080
 20
26.725373
 30
0.0
 10
81.159146
 20
26.886954
 30
0.0
 10
81.412501
 20
27.084889
 30
0.0
 10
81.684606
 20
27.315024
 30
0.0
 10
81.970930
 20
27.573125
 30
0.0
 10
82.266936
 20
27.855012
 30
0.0
 10
82.568090
 20
28.156452
 30
0.0
 10
82.869857
 20
28.473237
 30
0.0
 10
83.167704
 20
28.801215
 30
0.0
 10
83.380749
 20
29.046298
 30
0.0
 10
83.562597
 20
29.269342
 30
0.0
 10
83.724975
 20
29.489343
 30
0.0
 10
83.879619
 20
29.725193
 30
0.0
 10
84.038257
 20
29.995809
 30
0.0
 10
84.212623
 20
30.320161
 30
0.0
 10
84.414450
 20
30.717169
 30
0.0
 10
84.655470
 20
31.205722
 30
0.0
 10
84.842527
 20
31.594818
 30
0.0
 10
85.013750
 20
31.964944
 30
0.0
 10
85.168743
 20
32.315173
 30
0.0
 10
85.307107
 20
32.644521
 30
0.0
 10
85.428452
 20
32.952093
 30
0.0
 10
85.532381
 20
33.236949
 30
0.0
 10
85.618500
 20
33.498151
 30
0.0
 10
85.686413
 20
33.734763
 30
0.0
 10
85.765172
 20
34.029228
 30
0.0
 10
85.835606
 20
34.266948
 30
0.0
 10
85.907790
 20
34.467370
 30
0.0
 10
85.991801
 20
34.649933
 30
0.0
 10
86.097711
 20
34.834080
 30
0.0
 10
86.235596
 20
35.039251
 30
0.0
 10
86.415531
 20
35.284893
 30
0.0
 10
86.647594
 20
35.590444
 30
0.0
 10
86.800036
 20
35.790644
 30
0.0
 10
86.956231
 20
35.997273
 30
0.0
 10
87.111753
 20
36.204381
 30
0.0
 10
87.262182
 20
36.406020
 30
0.0
 10
87.403096
 20
36.596242
 30
0.0
 10
87.530075
 20
36.769100
 30
0.0
 10
87.638694
 20
36.918645
 30
0.0
 10
87.724533
 20
37.038932
 30
0.0
 10
87.803646
 20
37.147142
 30
0.0
 10
87.892991
 20
37.262063
 30
0.0
 10
87.989511
 20
37.380181
 30
0.0
 10
88.090150
 20
37.497982
 30
0.0
 10
88.191856
 20
37.611951
 30
0.0
 10
88.291569
 20
37.718575
 30
0.0
 10
88.386240
 20
37.814339
 30
0.0
 10
88.472806
 20
37.895732
 30
0.0
 10
88.785898
 20
38.193947
 30
0.0
 10
89.054630
 20
38.486333
 30
0.0
 10
89.276671
 20
38.768828
 30
0.0
 10
89.449696
 20
39.037357
 30
0.0
 10
89.571375
 20
39.287854
 30
0.0
 10
89.639375
 20
39.516247
 30
0.0
 10
89.651388
 20
39.718471
 30
0.0
 10
89.605051
 20
39.890453
 30
0.0
 10
89.498953
 20
39.969171
 30
0.0
 10
89.266009
 20
40.062839
 30
0.0
 10
88.932319
 20
40.165236
 30
0.0
 10
88.523985
 20
40.270148
 30
0.0
 10
88.067108
 20
40.371365
 30
0.0
 10
87.587786
 20
40.462667
 30
0.0
 10
87.112120
 20
40.537840
 30
0.0
 10
86.666213
 20
40.590672
 30
0.0
 10
86.486471
 20
40.607606
 30
0.0
 10
86.297090
 20
40.625730
 30
0.0
 10
86.103772
 20
40.644462
 30
0.0
 10
85.912217
 20
40.663221
 30
0.0
 10
85.728127
 20
40.681425
 30
0.0
 10
85.557204
 20
40.698517
 30
0.0
 10
85.405151
 20
40.713942
 30
0.0
 10
85.277666
 20
40.727092
 30
0.0
 10
84.676922
 20
40.776079
 30
0.0
 10
84.061147
 20
40.799865
 30
0.0
 10
83.439066
 20
40.799071
 30
0.0
 10
82.819404
 20
40.774068
 30
0.0
 10
82.210889
 20
40.725470
 30
0.0
 10
81.622241
 20
40.653813
 30
0.0
 10
81.062187
 20
40.559632
 30
0.0
 10
80.539455
 20
40.443458
 30
0.0
 10
80.383131
 20
40.405181
 30
0.0
 10
80.232353
 20
40.370777
 30
0.0
 10
80.090769
 20
40.340914
 30
0.0
 10
79.962031
 20
40.316255
 30
0.0
 10
79.849790
 20
40.297443
 30
0.0
 10
79.757696
 20
40.285140
 30
0.0
 10
79.689399
 20
40.280033
 30
0.0
 10
79.648553
 20
40.282758
 30
0.0
 10
79.624343
 20
40.301570
 30
0.0
 10
79.619158
 20
40.340972
 30
0.0
 10
79.633551
 20
40.402212
 30
0.0
 10
79.668063
 20
40.486535
 30
0.0
 10
79.723263
 20
40.595192
 30
0.0
 10
79.799709
 20
40.729423
 30
0.0
 10
79.897957
 20
40.890480
 30
0.0
 10
80.018565
 20
41.079607
 30
0.0
 10
80.499826
 20
41.868893
 30
0.0
 10
80.963095
 20
42.719050
 30
0.0
 10
81.395882
 20
43.600139
 30
0.0
 10
81.785698
 20
44.482228
 30
0.0
 10
82.120049
 20
45.335379
 30
0.0
 10
82.386450
 20
46.129658
 30
0.0
 10
82.572408
 20
46.835127
 30
0.0
 10
82.665430
 20
47.421854
 30
0.0
 10
82.674293
 20
47.515292
 30
0.0
 10
82.686014
 20
47.608674
 30
0.0
 10
82.699984
 20
47.699521
 30
0.0
 10
82.715648
 20
47.785357
 30
0.0
 10
82.732422
 20
47.863706
 30
0.0
 10
82.749752
 20
47.932090
 30
0.0
 10
82.767056
 20
47.988028
 30
0.0
 10
82.783778
 20
48.029047
 30
0.0
 10
82.820155
 20
48.174800
 30
0.0
 10
82.861354
 20
48.458994
 30
0.0
 10
82.904240
 20
48.844543
 30
0.0
 10
82.945682
 20
49.294366
 30
0.0
 10
82.982551
 20
49.771383
 30
0.0
 10
83.011716
 20
50.238508
 30
0.0
 10
83.030052
 20
50.658661
 30
0.0
 10
83.034418
 20
50.994761
 30
0.0
 10
83.034682
 20
51.097716
 30
0.0
 10
83.037804
 20
51.213955
 30
0.0
 10
83.043466
 20
51.339487
 30
0.0
 10
83.051404
 20
51.470321
 30
0.0
 10
83.061379
 20
51.602461
 30
0.0
 10
83.073126
 20
51.731917
 30
0.0
 10
83.086408
 20
51.854699
 30
0.0
 10
83.100960
 20
51.966814
 30
0.0
 10
83.137859
 20
52.299355
 30
0.0
 10
83.161672
 20
52.670172
 30
0.0
 10
83.172811
 20
53.057268
 30
0.0
 10
83.171752
 20
53.438638
 30
0.0
 10
83.158735
 20
53.792288
 30
0.0
 10
83.134261
 20
54.096218
 30
0.0
 10
83.098693
 20
54.328426
 30
0.0
 10
83.052449
 20
54.466915
 30
0.0
 10
82.939443
 20
54.588806
 30
0.0
 10
82.765979
 20
54.693893
 30
0.0
 10
82.543018
 20
54.780038
 30
0.0
 10
82.281509
 20
54.845110
 30
0.0
 10
81.992409
 20
54.886970
 30
0.0
 10
81.686673
 20
54.903480
 30
0.0
 10
81.375255
 20
54.892500
 30
0.0
 10
81.069109
 20
54.851905
 30
0.0
 10
80.643164
 20
54.765645
 30
0.0
 10
80.199069
 20
54.663913
 30
0.0
 10
79.751555
 20
54.550941
 30
0.0
 10
79.315355
 20
54.430963
 30
0.0
 10
78.905203
 20
54.308210
 30
0.0
 10
78.535829
 20
54.186914
 30
0.0
 10
78.221964
 20
54.071310
 30
0.0
 10
77.978341
 20
53.965630
 30
0.0
 10
77.872085
 20
53.915460
 30
0.0
 10
77.768691
 20
53.869766
 30
0.0
 10
77.670734
 20
53.829475
 30
0.0
 10
77.580784
 20
53.795505
 30
0.0
 10
77.501417
 20
53.768788
 30
0.0
 10
77.435207
 20
53.750240
 30
0.0
 10
77.384722
 20
53.740795
 30
0.0
 10
77.352541
 20
53.741324
 30
0.0
 10
77.350953
 20
53.786880
 30
0.0
 10
77.395734
 20
53.908112
 30
0.0
 10
77.485460
 20
54.102094
 30
0.0
 10
77.618624
 20
54.365910
 30
0.0
 10
77.793728
 20
54.696637
 30
0.0
 10
78.009268
 20
55.091355
 30
0.0
 10
78.263742
 20
55.547145
 30
0.0
 10
78.555644
 20
56.061085
 30
0.0
 10
78.828493
 20
56.540280
 30
0.0
 10
79.101487
 20
57.024062
 30
0.0
 10
79.367335
 20
57.499214
 30
0.0
 10
79.618753
 20
57.952525
 30
0.0
 10
79.848451
 20
58.370781
 30
0.0
 10
80.049140
 20
58.740772
 30
0.0
 10
80.213533
 20
59.049284
 30
0.0
 10
80.334347
 20
59.283101
 30
0.0
 10
80.653488
 20
59.936186
 30
0.0
 10
80.986691
 20
60.650719
 30
0.0
 10
81.318574
 20
61.390486
 30
0.0
 10
81.633764
 20
62.119265
 30
0.0
 10
81.916879
 20
62.800837
 30
0.0
 10
82.152543
 20
63.398983
 30
0.0
 10
82.325379
 20
63.877485
 30
0.0
 10
82.420008
 20
64.200118
 30
0.0
 10
82.450101
 20
64.331534
 30
0.0
 10
82.486013
 20
64.475565
 30
0.0
 10
82.526394
 20
64.627536
 30
0.0
 10
82.569894
 20
64.782762
 30
0.0
 10
82.615167
 20
64.936570
 30
0.0
 10
82.660866
 20
65.084276
 30
0.0
 10
82.705644
 20
65.221201
 30
0.0
 10
82.748152
 20
65.342668
 30
0.0
 10
82.789228
 20
65.460977
 30
0.0
 10
82.829855
 20
65.588826
 30
0.0
 10
82.868984
 20
65.722173
 30
0.0
 10
82.905571
 20
65.856968
 30
0.0
 10
82.938564
 20
65.989167
 30
0.0
 10
82.966915
 20
66.114717
 30
0.0
 10
82.989563
 20
66.229578
 30
0.0
 10
83.005491
 20
66.329696
 30
0.0
 10
83.020890
 20
66.428973
 30
0.0
 10
83.042056
 20
66.541405
 30
0.0
 10
83.068065
 20
66.663111
 30
0.0
 10
83.097936
 20
66.790209
 30
0.0
 10
83.130723
 20
66.918812
 30
0.0
 10
83.165466
 20
67.045045
 30
0.0
 10
83.201208
 20
67.165020
 30
0.0
 10
83.236999
 20
67.274859
 30
0.0
 10
83.272551
 20
67.386696
 30
0.0
 10
83.307505
 20
67.512423
 30
0.0
 10
83.340956
 20
67.647755
 30
0.0
 10
83.372002
 20
67.788416
 30
0.0
 10
83.399736
 20
67.930124
 30
0.0
 10
83.423257
 20
68.068596
 30
0.0
 10
83.441672
 20
68.199557
 30
0.0
 10
83.454055
 20
68.318723
 30
0.0
 10
83.465458
 20
68.437301
 30
0.0
 10
83.480751
 20
68.566584
 30
0.0
 10
83.499272
 20
68.702416
 30
0.0
 10
83.520333
 20
68.840634
 30
0.0
 10
83.543246
 20
68.977080
 30
0.0
 10
83.567323
 20
69.107591
 30
0.0
 10
83.591903
 20
69.228006
 30
0.0
 10
83.616297
 20
69.334164
 30
0.0
 10
83.670407
 20
69.567495
 30
0.0
 10
83.721639
 20
69.822389
 30
0.0
 10
83.768994
 20
70.091846
 30
0.0
 10
83.811486
 20
70.368868
 30
0.0
 10
83.848115
 20
70.646455
 30
0.0
 10
83.877893
 20
70.917603
 30
0.0
 10
83.899827
 20
71.175315
 30
0.0
 10
83.912924
 20
71.412591
 30
0.0
 10
83.918163
 20
71.528714
 30
0.0
 10
83.926153
 20
71.685053
 30
0.0
 10
83.936499
 20
71.874765
 30
0.0
 10
83.948855
 20
72.091004
 30
0.0
 10
83.962798
 20
72.326925
 30
0.0
 10
83.977985
 20
72.575681
 30
0.0
 10
83.994046
 20
72.830429
 30
0.0
 10
84.010582
 20
73.084324
 30
0.0
 10
84.041819
 20
73.653625
 30
0.0
 10
84.064467
 20
74.252687
 30
0.0
 10
84.078464
 20
74.853447
 30
0.0
 10
84.083755
 20
75.427849
 30
0.0
 10
84.080289
 20
75.947830
 30
0.0
 10
84.068012
 20
76.385326
 30
0.0
 10
84.046846
 20
76.712280
 30
0.0
 10
84.016749
 20
76.900629
 30
0.0
 10
84.004552
 20
76.950241
 30
0.0
 10
83.995159
 20
77.011153
 30
0.0
 10
83.988624
 20
77.081000
 30
0.0
 10
83.984999
 20
77.157417
 30
0.0
 10
83.984470
 20
77.238036
 30
0.0
 10
83.986852
 20
77.320496
 30
0.0
 10
83.992302
 20
77.402429
 30
0.0
 10
84.000874
 20
77.481471
 30
0.0
 10
84.008177
 20
77.566124
 30
0.0
 10
84.010029
 20
77.664134
 30
0.0
 10
84.007013
 20
77.771986
 30
0.0
 10
83.999313
 20
77.886178
 30
0.0
 10
83.987248
 20
78.003203
 30
0.0
 10
83.971109
 20
78.119553
 30
0.0
 10
83.951212
 20
78.231721
 30
0.0
 10
83.927876
 20
78.336200
 30
0.0
 10
83.904037
 20
78.441215
 30
0.0
 10
83.882500
 20
78.554936
 30
0.0
 10
83.863688
 20
78.673750
 30
0.0
 10
83.847998
 20
78.794040
 30
0.0
 10
83.835827
 20
78.912203
 30
0.0
 10
83.827599
 20
79.024624
 30
0.0
 10
83.823709
 20
79.127693
 30
0.0
 10
83.824503
 20
79.217799
 30
0.0
 10
83.826620
 20
79.365159
 30
0.0
 10
83.822492
 20
79.529161
 30
0.0
 10
83.812438
 20
79.706011
 30
0.0
 10
83.796828
 20
79.891918
 30
0.0
 10
83.776058
 20
80.083090
 30
0.0
 10
83.750473
 20
80.275736
 30
0.0
 10
83.720472
 20
80.466058
 30
0.0
 10
83.686428
 20
80.650269
 30
0.0
 10
83.674945
 20
80.710806
 30
0.0
 10
83.656980
 20
80.809038
 30
0.0
 10
83.633432
 20
80.939827
 30
0.0
 10
83.605240
 20
81.098037
 30
0.0
 10
83.573310
 20
81.278536
 30
0.0
 10
83.538557
 20
81.476182
 30
0.0
 10
83.501891
 20
81.685848
 30
0.0
 10
83.464228
 20
81.902391
 30
0.0
 10
83.363446
 20
82.477238
 30
0.0
 10
83.274241
 20
82.972620
 30
0.0
 10
83.195903
 20
83.392054
 30
0.0
 10
83.127720
 20
83.739065
 30
0.0
 10
83.068980
 20
84.017171
 30
0.0
 10
83.018971
 20
84.229896
 30
0.0
 10
82.976979
 20
84.380765
 30
0.0
 10
82.942295
 20
84.473292
 30
0.0
 10
82.924833
 20
84.517753
 30
0.0
 10
82.904539
 20
84.583806
 30
0.0
 10
82.882102
 20
84.668256
 30
0.0
 10
82.858263
 20
84.767908
 30
0.0
 10
82.833763
 20
84.879568
 30
0.0
 10
82.809315
 20
85.000040
 30
0.0
 10
82.785635
 20
85.126130
 30
0.0
 10
82.763463
 20
85.254641
 30
0.0
 10
82.738434
 20
85.393185
 30
0.0
 10
82.706615
 20
85.548011
 30
0.0
 10
82.669309
 20
85.713899
 30
0.0
 10
82.627817
 20
85.885619
 30
0.0
 10
82.583451
 20
86.057953
 30
0.0
 10
82.537514
 20
86.225678
 30
0.0
 10
82.491315
 20
86.383568
 30
0.0
 10
82.446162
 20
86.526398
 30
0.0
 10
82.403746
 20
86.657655
 30
0.0
 10
82.365416
 20
86.782374
 30
0.0
 10
82.331912
 20
86.897674
 30
0.0
 10
82.303972
 20
87.000663
 30
0.0
 10
82.282355
 20
87.088455
 30
0.0
 10
82.267777
 20
87.158165
 30
0.0
 10
82.260977
 20
87.206901
 30
0.0
 10
82.262829
 20
87.231772
 30
0.0
 10
82.258702
 20
87.308982
 30
0.0
 10
82.222726
 20
87.472138
 30
0.0
 10
82.161660
 20
87.699174
 30
0.0
 10
82.082251
 20
87.968025
 30
0.0
 10
81.991248
 20
88.256625
 30
0.0
 10
81.895389
 20
88.542914
 30
0.0
 10
81.801428
 20
88.804825
 30
0.0
 10
81.716105
 20
89.020294
 30
0.0
 10
81.679214
 20
89.111491
 30
0.0
 10
81.633351
 20
89.232225
 30
0.0
 10
81.580339
 20
89.377296
 30
0.0
 10
81.521996
 20
89.541510
 30
0.0
 10
81.460139
 20
89.719670
 30
0.0
 10
81.396591
 20
89.906577
 30
0.0
 10
81.333168
 20
90.097035
 30
0.0
 10
81.271689
 20
90.285849
 30
0.0
 10
81.207166
 20
90.482940
 30
0.0
 10
81.135011
 20
90.697131
 30
0.0
 10
81.057655
 20
90.921566
 30
0.0
 10
80.977531
 20
91.149394
 30
0.0
 10
80.897063
 20
91.373760
 30
0.0
 10
80.818688
 20
91.587816
 30
0.0
 10
80.744833
 20
91.784708
 30
0.0
 10
80.677925
 20
91.957582
 30
0.0
 10
80.615480
 20
92.118965
 30
0.0
 10
80.554412
 20
92.282914
 30
0.0
 10
80.496270
 20
92.444884
 30
0.0
 10
80.442604
 20
92.600334
 30
0.0
 10
80.394974
 20
92.744717
 30
0.0
 10
80.354924
 20
92.873493
 30
0.0
 10
80.324013
 20
92.982117
 30
0.0
 10
80.303799
 20
93.066043
 30
0.0
 10
80.286468
 20
93.138851
 30
0.0
 10
80.263926
 20
93.215607
 30
0.0
 10
80.237105
 20
93.293992
 30
0.0
 10
80.206948
 20
93.371693
 30
0.0
 10
80.174394
 20
93.446390
 30
0.0
 10
80.140384
 20
93.515771
 30
0.0
 10
80.105861
 20
93.577517
 30
0.0
 10
80.071764
 20
93.629315
 30
0.0
 10
80.031458
 20
93.695759
 30
0.0
 10
79.979131
 20
93.799489
 30
0.0
 10
79.916980
 20
93.935247
 30
0.0
 10
79.847210
 20
94.097770
 30
0.0
 10
79.772015
 20
94.281806
 30
0.0
 10
79.693595
 20
94.482091
 30
0.0
 10
79.614149
 20
94.693366
 30
0.0
 10
79.535880
 20
94.910374
 30
0.0
 10
79.456127
 20
95.131748
 30
0.0
 10
79.372476
 20
95.355541
 30
0.0
 10
79.287410
 20
95.575621
 30
0.0
 10
79.203410
 20
95.785865
 30
0.0
 10
79.122953
 20
95.980140
 30
0.0
 10
79.048520
 20
96.152323
 30
0.0
 10
78.982591
 20
96.296280
 30
0.0
 10
78.927648
 20
96.405889
 30
0.0
 10
78.874070
 20
96.512437
 30
0.0
 10
78.812057
 20
96.647618
 30
0.0
 10
78.743826
 20
96.805918
 30
0.0
 10
78.671600
 20
96.981816
 30
0.0
 10
78.597596
 20
97.169792
 30
0.0
 10
78.524034
 20
97.364332
 30
0.0
 10
78.453131
 20
97.559917
 30
0.0
 10
78.387112
 20
97.751028
 30
0.0
 10
78.319119
 20
97.945875
 30
0.0
 10
78.242549
 20
98.152160
 30
0.0
 10
78.160028
 20
98.363621
 30
0.0
 10
78.074179
 20
98.573983
 30
0.0
 10
77.987623
 20
98.776982
 30
0.0
 10
77.902983
 20
98.966347
 30
0.0
 10
77.822880
 20
99.135810
 30
0.0
 10
77.749942
 20
99.279100
 30
0.0
 10
77.683974
 20
99.405283
 30
0.0
 10
77.623847
 20
99.525702
 30
0.0
 10
77.570782
 20
99.637536
 30
0.0
 10
77.525988
 20
99.737956
 30
0.0
 10
77.490682
 20
99.824137
 30
0.0
 10
77.466076
 20
99.893251
 30
0.0
 10
77.453376
 20
99.942474
 30
0.0
 10
77.453905
 20
99.968980
 30
0.0
 10
77.454964
 20
99.995359
 30
0.0
 10
77.444169
 20
100.044265
 30
0.0
 10
77.422579
 20
100.112879
 30
0.0
 10
77.391255
 20
100.198387
 30
0.0
 10
77.351287
 20
100.297984
 30
0.0
 10
77.303757
 20
100.408852
 30
0.0
 10
77.249748
 20
100.528185
 30
0.0
 10
77.190335
 20
100.653169
 30
0.0
 10
77.125195
 20
100.791977
 30
0.0
 10
77.054781
 20
100.950920
 30
0.0
 10
76.981317
 20
101.124413
 30
0.0
 10
76.907033
 20
101.306877
 30
0.0
 10
76.834151
 20
101.492734
 30
0.0
 10
76.764899
 20
101.676400
 30
0.0
 10
76.701499
 20
101.852295
 30
0.0
 10
76.646183
 20
102.014842
 30
0.0
 10
76.586797
 20
102.181722
 30
0.0
 10
76.511722
 20
102.370055
 30
0.0
 10
76.424007
 20
102.573380
 30
0.0
 10
76.326698
 20
102.785242
 30
0.0
 10
76.222852
 20
102.999182
 30
0.0
 10
76.115513
 20
103.208745
 30
0.0
 10
76.007733
 20
103.407471
 30
0.0
 10
75.902561
 20
103.588906
 30
0.0
 10
75.803051
 20
103.756496
 30
0.0
 10
75.711518
 20
103.915547
 30
0.0
 10
75.629876
 20
104.062394
 30
0.0
 10
75.560034
 20
104.193360
 30
0.0
 10
75.503908
 20
104.304773
 30
0.0
 10
75.463411
 20
104.392962
 30
0.0
 10
75.440445
 20
104.454252
 30
0.0
 10
75.436952
 20
104.484976
 30
0.0
 10
75.415045
 20
104.596138
 30
0.0
 10
75.310021
 20
104.811154
 30
0.0
 10
75.137174
 20
105.106807
 30
0.0
 10
74.911807
 20
105.459881
 30
0.0
 10
74.649216
 20
105.847154
 30
0.0
 10
74.364694
 20
106.245407
 30
0.0
 10
74.073544
 20
106.631424
 30
0.0
 10
73.791059
 20
106.981981
 30
0.0
 10
73.605543
 20
107.195325
 30
0.0
 10
73.406238
 20
107.410370
 30
0.0
 10
73.194992
 20
107.625389
 30
0.0
 10
72.973650
 20
107.838662
 30
0.0
 10
72.744057
 20
108.048458
 30
0.0
 10
72.508060
 20
108.253058
 30
0.0
 10
72.267506
 20
108.450733
 30
0.0
 10
72.024240
 20
108.639760
 30
0.0
 10
71.730804
 20
108.860224
 30
0.0
 10
71.491237
 20
109.036063
 30
0.0
 10
71.292492
 20
109.174041
 30
0.0
 10
71.121519
 20
109.280919
 30
0.0
 10
70.965264
 20
109.363464
 30
0.0
 10
70.810678
 20
109.428440
 30
0.0
 10
70.644710
 20
109.482606
 30
0.0
 10
70.454311
 20
109.532728
 30
0.0
 10
70.454113
 20
109.532596
 30
0.0
 10
70.453914
 20
109.532464
 30
0.0
 10
70.453716
 20
109.532331
 30
0.0
 10
70.453517
 20
109.532199
 30
0.0
 10
70.453319
 20
109.532067
 30
0.0
 10
70.453120
 20
109.531935
 30
0.0
 10
70.452922
 20
109.531802
 30
0.0
 10
70.452723
 20
109.531670
 30
0.0
 10
70.422767
 20
109.538920
 30
0.0
 10
70.391978
 20
109.546275
 30
0.0
 10
70.360326
 20
109.553763
 30
0.0
 10
70.327785
 20
109.561356
 30
0.0
 10
70.294325
 20
109.569082
 30
0.0
 10
70.259916
 20
109.576967
 30
0.0
 10
70.224531
 20
109.584983
 30
0.0
 10
70.188140
 20
109.593159
 30
0.0
 10
69.937646
 20
109.646880
 30
0.0
 10
69.720743
 20
109.685996
 30
0.0
 10
69.522041
 20
109.710840
 30
0.0
 10
69.326162
 20
109.721741
 30
0.0
 10
69.117723
 20
109.719016
 30
0.0
 10
68.881337
 20
109.703009
 30
0.0
 10
68.601622
 20
109.674045
 30
0.0
 10
68.263193
 20
109.632455
 30
0.0
 10
67.747938
 20
109.554641
 30
0.0
 10
67.250085
 20
109.455189
 30
0.0
 10
66.767416
 20
109.333357
 30
0.0
 10
66.297715
 20
109.188392
 30
0.0
 10
65.838763
 20
109.019545
 30
0.0
 10
65.388347
 20
108.826071
 30
0.0
 10
64.944247
 20
108.607221
 30
0.0
 10
64.504250
 20
108.362249
 30
0.0
 10
63.962883
 20
108.035017
 30
0.0
 10
63.392958
 20
107.675859
 30
0.0
 10
62.823863
 20
107.304886
 30
0.0
 10
62.284994
 20
106.942217
 30
0.0
 10
61.805751
 20
106.607963
 30
0.0
 10
61.415525
 20
106.322245
 30
0.0
 10
61.143711
 20
106.105173
 30
0.0
 10
61.019709
 20
105.976866
 30
0.0
 10
60.999468
 20
105.949831
 30
0.0
 10
60.960828
 20
105.909474
 30
0.0
 10
60.906051
 20
105.857764
 30
0.0
 10
60.837389
 20
105.796669
 30
0.0
 10
60.757091
 20
105.728160
 30
0.0
 10
60.667403
 20
105.654204
 30
0.0
 10
60.570573
 20
105.576768
 30
0.0
 10
60.468851
 20
105.497824
 30
0.0
 10
60.279293
 20
105.351550
 30
0.0
 10
60.095477
 20
105.206296
 30
0.0
 10
59.905940
 20
105.052377
 30
0.0
 10
59.699208
 20
104.880102
 30
0.0
 10
59.463821
 20
104.679783
 30
0.0
 10
59.188308
 20
104.441732
 30
0.0
 10
58.861203
 20
104.156265
 30
0.0
 10
58.471038
 20
103.813691
 30
0.0
 10
58.317686
 20
103.679864
 30
0.0
 10
58.142727
 20
103.529065
 30
0.0
 10
57.952264
 20
103.366455
 30
0.0
 10
57.752387
 20
103.197198
 30
0.0
 10
57.549198
 20
103.026452
 30
0.0
 10
57.348787
 20
102.859384
 30
0.0
 10
57.157252
 20
102.701152
 30
0.0
 10
56.980690
 20
102.556920
 30
0.0
 10
56.452072
 20
102.123437
 30
0.0
 10
55.800879
 20
101.582407
 30
0.0
 10
55.076900
 20
100.975926
 30
0.0
 10
54.329917
 20
100.346096
 30
0.0
 10
53.609711
 20
99.735009
 30
0.0
 10
52.966067
 20
99.184766
 30
0.0
 10
52.448770
 20
98.737466
 30
0.0
 10
52.107603
 20
98.435206
 30
0.0
 10
52.026423
 20
98.360663
 30
0.0
 10
51.929975
 20
98.271257
 30
0.0
 10
51.821850
 20
98.170369
 30
0.0
 10
51.705634
 20
98.061382
 30
0.0
 10
51.584921
 20
97.947669
 30
0.0
 10
51.463300
 20
97.832618
 30
0.0
 10
51.344359
 20
97.719601
 30
0.0
 10
51.231689
 20
97.612000
 30
0.0
 10
51.119188
 20
97.504344
 30
0.0
 10
51.000742
 20
97.391166
 30
0.0
 10
50.879915
 20
97.275863
 30
0.0
 10
50.760262
 20
97.161822
 30
0.0
 10
50.645343
 20
97.052446
 30
0.0
 10
50.538713
 20
96.951121
 30
0.0
 10
50.443932
 20
96.861245
 30
0.0
 10
50.364557
 20
96.786212
 30
0.0
 10
50.287513
 20
96.711515
 30
0.0
 10
50.199417
 20
96.622596
 30
0.0
 10
50.103355
 20
96.522779
 30
0.0
 10
50.002416
 20
96.415385
 30
0.0
 10
49.899686
 20
96.303734
 30
0.0
 10
49.798256
 20
96.191145
 30
0.0
 10
49.701207
 20
96.080941
 30
0.0
 10
49.611632
 20
95.976441
 30
0.0
 10
49.525365
 20
95.876130
 30
0.0
 10
49.437822
 20
95.777919
 30
0.0
 10
49.351425
 20
95.684291
 30
0.0
 10
49.268600
 20
95.597733
 30
0.0
 10
49.191770
 20
95.520723
 30
0.0
 10
49.123359
 20
95.455747
 30
0.0
 10
49.065791
 20
95.405288
 30
0.0
 10
49.021487
 20
95.371829
 30
0.0
 10
48.974669
 20
95.334941
 30
0.0
 10
48.909888
 20
95.274634
 30
0.0
 10
48.830058
 20
95.194074
 30
0.0
 10
48.738102
 20
95.096424
 30
0.0
 10
48.636931
 20
94.984849
 30
0.0
 10
48.529465
 20
94.862516
 30
0.0
 10
48.418623
 20
94.732590
 30
0.0
 10
48.307318
 20
94.598232
 30
0.0
 10
48.192039
 20
94.459016
 30
0.0
 10
48.069818
 20
94.315160
 30
0.0
 10
47.944389
 20
94.170814
 30
0.0
 10
47.819490
 20
94.030124
 30
0.0
 10
47.698853
 20
93.897245
 30
0.0
 10
47.586217
 20
93.776317
 30
0.0
 10
47.485313
 20
93.671495
 30
0.0
 10
47.399879
 20
93.586923
 30
0.0
 10
47.321735
 20
93.508691
 30
0.0
 10
47.241735
 20
93.422051
 30
0.0
 10
47.162133
 20
93.329872
 30
0.0
 10
47.085187
 20
93.235041
 30
0.0
 10
47.013146
 20
93.140431
 30
0.0
 10
46.948267
 20
93.048919
 30
0.0
 10
46.892803
 20
92.963388
 30
0.0
 10
46.849009
 20
92.886709
 30
0.0
 10
46.800453
 20
92.806217
 30
0.0
 10
46.731259
 20
92.709742
 30
0.0
 10
46.644658
 20
92.600919
 30
0.0
 10
46.543875
 20
92.483388
 30
0.0
 10
46.432145
 20
92.360786
 30
0.0
 10
46.312690
 20
92.236746
 30
0.0
 10
46.188741
 20
92.114908
 30
0.0
 10
46.063527
 20
91.998907
 30
0.0
 10
45.938474
 20
91.883170
 30
0.0
 10
45.814983
 20
91.762089
 30
0.0
 10
45.696225
 20
91.639259
 30
0.0
 10
45.585364
 20
91.518268
 30
0.0
 10
45.485571
 20
91.402711
 30
0.0
 10
45.400008
 20
91.296174
 30
0.0
 10
45.331846
 20
91.202255
 30
0.0
 10
45.284247
 20
91.124541
 30
0.0
 10
45.237694
 20
91.045897
 30
0.0
 10
45.172127
 20
90.949408
 30
0.0
 10
45.090572
 20
90.838844
 30
0.0
 10
44.996055
 20
90.717975
 30
0.0
 10
44.891603
 20
90.590564
 30
0.0
 10
44.780240
 20
90.460382
 30
0.0
 10
44.664995
 20
90.331193
 30
0.0
 10
44.548891
 20
90.206768
 30
0.0
 10
44.432802
 20
90.082586
 30
0.0
 10
44.317605
 20
89.954078
 30
0.0
 10
44.206313
 20
89.824964
 30
0.0
 10
44.101946
 20
89.698958
 30
0.0
 10
44.007519
 20
89.579779
 30
0.0
 10
43.926048
 20
89.471142
 30
0.0
 10
43.860553
 20
89.376765
 30
0.0
 10
43.814053
 20
89.300364
 30
0.0
 10
43.772243
 20
89.230225
 30
0.0
 10
43.720128
 20
89.153774
 30
0.0
 10
43.659793
 20
89.073470
 30
0.0
 10
43.593314
 20
88.991780
 30
0.0
 10
43.522776
 20
88.911164
 30
0.0
 10
43.450259
 20
88.834088
 30
0.0
 10
43.377847
 20
88.763013
 30
0.0
 10
43.307624
 20
88.700400
 30
0.0
 10
43.230715
 20
88.630200
 30
0.0
 10
43.139159
 20
88.537369
 30
0.0
 10
43.036382
 20
88.425894
 30
0.0
 10
42.925810
 20
88.299760
 30
0.0
 10
42.810869
 20
88.162952
 30
0.0
 10
42.694984
 20
88.019460
 30
0.0
 10
42.581581
 20
87.873270
 30
0.0
 10
42.474084
 20
87.728365
 30
0.0
 10
42.362369
 20
87.577728
 30
0.0
 10
42.236858
 20
87.415096
 30
0.0
 10
42.101815
 20
87.245612
 30
0.0
 10
41.961499
 20
87.074411
 30
0.0
 10
41.820177
 20
86.906631
 30
0.0
 10
41.682112
 20
86.747415
 30
0.0
 10
41.551566
 20
86.601894
 30
0.0
 10
41.432803
 20
86.475214
 30
0.0
 10
41.320699
 20
86.355876
 30
0.0
 10
41.209280
 20
86.231422
 30
0.0
 10
41.101476
 20
86.105520
 30
0.0
 10
41.000217
 20
85.981843
 30
0.0
 10
40.908425
 20
85.864061
 30
0.0
 10
40.829032
 20
85.755839
 30
0.0
 10
40.764965
 20
85.660850
 30
0.0
 10
40.719150
 20
85.582761
 30
0.0
 10
40.677576
 20
85.509067
 30
0.0
 10
40.634253
 20
85.443598
 30
0.0
 10
40.589716
 20
85.386840
 30
0.0
 10
40.544509
 20
85.339271
 30
0.0
 10
40.499170
 20
85.301372
 30
0.0
 10
40.454236
 20
85.273620
 30
0.0
 10
40.410252
 20
85.256501
 30
0.0
 10
40.367752
 20
85.250495
 30
0.0
 10
40.291425
 20
85.261740
 30
0.0
 10
40.186046
 20
85.301282
 30
0.0
 10
40.039499
 20
85.376640
 30
0.0
 10
39.839662
 20
85.495330
 30
0.0
 10
39.574417
 20
85.664869
 30
0.0
 10
39.231644
 20
85.892779
 30
0.0
 10
38.799222
 20
86.186575
 30
0.0
 10
38.265037
 20
86.553774
 30
0.0
 10
38.079434
 20
86.679814
 30
0.0
 10
37.859933
 20
86.825507
 30
0.0
 10
37.614662
 20
86.985646
 30
0.0
 10
37.351750
 20
87.155029
 30
0.0
 10
37.079333
 20
87.328448
 30
0.0
 10
36.805539
 20
87.500699
 30
0.0
 10
36.538501
 20
87.666580
 30
0.0
 10
36.286347
 20
87.820880
 30
0.0
 10
35.504329
 20
88.280609
 30
0.0
 10
34.803009
 20
88.661850
 30
0.0
 10
34.179738
 20
88.965589
 30
0.0
 10
33.631867
 20
89.192810
 30
0.0
 10
33.156747
 20
89.344496
 30
0.0
 10
32.751726
 20
89.421633
 30
0.0
 10
32.414152
 20
89.425205
 30
0.0
 10
32.141380
 20
89.356191
 30
0.0
 10
32.058232
 20
89.315757
 30
0.0
 10
31.979783
 20
89.268902
 30
0.0
 10
31.906157
 20
89.215731
 30
0.0
 10
31.837484
 20
89.156361
 30
0.0
 10
31.773884
 20
89.090898
 30
0.0
 10
31.715488
 20
89.019453
 30
0.0
 10
31.662415
 20
88.942139
 30
0.0
 10
31.614798
 20
88.859062
 30
0.0
 10
31.575648
 20
88.788932
 30
0.0
 10
31.533838
 20
88.722741
 30
0.0
 10
31.490658
 20
88.662001
 30
0.0
 10
31.447409
 20
88.608211
 30
0.0
 10
31.405380
 20
88.562877
 30
0.0
 10
31.365867
 20
88.527508
 30
0.0
 10
31.330167
 20
88.503616
 30
0.0
 10
31.299571
 20
88.492689
 30
0.0
 10
31.262759
 20
88.496525
 30
0.0
 10
31.209295
 20
88.514966
 30
0.0
 10
31.141718
 20
88.546531
 30
0.0
 10
31.062565
 20
88.589748
 30
0.0
 10
30.974379
 20
88.643152
 30
0.0
 10
30.879695
 20
88.705268
 30
0.0
 10
30.781059
 20
88.774629
 30
0.0
 10
30.681004
 20
88.849762
 30
0.0
 10
30.568754
 20
88.934387
 30
0.0
 10
30.435172
 20
89.030936
 30
0.0
 10
30.285240
 20
89.136044
 30
0.0
 10
30.123934
 20
89.246336
 30
0.0
 10
29.956233
 20
89.358442
 30
0.0
 10
29.787114
 20
89.468990
 30
0.0
 10
29.621557
 20
89.574612
 30
0.0
 10
29.464540
 20
89.671934
 30
0.0
 10
29.290589
 20
89.779127
 30
0.0
 10
29.076523
 20
89.913030
 30
0.0
 10
28.830720
 20
90.068293
 30
0.0
 10
28.561570
 20
90.239571
 30
0.0
 10
28.277458
 20
90.421509
 30
0.0
 10
27.986765
 20
90.608757
 30
0.0
 10
27.697882
 20
90.795971
 30
0.0
 10
27.419189
 20
90.977795
 30
0.0
 10
27.146054
 20
91.154267
 30
0.0
 10
26.873097
 20
91.326133
 30
0.0
 10
26.607585
 20
91.489105
 30
0.0
 10
26.356789
 20
91.638902
 30
0.0
 10
26.127980
 20
91.771239
 30
0.0
 10
25.928427
 20
91.881826
 30
0.0
 10
25.765399
 20
91.966385
 30
0.0
 10
25.646168
 20
92.020627
 30
0.0
 10
25.552059
 20
92.059163
 30
0.0
 10
25.461028
 20
92.098745
 30
0.0
 10
25.375311
 20
92.138242
 30
0.0
 10
25.297141
 20
92.176530
 30
0.0
 10
25.228751
 20
92.212479
 30
0.0
 10
25.172375
 20
92.244964
 30
0.0
 10
25.130247
 20
92.272857
 30
0.0
 10
25.104601
 20
92.295029
 30
0.0
 10
25.065538
 20
92.322559
 30
0.0
 10
24.984933
 20
92.365821
 30
0.0
 10
24.867710
 20
92.422611
 30
0.0
 10
24.718793
 20
92.490731
 30
0.0
 10
24.543106
 20
92.567976
 30
0.0
 10
24.345575
 20
92.652150
 30
0.0
 10
24.131122
 20
92.741045
 30
0.0
 10
23.904673
 20
92.832464
 30
0.0
 10
23.669182
 20
92.926663
 30
0.0
 10
23.428810
 20
93.023530
 30
0.0
 10
23.190294
 20
93.120304
 30
0.0
 10
22.960372
 20
93.214231
 30
0.0
 10
22.745780
 20
93.302554
 30
0.0
 10
22.553257
 20
93.382514
 30
0.0
 10
22.389539
 20
93.451356
 30
0.0
 10
22.261365
 20
93.506323
 30
0.0
 10
21.893773
 20
93.658630
 30
0.0
 10
21.467162
 20
93.822892
 30
0.0
 10
21.009276
 20
93.989730
 30
0.0
 10
20.547858
 20
94.149761
 30
0.0
 10
20.110653
 20
94.293601
 30
0.0
 10
19.725405
 20
94.411870
 30
0.0
 10
19.419857
 20
94.495187
 30
0.0
 10
19.221755
 20
94.534168
 30
0.0
 10
19.129359
 20
94.538825
 30
0.0
 10
19.038216
 20
94.533560
 30
0.0
 10
18.946338
 20
94.517685
 30
0.0
 10
18.851735
 20
94.490507
 30
0.0
 10
18.752418
 20
94.451346
 30
0.0
 10
18.646400
 20
94.399519
 30
0.0
 10
18.531690
 20
94.334337
 30
0.0
 10
18.406301
 20
94.255115
 30
0.0
 10
18.258959
 20
94.154391
 30
0.0
 10
18.135399
 20
94.058090
 30
0.0
 10
18.027421
 20
93.955287
 30
0.0
 10
17.926825
 20
93.835047
 30
0.0
 10
17.825412
 20
93.686441
 30
0.0
 10
17.714982
 20
93.498542
 30
0.0
 10
17.587334
 20
93.260417
 30
0.0
 10
17.434269
 20
92.961139
 30
0.0
 10
17.332929
 20
92.763577
 30
0.0
 10
17.234884
 20
92.578157
 30
0.0
 10
17.142527
 20
92.409009
 30
0.0
 10
17.058252
 20
92.260263
 30
0.0
 10
16.984450
 20
92.136049
 30
0.0
 10
16.923513
 20
92.040497
 30
0.0
 10
16.877835
 20
91.977735
 30
0.0
 10
16.849807
 20
91.951885
 30
0.0
 10
16.818440
 20
91.960749
 30
0.0
 10
16.763204
 20
91.997463
 30
0.0
 10
16.687161
 20
92.059208
 30
0.0
 10
16.593375
 20
92.143155
 30
0.0
 10
16.484908
 20
92.246475
 30
0.0
 10
16.364823
 20
92.366334
 30
0.0
 10
16.236183
 20
92.499909
 30
0.0
 10
16.102050
 20
92.644364
 30
0.0
 10
15.947511
 20
92.806262
 30
0.0
 10
15.760347
 20
92.989817
 30
0.0
 10
15.547729
 20
93.188680
 30
0.0
 10
15.316829
 20
93.396508
 30
0.0
 10
15.074819
 20
93.606955
 30
0.0
 10
14.828869
 20
93.813668
 30
0.0
 10
14.586151
 20
94.010307
 30
0.0
 10
14.353837
 20
94.190522
 30
0.0
 10
14.025723
 20
94.436352
 30
0.0
 10
13.755277
 20
94.632411
 30
0.0
 10
13.528951
 20
94.786383
 30
0.0
 10
13.333197
 20
94.905937
 30
0.0
 10
13.154468
 20
94.998756
 30
0.0
 10
12.979216
 20
95.072516
 30
0.0
 10
12.793893
 20
95.134892
 30
0.0
 10
12.584951
 20
95.193563
 30
0.0
 10
12.235123
 20
95.275460
 30
0.0
 10
11.875902
 20
95.337359
 30
0.0
 10
11.495853
 20
95.379621
 30
0.0
 10
11.083536
 20
95.402587
 30
0.0
 10
10.627516
 20
95.406635
 30
0.0
 10
10.116353
 20
95.392109
 30
0.0
 10
9.538610
 20
95.359375
 30
0.0
 10
8.882851
 20
95.308781
 30
0.0
 10
8.184258
 20
95.246279
 30
0.0
 10
7.600572
 20
95.184364
 30
0.0
 10
7.094281
 20
95.115389
 30
0.0
 10
6.627871
 20
95.031720
 30
0.0
 10
6.163828
 20
94.925709
 30
0.0
 10
5.664640
 20
94.789716
 30
0.0
 10
5.092793
 20
94.616097
 30
0.0
 10
4.410774
 20
94.397210
 30
0.0
 10
3.835201
 20
94.206299
 30
0.0
 10
3.325107
 20
94.029187
 30
0.0
 10
2.871925
 20
93.862338
 30
0.0
 10
2.467085
 20
93.702218
 30
0.0
 10
2.102021
 20
93.545286
 30
0.0
 10
1.768166
 20
93.388009
 30
0.0
 10
1.456951
 20
93.226852
 30
0.0
 10
1.159809
 20
93.058275
 30
0.0
 10
0.989281
 20
92.964803
 30
0.0
 10
0.846509
 20
92.903571
 30
0.0
 10
0.730173
 20
92.874940
 30
0.0
 10
0.638954
 20
92.879279
 30
0.0
 10
0.571533
 20
92.916937
 30
0.0
 10
0.526591
 20
92.988280
 30
0.0
 10
0.502809
 20
93.093668
 30
0.0
 10
0.498867
 20
93.233464
 30
0.0
 10
0.499227
 20
93.364954
 30
0.0
 10
0.489814
 20
93.496454
 30
0.0
 10
0.468968
 20
93.634471
 30
0.0
 10
0.435025
 20
93.785506
 30
0.0
 10
0.386325
 20
93.956064
 30
0.0
 10
0.321205
 20
94.152647
 30
0.0
 10
0.238006
 20
94.381763
 30
0.0
 10
0.135064
 20
94.649916
 30
0.0
 10
0.006886
 20
94.973295
 30
0.0
 10
-0.099419
 20
95.221244
 30
0.0
 10
-0.195459
 20
95.407111
 30
0.0
 10
-0.292841
 20
95.544252
 30
0.0
 10
-0.403171
 20
95.646016
 30
0.0
 10
-0.538056
 20
95.725759
 30
0.0
 10
-0.709104
 20
95.796829
 30
0.0
 10
-0.927920
 20
95.872579
 30
0.0
 10
-1.123348
 20
95.936090
 30
0.0
 10
-1.286903
 20
95.982066
 30
0.0
 10
-1.433376
 20
96.010909
 30
0.0
 10
-1.577552
 20
96.023000
 30
0.0
 10
-1.734221
 20
96.018740
 30
0.0
 10
-1.918168
 20
95.998526
 30
0.0
 10
-2.144183
 20
95.962760
 30
0.0
 10
-2.427052
 20
95.911830
 30
0.0
 10
-2.620834
 20
95.876225
 30
0.0
 10
-2.830543
 20
95.838014
 30
0.0
 10
-3.049526
 20
95.798393
 30
0.0
 10
-3.271132
 20
95.758552
 30
0.0
 10
-3.488708
 20
95.719687
 30
0.0
 10
-3.695600
 20
95.682995
 30
0.0
 10
-3.885157
 20
95.649665
 30
0.0
 10
-4.050726
 20
95.620892
 30
0.0
 10
-4.208412
 20
95.593126
 30
0.0
 10
-4.375347
 20
95.562652
 30
0.0
 10
-4.546453
 20
95.530457
 30
0.0
 10
-4.716652
 20
95.497540
 30
0.0
 10
-4.880866
 20
95.464896
 30
0.0
 10
-5.034018
 20
95.433516
 30
0.0
 10
-5.171030
 20
95.404396
 30
0.0
 10
-5.286825
 20
95.378520
 30
0.0
 10
-5.413727
 20
95.349913
 30
0.0
 10
-5.582551
 20
95.312970
 30
0.0
 10
-5.785998
 20
95.269223
 30
0.0
 10
-6.016768
 20
95.220217
 30
0.0
 10
-6.267560
 20
95.167486
 30
0.0
 10
-6.531076
 20
95.112566
 30
0.0
 10
-6.800015
 20
95.056996
 30
0.0
 10
-7.067079
 20
95.002314
 30
0.0
 10
-7.593379
 20
94.881222
 30
0.0
 10
-8.168605
 20
94.724240
 30
0.0
 10
-8.774600
 20
94.537793
 30
0.0
 10
-9.393207
 20
94.328307
 30
0.0
 10
-10.006270
 20
94.102204
 30
0.0
 10
-10.595633
 20
93.865913
 30
0.0
 10
-11.143137
 20
93.625854
 30
0.0
 10
-11.630626
 20
93.388459
 30
0.0
 10
-11.766726
 20
93.318895
 30
0.0
 10
-11.898714
 20
93.253265
 30
0.0
 10
-12.023340
 20
93.193062
 30
0.0
 10
-12.137355
 20
93.139777
 30
0.0
 10
-12.237508
 20
93.094904
 30
0.0
 10
-12.320551
 20
93.059939
 30
0.0
 10
-12.383235
 20
93.036365
 30
0.0
 10
-12.422309
 20
93.025676
 30
0.0
 10
-12.451731
 20
93.030491
 30
0.0
 10
-12.486778
 20
93.051261
 30
0.0
 10
-12.526136
 20
93.086379
 30
0.0
 10
-12.568494
 20
93.134224
 30
0.0
 10
-12.612539
 20
93.193175
 30
0.0
 10
-12.656958
 20
93.261615
 30
0.0
 10
-12.700439
 20
93.337924
 30
0.0
 10
-12.741669
 20
93.420484
 30
0.0
 10
-12.847257
 20
93.622621
 30
0.0
 10
-12.962503
 20
93.790382
 30
0.0
 10
-13.093242
 20
93.927196
 30
0.0
 10
-13.245305
 20
94.036482
 30
0.0
 10
-13.424524
 20
94.121675
 30
0.0
 10
-13.636732
 20
94.186199
 30
0.0
 10
-13.887759
 20
94.233477
 30
0.0
 10
-14.183440
 20
94.266942
 30
0.0
 10
-14.324507
 20
94.277763
 30
0.0
 10
-14.462985
 20
94.285727
 30
0.0
 10
-14.595353
 20
94.290807
 30
0.0
 10
-14.718090
 20
94.292924
 30
0.0
 10
-14.827675
 20
94.292130
 30
0.0
 10
-14.920586
 20
94.288426
 30
0.0
 10
-14.993302
 20
94.281732
 30
0.0
 10
-15.042304
 20
94.272048
 30
0.0
 10
-15.099484
 20
94.256412
 30
0.0
 10
-15.195656
 20
94.232705
 30
0.0
 10
-15.325653
 20
94.202132
 30
0.0
 10
-15.484308
 20
94.165858
 30
0.0
 10
-15.666455
 20
94.125062
 30
0.0
 10
-15.866926
 20
94.080919
 30
0.0
 10
-16.080555
 20
94.034606
 30
0.0
 10
-16.302175
 20
93.987301
 30
0.0
 10
-16.960348
 20
93.835449
 30
0.0
 10
-17.653054
 20
93.651937
 30
0.0
 10
-18.372689
 20
93.439323
 30
0.0
 10
-19.111644
 20
93.200163
 30
0.0
 10
-19.862313
 20
92.937022
 30
0.0
 10
-20.617090
 20
92.652454
 30
0.0
 10
-21.368367
 20
92.349020
 30
0.0
 10
-22.108539
 20
92.029281
 30
0.0
 10
-22.360862
 20
91.908184
 30
0.0
 10
-22.723869
 20
91.723542
 30
0.0
 10
-23.153565
 20
91.498974
 30
0.0
 10
-23.605959
 20
91.258103
 30
0.0
 10
-24.037056
 20
91.024553
 30
0.0
 10
-24.402865
 20
90.821945
 30
0.0
 10
-24.659390
 20
90.673903
 30
0.0
 10
-24.762640
 20
90.604045
 30
0.0
 10
-24.782738
 20
90.583222
 30
0.0
 10
-24.828199
 20
90.546244
 30
0.0
 10
-24.896122
 20
90.495187
 30
0.0
 10
-24.983606
 20
90.432124
 30
0.0
 10
-25.087750
 20
90.359126
 30
0.0
 10
-25.205651
 20
90.278264
 30
0.0
 10
-25.334410
 20
90.191613
 30
0.0
 10
-25.471124
 20
90.101239
 30
0.0
 10
-25.618434
 20
90.003372
 30
0.0
 10
-25.777569
 20
89.895237
 30
0.0
 10
-25.943489
 20
89.780397
 30
0.0
 10
-26.111153
 20
89.662419
 30
0.0
 10
-26.275520
 20
89.544876
 30
0.0
 10
-26.431551
 20
89.431327
 30
0.0
 10
-26.574205
 20
89.325346
 30
0.0
 10
-26.698440
 20
89.230492
 30
0.0
 10
-26.813383
 20
89.142947
 30
0.0
 10
-26.929435
 20
89.057905
 30
0.0
 10
-27.043430
 20
88.977471
 30
0.0
 10
-27.152195
 20
88.903740
 30
0.0
 10
-27.252557
 20
88.838814
 30
0.0
 10
-27.341346
 20
88.784794
 30
0.0
 10
-27.415389
 20
88.743775
 30
0.0
 10
-27.471518
 20
88.717873
 30
0.0
 10
-27.520715
 20
88.695859
 30
0.0
 10
-27.574933
 20
88.665983
 30
0.0
 10
-27.632385
 20
88.629576
 30
0.0
 10
-27.691281
 20
88.587962
 30
0.0
 10
-27.749839
 20
88.542467
 30
0.0
 10
-27.806269
 20
88.494414
 30
0.0
 10
-27.858786
 20
88.445130
 30
0.0
 10
-27.905601
 20
88.395936
 30
0.0
 10
-27.951970
 20
88.347443
 30
0.0
 10
-28.003220
 20
88.300175
 30
0.0
 10
-28.057668
 20
88.255318
 30
0.0
 10
-28.113630
 20
88.214051
 30
0.0
 10
-28.169428
 20
88.177562
 30
0.0
 10
-28.223379
 20
88.147037
 30
0.0
 10
-28.273801
 20
88.123648
 30
0.0
 10
-28.319013
 20
88.108593
 30
0.0
 10
-28.375369
 20
88.098909
 30
0.0
 10
-28.422732
 20
88.101555
 30
0.0
 10
-28.462377
 20
88.118197
 30
0.0
 10
-28.495596
 20
88.150617
 30
0.0
 10
-28.523663
 20
88.200522
 30
0.0
 10
-28.547872
 20
88.269642
 30
0.0
 10
-28.569489
 20
88.359701
 30
0.0
 10
-28.589809
 20
88.472424
 30
0.0
 10
-28.638786
 20
88.691674
 30
0.0
 10
-28.714367
 20
88.921314
 30
0.0
 10
-28.811784
 20
89.152782
 30
0.0
 10
-28.926266
 20
89.377508
 30
0.0
 10
-29.053049
 20
89.586928
 30
0.0
 10
-29.187365
 20
89.772481
 30
0.0
 10
-29.324445
 20
89.925592
 30
0.0
 10
-29.459523
 20
90.037704
 30
0.0
 10
-29.701453
 20
90.175192
 30
0.0
 10
-29.970717
 20
90.283865
 30
0.0
 10
-30.261867
 20
90.363118
 30
0.0
 10
-30.569453
 20
90.412354
 30
0.0
 10
-30.888032
 20
90.430981
 30
0.0
 10
-31.212155
 20
90.418387
 30
0.0
 10
-31.536375
 20
90.373971
 30
0.0
 10
-31.855243
 20
90.297134
 30
0.0
 10
-32.552950
 20
90.050936
 30
0.0
 10
-33.278680
 20
89.724922
 30
0.0
 10
-34.003401
 20
89.338281
 30
0.0
 10
-34.698069
 20
88.910196
 30
0.0
 10
-35.333654
 20
88.459851
 30
0.0
 10
-35.881117
 20
88.006427
 30
0.0
 10
-36.311419
 20
87.569113
 30
0.0
 10
-36.595524
 20
87.167092
 30
0.0
 10
-36.679304
 20
87.026241
 30
0.0
 10
-36.755927
 20
86.929946
 30
0.0
 10
-36.824158
 20
86.877884
 30
0.0
 10
-36.882753
 20
86.869734
 30
0.0
 10
-36.930478
 20
86.905186
 30
0.0
 10
-36.966088
 20
86.983913
 30
0.0
 10
-36.988340
 20
87.105600
 30
0.0
 10
-36.996013
 20
87.269922
 30
0.0
 10
-37.005088
 20
87.451535
 30
0.0
 10
-37.032591
 20
87.632430
 30
0.0
 10
-37.078777
 20
87.809280
 30
0.0
 10
-37.143904
 20
87.978757
 30
0.0
 10
-37.228235
 20
88.137533
 30
0.0
 10
-37.332031
 20
88.282276
 30
0.0
 10
-37.455554
 20
88.409660
 30
0.0
 10
-37.599064
 20
88.516358
 30
0.0
 10
-37.830699
 20
88.631224
 30
0.0
 10
-38.077177
 20
88.703903
 30
0.0
 10
-38.328227
 20
88.737248
 30
0.0
 10
-38.573572
 20
88.734126
 30
0.0
 10
-38.802948
 20
88.697383
 30
0.0
 10
-39.006076
 20
88.629883
 30
0.0
 10
-39.172684
 20
88.534485
 30
0.0
 10
-39.292504
 20
88.414044
 30
0.0
 10
-39.448788
 20
88.199154
 30
0.0
 10
-39.629522
 20
87.971324
 30
0.0
 10
-39.833987
 20
87.743354
 30
0.0
 10
-40.061457
 20
87.528060
 30
0.0
 10
-40.311210
 20
87.338248
 30
0.0
 10
-40.582527
 20
87.186724
 30
0.0
 10
-40.874683
 20
87.086301
 30
0.0
 10
-41.186960
 20
87.049786
 30
0.0
 10
-41.589994
 20
87.090437
 30
0.0
 10
-41.965383
 20
87.206978
 30
0.0
 10
-42.305081
 20
87.391371
 30
0.0
 10
-42.601052
 20
87.635571
 30
0.0
 10
-42.845254
 20
87.931542
 30
0.0
 10
-43.029648
 20
88.271240
 30
0.0
 10
-43.146189
 20
88.646628
 30
0.0
 10
-43.186839
 20
89.049663
 30
0.0
 10
-43.186575
 20
89.352807
 30
0.0
 10
-43.189353
 20
89.602878
 30
0.0
 10
-43.200677
 20
89.812555
 30
0.0
 10
-43.226024
 20
89.994519
 30
0.0
 10
-43.270876
 20
90.161453
 30
0.0
 10
-43.340697
 20
90.326039
 30
0.0
 10
-43.440959
 20
90.500961
 30
0.0
 10
-43.577134
 20
90.698895
 30
0.0
 10
-43.892742
 20
91.123925
 30
0.0
 10
-44.222863
 20
91.555061
 30
0.0
 10
-44.565149
 20
91.988999
 30
0.0
 10
-44.917249
 20
92.422434
 30
0.0
 10
-45.276815
 20
92.852056
 30
0.0
 10
-45.641495
 20
93.274567
 30
0.0
 10
-46.008946
 20
93.686653
 30
0.0
 10
-46.376818
 20
94.085014
 30
0.0
 10
-46.645322
 20
94.365116
 30
0.0
 10
-47.033471
 20
94.763417
 30
0.0
 10
-47.498616
 20
95.236859
 30
0.0
 10
-47.998115
 20
95.742396
 30
0.0
 10
-48.489320
 20
96.236966
 30
0.0
 10
-48.929584
 20
96.677518
 30
0.0
 10
-49.276259
 20
97.021003
 30
0.0
 10
-49.486704
 20
97.224359
 30
0.0
 10
-50.090316
 20
97.770875
 30
0.0
 10
-50.766980
 20
98.359845
 30
0.0
 10
-51.485514
 20
98.966048
 30
0.0
 10
-52.214743
 20
99.564271
 30
0.0
 10
-52.923485
 20
100.129288
 30
0.0
 10
-53.580564
 20
100.635889
 30
0.0
 10
-54.154798
 20
101.058846
 30
0.0
 10
-54.615011
 20
101.372949
 30
0.0
 10
-54.760175
 20
101.467154
 30
0.0
 10
-54.915496
 20
101.570376
 30
0.0
 10
-55.076161
 20
101.679255
 30
0.0
 10
-55.237359
 20
101.790435
 30
0.0
 10
-55.394270
 20
101.900555
 30
0.0
 10
-55.542085
 20
102.006261
 30
0.0
 10
-55.675990
 20
102.104191
 30
0.0
 10
-55.791169
 20
102.190988
 30
0.0
 10
-56.079684
 20
102.409999
 30
0.0
 10
-56.423401
 20
102.666267
 30
0.0
 10
-56.810198
 20
102.951004
 30
0.0
 10
-57.227957
 20
103.255428
 30
0.0
 10
-57.664551
 20
103.570745
 30
0.0
 10
-58.107866
 20
103.888174
 30
0.0
 10
-58.545780
 20
104.198921
 30
0.0
 10
-58.966169
 20
104.494207
 30
0.0
 10
-59.155714
 20
104.626888
 30
0.0
 10
-59.350889
 20
104.764127
 30
0.0
 10
-59.546114
 20
104.901956
 30
0.0
 10
-59.735818
 20
105.036404
 30
0.0
 10
-59.914417
 20
105.163510
 30
0.0
 10
-60.076339
 20
105.279300
 30
0.0
 10
-60.216008
 20
105.379810
 30
0.0
 10
-60.327842
 20
105.461071
 30
0.0
 10
-60.427740
 20
105.532556
 30
0.0
 10
-60.533203
 20
105.605031
 30
0.0
 10
-60.641037
 20
105.676492
 30
0.0
 10
-60.748048
 20
105.744932
 30
0.0
 10
-60.851045
 20
105.808345
 30
0.0
 10
-60.946834
 20
105.864727
 30
0.0
 10
-61.032226
 20
105.912075
 30
0.0
 10
-61.104023
 20
105.948381
 30
0.0
 10
-61.175717
 20
105.984793
 30
0.0
 10
-61.260821
 20
106.032442
 30
0.0
 10
-61.356171
 20
106.089308
 30
0.0
 10
-61.458610
 20
106.153380
 30
0.0
 10
-61.564978
 20
106.222637
 30
0.0
 10
-61.672118
 20
106.295064
 30
0.0
 10
-61.776867
 20
106.368650
 30
0.0
 10
-61.876067
 20
106.441374
 30
0.0
 10
-62.057338
 20
106.571255
 30
0.0
 10
-62.291907
 20
106.728941
 30
0.0
 10
-62.576773
 20
106.912586
 30
0.0
 10
-62.908937
 20
107.120339
 30
0.0
 10
-63.285396
 20
107.350352
 30
0.0
 10
-63.703158
 20
107.600780
 30
0.0
 10
-64.159217
 20
107.869772
 30
0.0
 10
-64.650575
 20
108.155482
 30
0.0
 10
-65.769331
 20
108.765744
 30
0.0
 10
-66.887381
 20
109.306121
 30
0.0
 10
-67.991503
 20
109.772750
 30
0.0
 10
-69.068468
 20
110.161765
 30
0.0
 10
-70.105050
 20
110.469298
 30
0.0
 10
-71.088028
 20
110.691487
 30
0.0
 10
-72.004171
 20
110.824461
 30
0.0
 10
-72.840257
 20
110.864360
 30
0.0
 10
-72.840450
 20
110.864426
 30
0.0
 10
-72.840644
 20
110.864490
 30
0.0
 10
-72.840837
 20
110.864556
 30
0.0
 10
-72.841030
 20
110.864620
 30
0.0
 10
-72.841220
 20
110.864686
 30
0.0
 10
-72.841414
 20
110.864752
 30
0.0
 10
-72.841607
 20
110.864815
 30
0.0
  0
LWPOLYLINE
  5
101
100
AcDbEntity
  8
Calque_1
 62
7
100
AcDbPolyline
 90
32
 70
1
 10
-47.055767
 20
49.058741
 30
0.0
 10
-43.330736
 20
49.058741
 30
0.0
 10
-39.605704
 20
49.058741
 30
0.0
 10
-35.880675
 20
49.058741
 30
0.0
 10
-32.155643
 20
49.058741
 30
0.0
 10
-28.430612
 20
49.058741
 30
0.0
 10
-24.705581
 20
49.058741
 30
0.0
 10
-20.980550
 20
49.058741
 30
0.0
 10
-17.255519
 20
49.058741
 30
0.0
 10
-17.255519
 20
48.683763
 30
0.0
 10
-17.255519
 20
48.308788
 30
0.0
 10
-17.255519
 20
47.933810
 30
0.0
 10
-17.255519
 20
47.558832
 30
0.0
 10
-17.255519
 20
47.183854
 30
0.0
 10
-17.255519
 20
46.808878
 30
0.0
 10
-17.255519
 20
46.433900
 30
0.0
 10
-17.255519
 20
46.058922
 30
0.0
 10
-20.980550
 20
46.058922
 30
0.0
 10
-24.705581
 20
46.058922
 30
0.0
 10
-28.430612
 20
46.058922
 30
0.0
 10
-32.155643
 20
46.058922
 30
0.0
 10
-35.880675
 20
46.058922
 30
0.0
 10
-39.605704
 20
46.058922
 30
0.0
 10
-43.330736
 20
46.058922
 30
0.0
 10
-47.055767
 20
46.058922
 30
0.0
 10
-47.055767
 20
46.433900
 30
0.0
 10
-47.055767
 20
46.808878
 30
0.0
 10
-47.055767
 20
47.183854
 30
0.0
 10
-47.055767
 20
47.558832
 30
0.0
 10
-47.055767
 20
47.933810
 30
0.0
 10
-47.055767
 20
48.308788
 30
0.0
 10
-47.055767
 20
48.683763
 30
0.0
  0
LWPOLYLINE
  5
102
100
AcDbEntity
  8
Calque_1
 62
7
100
AcDbPolyline
 90
32
 70
1
 10
17.254003
 20
49.058741
 30
0.0
 10
20.979034
 20
49.058741
 30
0.0
 10
24.704065
 20
49.058741
 30
0.0
 10
28.429096
 20
49.058741
 30
0.0
 10
32.154127
 20
49.058741
 30
0.0
 10
35.879159
 20
49.058741
 30
0.0
 10
39.604191
 20
49.058741
 30
0.0
 10
43.329220
 20
49.058741
 30
0.0
 10
47.054251
 20
49.058741
 30
0.0
 10
47.054251
 20
48.683763
 30
0.0
 10
47.054251
 20
48.308788
 30
0.0
 10
47.054251
 20
47.933810
 30
0.0
 10
47.054251
 20
47.558832
 30
0.0
 10
47.054251
 20
47.183854
 30
0.0
 10
47.054251
 20
46.808878
 30
0.0
 10
47.054251
 20
46.433900
 30
0.0
 10
47.054251
 20
46.058922
 30
0.0
 10
43.329220
 20
46.058922
 30
0.0
 10
39.604191
 20
46.058922
 30
0.0
 10
35.879159
 20
46.058922
 30
0.0
 10
32.154127
 20
46.058922
 30
0.0
 10
28.429096
 20
46.058922
 30
0.0
 10
24.704065
 20
46.058922
 30
0.0
 10
20.979034
 20
46.058922
 30
0.0
 10
17.254003
 20
46.058922
 30
0.0
 10
17.254003
 20
46.433900
 30
0.0
 10
17.254003
 20
46.808878
 30
0.0
 10
17.254003
 20
47.183854
 30
0.0
 10
17.254003
 20
47.558832
 30
0.0
 10
17.254003
 20
47.933810
 30
0.0
 10
17.254003
 20
48.308788
 30
0.0
 10
17.254003
 20
48.683763
 30
0.0
  0
LWPOLYLINE
  5
103
100
AcDbEntity
  8
Calque_1
 62
7
100
AcDbPolyline
 90
32
 70
1
 10
-32.500583
 20
37.983971
 30
0.0
 10
-31.492928
 20
37.882331
 30
0.0
 10
-30.554403
 20
37.590940
 30
0.0
 10
-29.705117
 20
37.129904
 30
0.0
 10
-28.965173
 20
36.519328
 30
0.0
 10
-28.354674
 20
35.779317
 30
0.0
 10
-27.893722
 20
34.929983
 30
0.0
 10
-27.602426
 20
33.991432
 30
0.0
 10
-27.500890
 20
32.983769
 30
0.0
 10
-27.602516
 20
31.976188
 30
0.0
 10
-27.893873
 20
31.037711
 30
0.0
 10
-28.354851
 20
30.188452
 30
0.0
 10
-28.965356
 20
29.448544
 30
0.0
 10
-29.705281
 20
28.838045
 30
0.0
 10
-30.554530
 20
28.377061
 30
0.0
 10
-31.492997
 20
28.085702
 30
0.0
 10
-32.500583
 20
27.984076
 30
0.0
 10
-33.508249
 20
28.085596
 30
0.0
 10
-34.446803
 20
28.376903
 30
0.0
 10
-35.296136
 20
28.837860
 30
0.0
 10
-36.036147
 20
29.448359
 30
0.0
 10
-36.646723
 20
30.188293
 30
0.0
 10
-37.107762
 20
31.037579
 30
0.0
 10
-37.399153
 20
31.976109
 30
0.0
 10
-37.500795
 20
32.983769
 30
0.0
 10
-37.399243
 20
33.991504
 30
0.0
 10
-37.107910
 20
34.930110
 30
0.0
 10
-36.646900
 20
35.779481
 30
0.0
 10
-36.036329
 20
36.519505
 30
0.0
 10
-35.296300
 20
37.130076
 30
0.0
 10
-34.446927
 20
37.591083
 30
0.0
 10
-33.508318
 20
37.882416
 30
0.0
  0
LWPOLYLINE
  5
104
100
AcDbEntity
  8
Calque_1
 62
7
100
AcDbPolyline
 90
32
 70
1
 10
32.499067
 20
37.983971
 30
0.0
 10
33.506802
 20
37.882416
 30
0.0
 10
34.445411
 20
37.591083
 30
0.0
 10
35.294784
 20
37.130076
 30
0.0
 10
36.034813
 20
36.519505
 30
0.0
 10
36.645384
 20
35.779481
 30
0.0
 10
37.106394
 20
34.930110
 30
0.0
 10
37.397727
 20
33.991504
 30
0.0
 10
37.499279
 20
32.983769
 30
0.0
 10
37.397637
 20
31.976109
 30
0.0
 10
37.106246
 20
31.037579
 30
0.0
 10
36.645207
 20
30.188293
 30
0.0
 10
36.034631
 20
29.448359
 30
0.0
 10
35.294620
 20
28.837860
 30
0.0
 10
34.445287
 20
28.376903
 30
0.0
 10
33.506733
 20
28.085596
 30
0.0
 10
32.499067
 20
27.984076
 30
0.0
 10
31.491481
 20
28.085702
 30
0.0
 10
30.553012
 20
28.377061
 30
0.0
 10
29.703765
 20
28.838045
 30
0.0
 10
28.963837
 20
29.448544
 30
0.0
 10
28.353332
 20
30.188452
 30
0.0
 10
27.892354
 20
31.037711
 30
0.0
 10
27.600997
 20
31.976188
 30
0.0
 10
27.499371
 20
32.983769
 30
0.0
 10
27.600907
 20
33.991432
 30
0.0
 10
27.892203
 20
34.929983
 30
0.0
 10
28.353155
 20
35.779317
 30
0.0
 10
28.963654
 20
36.519328
 30
0.0
 10
29.703601
 20
37.129904
 30
0.0
 10
30.552887
 20
37.590940
 30
0.0
 10
31.491412
 20
37.882331
 30
0.0
  0
LWPOLYLINE
  5
105
100
AcDbEntity
  8
Calque_1
 62
7
100
AcDbPolyline
 90
32
 70
1
 10
-9.900928
 20
3.058976
 30
0.0
 10
-7.425886
 20
3.058976
 30
0.0
 10
-4.950843
 20
3.058976
 30
0.0
 10
-2.475801
 20
3.058976
 30
0.0
 10
-0.000758
 20
3.058976
 30
0.0
 10
2.474284
 20
3.058976
 30
0.0
 10
4.949327
 20
3.058976
 30
0.0
 10
7.424369
 20
3.058976
 30
0.0
 10
9.899412
 20
3.058976
 30
0.0
 10
9.899412
 20
2.684009
 30
0.0
 10
9.899412
 20
2.309015
 30
0.0
 10
9.899412
 20
1.934047
 30
0.0
 10
9.899412
 20
1.559053
 30
0.0
 10
9.899412
 20
1.184086
 30
0.0
 10
9.899412
 20
0.809118
 30
0.0
 10
9.899412
 20
0.434124
 30
0.0
 10
9.899412
 20
0.059157
 30
0.0
 10
7.424369
 20
0.059157
 30
0.0
 10
4.949327
 20
0.059157
 30
0.0
 10
2.474284
 20
0.059157
 30
0.0
 10
-0.000758
 20
0.059157
 30
0.0
 10
-2.475801
 20
0.059157
 30
0.0
 10
-4.950843
 20
0.059157
 30
0.0
 10
-7.425886
 20
0.059157
 30
0.0
 10
-9.900928
 20
0.059157
 30
0.0
 10
-9.900928
 20
0.434124
 30
0.0
 10
-9.900928
 20
0.809118
 30
0.0
 10
-9.900928
 20
1.184086
 30
0.0
 10
-9.900928
 20
1.559053
 30
0.0
 10
-9.900928
 20
1.934047
 30
0.0
 10
-9.900928
 20
2.309015
 30
0.0
 10
-9.900928
 20
2.684009
 30
0.0
  0
ENDSEC
  0
SECTION
  2
OBJECTS
  0
DICTIONARY
  5
C
330
0
100
AcDbDictionary
  3
ACAD_GROUP
350
D
  3
ACAD_MLINESTYLE
350
17
  0
DICTIONARY
  5
D
330
C
100
AcDbDictionary
  0
DICTIONARY
  5
1A
330
C
100
AcDbDictionary
  0
DICTIONARY
  5
17
330
C
100
AcDbDictionary
  3
STANDARD
350
18
  0
DICTIONARY
  5
19
330
C
100
AcDbDictionary
  0
ENDSEC
  0
EOF
