  0
SECTION
  2
HEADER
  9
$ACADVER
  1
AC1014
  9
$HANDSEED
  5
FFFF
  9
$MEASUREMENT
 70
     1
  0
ENDSEC
  0
SECTION
  2
TABLES
  0
TABLE
  2
VPORT
  5
8
330
0
100
AcDbSymbolTable
 70
     4
  0
VPORT
  5
2E
330
8
100
AcDbSymbolTableRecord
100
AcDbViewportTableRecord
  2
*ACTIVE
 70
     0
 10
0.0
 20
0.0
 11
1.0
 21
1.0
 12
210.0
 22
148.5
 13
0.0
 23
0.0
 14
10.0
 24
10.0
 15
10.0
 25
10.0
 16
0.0
 26
0.0
 36
1.0
 17
0.0
 27
0.0
 37
0.0
 40
341.0
 41
1.24
 42
50.0
 43
0.0
 44
0.0
 50
0.0
 51
0.0
 71
     0
 72
   100
 73
     1
 74
     3
 75
     0
 76
     0
 77
     0
 78
     0
  0
ENDTAB
  0
TABLE
  2
LTYPE
  5
5
330
0
100
AcDbSymbolTable
 70
     1
  0
LTYPE
  5
14
330
5
100
AcDbSymbolTableRecord
100
AcDbLinetypeTableRecord
  2
BYBLOCK
 70
     0
  3

 72
    65
 73
     0
 40
0.0
  0
LTYPE
  5
15
330
5
100
AcDbSymbolTableRecord
100
AcDbLinetypeTableRecord
  2
BYLAYER
 70
     0
  3

 72
    65
 73
     0
 40
0.0
  0
LTYPE
  5
16
330
5
100
AcDbSymbolTableRecord
100
AcDbLinetypeTableRecord
  2
CONTINUOUS
 70
     0
  3
Solid line
 72
    65
 73
     0
 40
0.0
  0
ENDTAB
  0
TABLE
  2
LAYER
  5
2
100
AcDbSymbolTable
 70
2
  0
LAYER
  5
50
100
AcDbSymbolTableRecord
100
AcDbLayerTableRecord
  2
0
 70
0
  6
CONTINUOUS
  0
LAYER
  5
51
100
AcDbSymbolTableRecord
100
AcDbLayerTableRecord
  2
Calque_1
 70
0
  6
CONTINUOUS
  0
ENDTAB
  0
TABLE
  2
STYLE
  5
3
330
0
100
AcDbSymbolTable
 70
     1
  0
STYLE
  5
11
330
3
100
AcDbSymbolTableRecord
100
AcDbTextStyleTableRecord
  2
STANDARD
 70
     0
 40
0.0
 41
1.0
 50
0.0
 71
     0
 42
2.5
  3
txt
  4

  0
ENDTAB
  0
TABLE
  2
VIEW
  5
6
330
0
100
AcDbSymbolTable
 70
     0
  0
ENDTAB
  0
TABLE
  2
UCS
  5
7
330
0
100
AcDbSymbolTable
 70
     0
  0
ENDTAB
  0
TABLE
  2
APPID
  5
9
330
0
100
AcDbSymbolTable
 70
     2
  0
APPID
  5
12
330
9
100
AcDbSymbolTableRecord
100
AcDbRegAppTableRecord
  2
ACAD
 70
     0
  0
ENDTAB
  0
TABLE
  2
DIMSTYLE
  5
A
330
0
100
AcDbSymbolTable
 70
     1
  0
DIMSTYLE
105
27
330
A
100
AcDbSymbolTableRecord
100
AcDbDimStyleTableRecord
  2
ISO-25
 70
     0
  3

  4

  5

  6

  7

 40
1.0
 41
2.5
 42
0.625
 43
3.75
 44
1.25
 45
0.0
 46
0.0
 47
0.0
 48
0.0
140
2.5
141
2.5
142
0.0
143
0.03937007874016
144
1.0
145
0.0
146
1.0
147
0.625
 71
     0
 72
     0
 73
     0
 74
     0
 75
     0
 76
     0
 77
     1
 78
     8
170
     0
171
     3
172
     1
173
     0
174
     0
175
     0
176
     0
177
     0
178
     0
270
     2
271
     2
272
     2
273
     2
274
     3
340
11
275
     0
280
     0
281
     0
282
     0
283
     0
284
     8
285
     0
286
     0
287
     3
288
     0
  0
ENDTAB
  0
TABLE
  2
BLOCK_RECORD
  5
1
330
0
100
AcDbSymbolTable
 70
     1
  0
BLOCK_RECORD
  5
1F
330
1
100
AcDbSymbolTableRecord
100
AcDbBlockTableRecord
  2
*MODEL_SPACE
  0
BLOCK_RECORD
  5
1B
330
1
100
AcDbSymbolTableRecord
100
AcDbBlockTableRecord
  2
*PAPER_SPACE
  0
ENDTAB
  0
ENDSEC
  0
SECTION
  2
BLOCKS
  0
BLOCK
  5
20
330
1F
100
AcDbEntity
  8
0
100
AcDbBlockBegin
  2
*MODEL_SPACE
 70
     0
 10
0.0
 20
0.0
 30
0.0
  3
*MODEL_SPACE
  1

  0
ENDBLK
  5
21
330
1F
100
AcDbEntity
  8
0
100
AcDbBlockEnd
  0
BLOCK
  5
1C
330
1B
100
AcDbEntity
 67
     1
  8
0
100
AcDbBlockBegin
  2
*PAPER_SPACE
  1

  0
ENDBLK
  5
1D
330
1B
100
AcDbEntity
 67
     1
  8
0
100
AcDbBlockEnd
  0
ENDSEC
  0
SECTION
  2
ENTITIES
  0
LWPOLYLINE
  5
100
100
AcDbEntity
  8
Calque_1
 62
7
100
AcDbPolyline
 90
94
 70
1
 10
25.999666
 20
160.000605
 30
0.0
 10
25.999666
 20
156.100583
 30
0.0
 10
29.000003
 20
156.100583
 30
0.0
 10
29.000003
 20
147.900569
 30
0.0
 10
25.999666
 20
147.900569
 30
0.0
 10
25.999666
 20
140.100528
 30
0.0
 10
29.000003
 20
140.100528
 30
0.0
 10
29.000003
 20
131.901027
 30
0.0
 10
25.999666
 20
131.901027
 30
0.0
 10
25.999666
 20
124.100986
 30
0.0
 10
29.000003
 20
124.100986
 30
0.0
 10
29.000003
 20
115.900971
 30
0.0
 10
25.999666
 20
115.900971
 30
0.0
 10
25.999666
 20
108.100930
 30
0.0
 10
29.000003
 20
108.100930
 30
0.0
 10
29.000003
 20
99.900913
 30
0.0
 10
25.999666
 20
99.900913
 30
0.0
 10
25.999666
 20
92.100872
 30
0.0
 10
29.000003
 20
92.100872
 30
0.0
 10
29.000003
 20
83.900855
 30
0.0
 10
25.999666
 20
83.900855
 30
0.0
 10
25.999666
 20
76.100817
 30
0.0
 10
29.000003
 20
76.100817
 30
0.0
 10
29.000003
 20
67.900800
 30
0.0
 10
25.999666
 20
67.900800
 30
0.0
 10
25.999666
 20
60.100759
 30
0.0
 10
29.000003
 20
60.100759
 30
0.0
 10
29.000003
 20
51.900742
 30
0.0
 10
25.999666
 20
51.900742
 30
0.0
 10
25.999666
 20
44.100701
 30
0.0
 10
29.000003
 20
44.100701
 30
0.0
 10
29.000003
 20
35.900687
 30
0.0
 10
25.999666
 20
35.900687
 30
0.0
 10
25.999666
 20
28.100625
 30
0.0
 10
29.000003
 20
28.100625
 30
0.0
 10
29.000003
 20
19.900631
 30
0.0
 10
25.999666
 20
19.900631
 30
0.0
 10
25.999666
 20
12.100583
 30
0.0
 10
29.000003
 20
12.100583
 30
0.0
 10
29.000003
 20
3.900563
 30
0.0
 10
25.999666
 20
3.900563
 30
0.0
 10
25.999666
 20
0.000552
 30
0.0
 10
18.399613
 20
0.000552
 30
0.0
 10
18.399613
 20
3.000371
 30
0.0
 10
10.599575
 20
3.000371
 30
0.0
 10
10.599575
 20
0.000552
 30
0.0
 10
2.399559
 20
0.000552
 30
0.0
 10
2.399559
 20
3.000371
 30
0.0
 10
-5.400482
 20
3.000371
 30
0.0
 10
-5.400482
 20
0.000552
 30
0.0
 10
-13.600499
 20
0.000552
 30
0.0
 10
-13.600499
 20
3.000371
 30
0.0
 10
-21.400540
 20
3.000371
 30
0.0
 10
-21.400540
 20
0.000552
 30
0.0
 10
-29.000074
 20
0.000552
 30
0.0
 10
-29.000074
 20
15.100402
 30
0.0
 10
-26.000257
 20
15.100402
 30
0.0
 10
-26.000257
 20
22.900424
 30
0.0
 10
-29.000074
 20
22.900424
 30
0.0
 10
-29.000074
 20
31.100444
 30
0.0
 10
-26.000257
 20
31.100444
 30
0.0
 10
-26.000257
 20
38.900504
 30
0.0
 10
-29.000074
 20
38.900504
 30
0.0
 10
-29.000074
 20
124.100470
 30
0.0
 10
-26.000257
 20
124.100470
 30
0.0
 10
-26.000257
 20
131.900511
 30
0.0
 10
-29.000074
 20
131.900511
 30
0.0
 10
-29.000074
 20
140.100009
 30
0.0
 10
-26.000257
 20
140.100009
 30
0.0
 10
-26.000257
 20
147.900569
 30
0.0
 10
-29.000074
 20
147.900569
 30
0.0
 10
-29.000074
 20
160.000605
 30
0.0
 10
-26.000257
 20
160.000605
 30
0.0
 10
-26.000257
 20
154.000453
 30
0.0
 10
-22.999925
 20
154.000453
 30
0.0
 10
-22.999925
 20
160.000605
 30
0.0
 10
-21.400540
 20
160.000605
 30
0.0
 10
-21.400540
 20
160.000076
 30
0.0
 10
-21.400540
 20
157.000777
 30
0.0
 10
-13.600499
 20
157.000777
 30
0.0
 10
-13.600499
 20
160.000076
 30
0.0
 10
-13.600499
 20
160.000605
 30
0.0
 10
-5.400482
 20
160.000605
 30
0.0
 10
-5.400482
 20
160.000076
 30
0.0
 10
-5.400482
 20
157.000259
 30
0.0
 10
2.399559
 20
157.000259
 30
0.0
 10
2.399559
 20
160.000076
 30
0.0
 10
2.399559
 20
160.000605
 30
0.0
 10
10.599575
 20
160.000605
 30
0.0
 10
10.599575
 20
160.000076
 30
0.0
 10
10.599575
 20
157.000259
 30
0.0
 10
18.399613
 20
157.000259
 30
0.0
 10
18.399613
 20
160.000076
 30
0.0
 10
18.399613
 20
160.000605
 30
0.0
  0
LWPOLYLINE
  5
101
100
AcDbEntity
  8
Calque_1
 62
7
100
AcDbPolyline
 90
16
 70
1
 10
-15.200400
 20
146.999848
 30
0.0
 10
-16.368032
 20
146.764059
 30
0.0
 10
-17.321537
 20
146.121169
 30
0.0
 10
-17.964428
 20
145.167664
 30
0.0
 10
-18.200217
 20
144.000031
 30
0.0
 10
-17.964428
 20
142.832398
 30
0.0
 10
-17.321537
 20
141.878893
 30
0.0
 10
-16.368032
 20
141.236003
 30
0.0
 10
-15.200400
 20
141.000214
 30
0.0
 10
-14.032602
 20
141.235855
 30
0.0
 10
-13.078929
 20
141.878710
 30
0.0
 10
-12.435909
 20
142.832274
 30
0.0
 10
-12.200067
 20
144.000031
 30
0.0
 10
-12.435909
 20
145.167788
 30
0.0
 10
-13.078929
 20
146.121352
 30
0.0
 10
-14.032602
 20
146.764207
 30
0.0
  0
LWPOLYLINE
  5
102
100
AcDbEntity
  8
Calque_1
 62
7
100
AcDbPolyline
 90
4
 70
1
 10
21.899659
 20
139.000335
 30
0.0
 10
14.099618
 20
139.000335
 30
0.0
 10
14.099618
 20
136.000518
 30
0.0
 10
21.899659
 20
136.000518
 30
0.0
  0
LWPOLYLINE
  5
103
100
AcDbEntity
  8
Calque_1
 62
7
100
AcDbPolyline
 90
4
 70
1
 10
5.899602
 20
139.000335
 30
0.0
 10
-1.900436
 20
139.000335
 30
0.0
 10
-1.900436
 20
136.000518
 30
0.0
 10
5.899602
 20
136.000518
 30
0.0
  0
LWPOLYLINE
  5
104
100
AcDbEntity
  8
Calque_1
 62
7
100
AcDbPolyline
 90
16
 70
1
 10
-15.200400
 20
136.000518
 30
0.0
 10
-16.368157
 20
135.764676
 30
0.0
 10
-17.321719
 20
135.121657
 30
0.0
 10
-17.964576
 20
134.167982
 30
0.0
 10
-18.200217
 20
133.000185
 30
0.0
 10
-17.964428
 20
131.832552
 30
0.0
 10
-17.321537
 20
130.879047
 30
0.0
 10
-16.368032
 20
130.236157
 30
0.0
 10
-15.200400
 20
130.000368
 30
0.0
 10
-14.032602
 20
130.236009
 30
0.0
 10
-13.078929
 20
130.878864
 30
0.0
 10
-12.435909
 20
131.832428
 30
0.0
 10
-12.200067
 20
133.000185
 30
0.0
 10
-12.435760
 20
134.168109
 30
0.0
 10
-13.078747
 20
135.121839
 30
0.0
 10
-14.032477
 20
135.764824
 30
0.0
  0
LWPOLYLINE
  5
105
100
AcDbEntity
  8
Calque_1
 62
7
100
AcDbPolyline
 90
24
 70
1
 10
-13.200523
 20
125.000156
 30
0.0
 10
-14.200462
 20
125.000156
 30
0.0
 10
-15.200401
 20
125.000156
 30
0.0
 10
-16.200341
 20
125.000156
 30
0.0
 10
-17.200280
 20
125.000156
 30
0.0
 10
-18.370157
 20
124.765153
 30
0.0
 10
-19.323438
 20
124.123499
 30
0.0
 10
-19.965093
 20
123.170218
 30
0.0
 10
-20.200096
 20
122.000339
 30
0.0
 10
-19.965093
 20
120.830463
 30
0.0
 10
-19.323438
 20
119.877183
 30
0.0
 10
-18.370157
 20
119.235526
 30
0.0
 10
-17.200280
 20
119.000523
 30
0.0
 10
-16.200341
 20
119.000523
 30
0.0
 10
-15.200401
 20
119.000523
 30
0.0
 10
-14.200462
 20
119.000523
 30
0.0
 10
-13.200523
 20
119.000523
 30
0.0
 10
-12.030564
 20
119.235526
 30
0.0
 10
-11.077106
 20
119.877183
 30
0.0
 10
-10.435274
 20
120.830463
 30
0.0
 10
-10.200190
 20
122.000339
 30
0.0
 10
-10.435274
 20
123.170218
 30
0.0
 10
-11.077106
 20
124.123502
 30
0.0
 10
-12.030564
 20
124.765159
 30
0.0
  0
LWPOLYLINE
  5
106
100
AcDbEntity
  8
Calque_1
 62
7
100
AcDbPolyline
 90
4
 70
1
 10
-8.000323
 20
107.400713
 30
0.0
 10
-11.000140
 20
107.400713
 30
0.0
 10
-11.000140
 20
99.600675
 30
0.0
 10
-8.000323
 20
99.600675
 30
0.0
  0
LWPOLYLINE
  5
107
100
AcDbEntity
  8
Calque_1
 62
7
100
AcDbPolyline
 90
4
 70
1
 10
21.899659
 20
93.000559
 30
0.0
 10
14.099618
 20
93.000559
 30
0.0
 10
14.099618
 20
90.000742
 30
0.0
 10
21.899659
 20
90.000742
 30
0.0
  0
LWPOLYLINE
  5
108
100
AcDbEntity
  8
Calque_1
 62
7
100
AcDbPolyline
 90
4
 70
1
 10
5.899602
 20
93.000559
 30
0.0
 10
-1.900436
 20
93.000559
 30
0.0
 10
-1.900436
 20
90.000742
 30
0.0
 10
5.899602
 20
90.000742
 30
0.0
  0
LWPOLYLINE
  5
109
100
AcDbEntity
  8
Calque_1
 62
7
100
AcDbPolyline
 90
4
 70
1
 10
-8.000323
 20
91.400658
 30
0.0
 10
-11.000140
 20
91.400658
 30
0.0
 10
-11.000140
 20
83.600617
 30
0.0
 10
-8.000323
 20
83.600617
 30
0.0
  0
LWPOLYLINE
  5
10a
100
AcDbEntity
  8
Calque_1
 62
7
100
AcDbPolyline
 90
4
 70
1
 10
-8.000323
 20
75.400600
 30
0.0
 10
-11.000140
 20
75.400600
 30
0.0
 10
-11.000140
 20
67.600559
 30
0.0
 10
-8.000323
 20
67.600559
 30
0.0
  0
LWPOLYLINE
  5
10b
100
AcDbEntity
  8
Calque_1
 62
7
100
AcDbPolyline
 90
4
 70
1
 10
12.899693
 20
44.000450
 30
0.0
 10
5.099653
 20
44.000450
 30
0.0
 10
5.099653
 20
41.000115
 30
0.0
 10
12.899693
 20
41.000115
 30
0.0
  0
LWPOLYLINE
  5
10c
100
AcDbEntity
  8
Calque_1
 62
7
100
AcDbPolyline
 90
16
 70
1
 10
-15.200400
 20
29.999751
 30
0.0
 10
-16.368033
 20
29.763954
 30
0.0
 10
-17.321538
 20
29.121070
 30
0.0
 10
-17.964429
 20
28.167564
 30
0.0
 10
-18.200217
 20
26.999931
 30
0.0
 10
-17.964581
 20
25.832140
 30
0.0
 10
-17.321725
 20
24.878449
 30
0.0
 10
-16.368161
 20
24.235433
 30
0.0
 10
-15.200400
 20
23.999583
 30
0.0
 10
-14.032473
 20
24.235274
 30
0.0
 10
-13.078742
 20
24.878264
 30
0.0
 10
-12.435756
 20
25.832008
 30
0.0
 10
-12.200067
 20
26.999931
 30
0.0
 10
-12.435908
 20
28.167696
 30
0.0
 10
-13.078929
 20
29.121255
 30
0.0
 10
-14.032602
 20
29.764113
 30
0.0
  0
LWPOLYLINE
  5
10d
100
AcDbEntity
  8
Calque_1
 62
7
100
AcDbPolyline
 90
16
 70
1
 10
-15.200400
 20
18.999910
 30
0.0
 10
-16.368033
 20
18.764114
 30
0.0
 10
-17.321538
 20
18.121229
 30
0.0
 10
-17.964429
 20
17.167724
 30
0.0
 10
-18.200217
 20
16.000091
 30
0.0
 10
-17.964429
 20
14.832458
 30
0.0
 10
-17.321538
 20
13.878953
 30
0.0
 10
-16.368033
 20
13.236068
 30
0.0
 10
-15.200400
 20
13.000272
 30
0.0
 10
-14.032602
 20
13.235910
 30
0.0
 10
-13.078929
 20
13.878768
 30
0.0
 10
-12.435908
 20
14.832326
 30
0.0
 10
-12.200067
 20
16.000091
 30
0.0
 10
-12.435908
 20
17.167856
 30
0.0
 10
-13.078929
 20
18.121414
 30
0.0
 10
-14.032602
 20
18.764273
 30
0.0
  0
ENDSEC
  0
SECTION
  2
OBJECTS
  0
DICTIONARY
  5
C
330
0
100
AcDbDictionary
  3
ACAD_GROUP
350
D
  3
ACAD_MLINESTYLE
350
17
  0
DICTIONARY
  5
D
330
C
100
AcDbDictionary
  0
DICTIONARY
  5
1A
330
C
100
AcDbDictionary
  0
DICTIONARY
  5
17
330
C
100
AcDbDictionary
  3
STANDARD
350
18
  0
DICTIONARY
  5
19
330
C
100
AcDbDictionary
  0
ENDSEC
  0
EOF
