  0
SECTION
  2
HEADER
  9
$ACADVER
  1
AC1014
  9
$HANDSEED
  5
FFFF
  9
$MEASUREMENT
 70
     1
  0
ENDSEC
  0
SECTION
  2
TABLES
  0
TABLE
  2
VPORT
  5
8
330
0
100
AcDbSymbolTable
 70
     4
  0
VPORT
  5
2E
330
8
100
AcDbSymbolTableRecord
100
AcDbViewportTableRecord
  2
*ACTIVE
 70
     0
 10
0.0
 20
0.0
 11
1.0
 21
1.0
 12
210.0
 22
148.5
 13
0.0
 23
0.0
 14
10.0
 24
10.0
 15
10.0
 25
10.0
 16
0.0
 26
0.0
 36
1.0
 17
0.0
 27
0.0
 37
0.0
 40
341.0
 41
1.24
 42
50.0
 43
0.0
 44
0.0
 50
0.0
 51
0.0
 71
     0
 72
   100
 73
     1
 74
     3
 75
     0
 76
     0
 77
     0
 78
     0
  0
ENDTAB
  0
TABLE
  2
LTYPE
  5
5
330
0
100
AcDbSymbolTable
 70
     1
  0
LTYPE
  5
14
330
5
100
AcDbSymbolTableRecord
100
AcDbLinetypeTableRecord
  2
BYBLOCK
 70
     0
  3

 72
    65
 73
     0
 40
0.0
  0
LTYPE
  5
15
330
5
100
AcDbSymbolTableRecord
100
AcDbLinetypeTableRecord
  2
BYLAYER
 70
     0
  3

 72
    65
 73
     0
 40
0.0
  0
LTYPE
  5
16
330
5
100
AcDbSymbolTableRecord
100
AcDbLinetypeTableRecord
  2
CONTINUOUS
 70
     0
  3
Solid line
 72
    65
 73
     0
 40
0.0
  0
ENDTAB
  0
TABLE
  2
LAYER
  5
2
100
AcDbSymbolTable
 70
2
  0
LAYER
  5
50
100
AcDbSymbolTableRecord
100
AcDbLayerTableRecord
  2
0
 70
0
  6
CONTINUOUS
  0
LAYER
  5
51
100
AcDbSymbolTableRecord
100
AcDbLayerTableRecord
  2
Calque_1
 70
0
  6
CONTINUOUS
  0
ENDTAB
  0
TABLE
  2
STYLE
  5
3
330
0
100
AcDbSymbolTable
 70
     1
  0
STYLE
  5
11
330
3
100
AcDbSymbolTableRecord
100
AcDbTextStyleTableRecord
  2
STANDARD
 70
     0
 40
0.0
 41
1.0
 50
0.0
 71
     0
 42
2.5
  3
txt
  4

  0
ENDTAB
  0
TABLE
  2
VIEW
  5
6
330
0
100
AcDbSymbolTable
 70
     0
  0
ENDTAB
  0
TABLE
  2
UCS
  5
7
330
0
100
AcDbSymbolTable
 70
     0
  0
ENDTAB
  0
TABLE
  2
APPID
  5
9
330
0
100
AcDbSymbolTable
 70
     2
  0
APPID
  5
12
330
9
100
AcDbSymbolTableRecord
100
AcDbRegAppTableRecord
  2
ACAD
 70
     0
  0
ENDTAB
  0
TABLE
  2
DIMSTYLE
  5
A
330
0
100
AcDbSymbolTable
 70
     1
  0
DIMSTYLE
105
27
330
A
100
AcDbSymbolTableRecord
100
AcDbDimStyleTableRecord
  2
ISO-25
 70
     0
  3

  4

  5

  6

  7

 40
1.0
 41
2.5
 42
0.625
 43
3.75
 44
1.25
 45
0.0
 46
0.0
 47
0.0
 48
0.0
140
2.5
141
2.5
142
0.0
143
0.03937007874016
144
1.0
145
0.0
146
1.0
147
0.625
 71
     0
 72
     0
 73
     0
 74
     0
 75
     0
 76
     0
 77
     1
 78
     8
170
     0
171
     3
172
     1
173
     0
174
     0
175
     0
176
     0
177
     0
178
     0
270
     2
271
     2
272
     2
273
     2
274
     3
340
11
275
     0
280
     0
281
     0
282
     0
283
     0
284
     8
285
     0
286
     0
287
     3
288
     0
  0
ENDTAB
  0
TABLE
  2
BLOCK_RECORD
  5
1
330
0
100
AcDbSymbolTable
 70
     1
  0
BLOCK_RECORD
  5
1F
330
1
100
AcDbSymbolTableRecord
100
AcDbBlockTableRecord
  2
*MODEL_SPACE
  0
BLOCK_RECORD
  5
1B
330
1
100
AcDbSymbolTableRecord
100
AcDbBlockTableRecord
  2
*PAPER_SPACE
  0
ENDTAB
  0
ENDSEC
  0
SECTION
  2
BLOCKS
  0
BLOCK
  5
20
330
1F
100
AcDbEntity
  8
0
100
AcDbBlockBegin
  2
*MODEL_SPACE
 70
     0
 10
0.0
 20
0.0
 30
0.0
  3
*MODEL_SPACE
  1

  0
ENDBLK
  5
21
330
1F
100
AcDbEntity
  8
0
100
AcDbBlockEnd
  0
BLOCK
  5
1C
330
1B
100
AcDbEntity
 67
     1
  8
0
100
AcDbBlockBegin
  2
*PAPER_SPACE
  1

  0
ENDBLK
  5
1D
330
1B
100
AcDbEntity
 67
     1
  8
0
100
AcDbBlockEnd
  0
ENDSEC
  0
SECTION
  2
ENTITIES
  0
LWPOLYLINE
  5
100
100
AcDbEntity
  8
Calque_1
 62
7
100
AcDbPolyline
 90
32
 70
1
 10
56.999579
 20
50.998447
 30
0.0
 10
56.999579
 20
46.998688
 30
0.0
 10
56.999579
 20
45.599280
 30
0.0
 10
59.999396
 20
45.599280
 30
0.0
 10
59.999396
 20
37.398758
 30
0.0
 10
56.999579
 20
37.398758
 30
0.0
 10
56.999579
 20
29.599225
 30
0.0
 10
59.999396
 20
29.599225
 30
0.0
 10
59.999396
 20
21.399205
 30
0.0
 10
56.999579
 20
21.399205
 30
0.0
 10
56.999579
 20
13.599156
 30
0.0
 10
59.999396
 20
13.599156
 30
0.0
 10
59.999396
 20
5.399136
 30
0.0
 10
56.999579
 20
5.399136
 30
0.0
 10
56.999579
 20
3.999755
 30
0.0
 10
56.999579
 20
-0.000004
 30
0.0
 10
-57.000182
 20
-0.000004
 30
0.0
 10
-57.000182
 20
3.999755
 30
0.0
 10
-57.000182
 20
5.399136
 30
0.0
 10
-59.999999
 20
5.399136
 30
0.0
 10
-59.999999
 20
13.599156
 30
0.0
 10
-57.000182
 20
13.599156
 30
0.0
 10
-57.000182
 20
21.399205
 30
0.0
 10
-59.999999
 20
21.399205
 30
0.0
 10
-59.999999
 20
29.599225
 30
0.0
 10
-57.000182
 20
29.599225
 30
0.0
 10
-57.000182
 20
37.398758
 30
0.0
 10
-59.999999
 20
37.398758
 30
0.0
 10
-59.999999
 20
45.599280
 30
0.0
 10
-57.000182
 20
45.599280
 30
0.0
 10
-57.000182
 20
46.998688
 30
0.0
 10
-57.000182
 20
50.998447
 30
0.0
  0
LWPOLYLINE
  5
101
100
AcDbEntity
  8
Calque_1
 62
7
100
AcDbPolyline
 90
73
 70
1
 10
32.000071
 20
46.998688
 30
0.0
 10
-45.000397
 20
46.998688
 30
0.0
 10
-45.000397
 20
42.998928
 30
0.0
 10
-45.081698
 20
42.192859
 30
0.0
 10
-45.314780
 20
41.442083
 30
0.0
 10
-45.683564
 20
40.762686
 30
0.0
 10
-46.171969
 20
40.170744
 30
0.0
 10
-46.763911
 20
39.682339
 30
0.0
 10
-47.443311
 20
39.313555
 30
0.0
 10
-48.194084
 20
39.080470
 30
0.0
 10
-49.000153
 20
38.999169
 30
0.0
 10
-49.000220
 20
38.999169
 30
0.0
 10
-49.000286
 20
38.999169
 30
0.0
 10
-49.000352
 20
38.999169
 30
0.0
 10
-49.000418
 20
38.999169
 30
0.0
 10
-49.000484
 20
38.999169
 30
0.0
 10
-49.000550
 20
38.999169
 30
0.0
 10
-49.000616
 20
38.999169
 30
0.0
 10
-49.000683
 20
38.999169
 30
0.0
 10
-49.000683
 20
11.998744
 30
0.0
 10
-49.000616
 20
11.998744
 30
0.0
 10
-49.000550
 20
11.998744
 30
0.0
 10
-49.000484
 20
11.998744
 30
0.0
 10
-49.000418
 20
11.998744
 30
0.0
 10
-49.000352
 20
11.998744
 30
0.0
 10
-49.000286
 20
11.998744
 30
0.0
 10
-49.000220
 20
11.998744
 30
0.0
 10
-49.000153
 20
11.998744
 30
0.0
 10
-48.194084
 20
11.917438
 30
0.0
 10
-47.443311
 20
11.684366
 30
0.0
 10
-46.763911
 20
11.315564
 30
0.0
 10
-46.171969
 20
10.827169
 30
0.0
 10
-45.683564
 20
10.235217
 30
0.0
 10
-45.314780
 20
9.555820
 30
0.0
 10
-45.081698
 20
8.805065
 30
0.0
 10
-45.000397
 20
7.998985
 30
0.0
 10
-45.000397
 20
3.999226
 30
0.0
 10
32.000071
 20
3.999226
 30
0.0
 10
32.000071
 20
7.998985
 30
0.0
 10
32.081280
 20
8.805144
 30
0.0
 10
32.314303
 20
9.556005
 30
0.0
 10
32.683056
 20
10.235482
 30
0.0
 10
33.171455
 20
10.827513
 30
0.0
 10
33.763416
 20
11.315987
 30
0.0
 10
34.442855
 20
11.684843
 30
0.0
 10
35.193687
 20
11.917967
 30
0.0
 10
35.999827
 20
11.999274
 30
0.0
 10
35.999827
 20
24.499275
 30
0.0
 10
36.198469
 20
24.522823
 30
0.0
 10
36.383113
 20
24.583095
 30
0.0
 10
36.549912
 20
24.676255
 30
0.0
 10
36.695025
 20
24.798439
 30
0.0
 10
36.814604
 20
24.945680
 30
0.0
 10
36.904803
 20
25.114114
 30
0.0
 10
36.961776
 20
25.299798
 30
0.0
 10
36.981672
 20
25.498818
 30
0.0
 10
36.961696
 20
25.697758
 30
0.0
 10
36.904665
 20
25.883363
 30
0.0
 10
36.814437
 20
26.051718
 30
0.0
 10
36.694856
 20
26.198879
 30
0.0
 10
36.549761
 20
26.320984
 30
0.0
 10
36.382997
 20
26.414091
 30
0.0
 10
36.198408
 20
26.474310
 30
0.0
 10
35.999833
 20
26.497594
 30
0.0
 10
35.999833
 20
38.999169
 30
0.0
 10
35.193764
 20
39.080470
 30
0.0
 10
34.442990
 20
39.313555
 30
0.0
 10
33.763590
 20
39.682339
 30
0.0
 10
33.171649
 20
40.170744
 30
0.0
 10
32.683244
 20
40.762686
 30
0.0
 10
32.314459
 20
41.442083
 30
0.0
 10
32.081377
 20
42.192859
 30
0.0
 10
32.000076
 20
42.998928
 30
0.0
  0
LWPOLYLINE
  5
102
100
AcDbEntity
  8
Calque_1
 62
7
100
AcDbPolyline
 90
32
 70
1
 10
35.999312
 20
43.998868
 30
0.0
 10
35.797794
 20
43.978548
 30
0.0
 10
35.610099
 20
43.920276
 30
0.0
 10
35.440250
 20
43.828082
 30
0.0
 10
35.292263
 20
43.705980
 30
0.0
 10
35.170163
 20
43.557993
 30
0.0
 10
35.077966
 20
43.388144
 30
0.0
 10
35.019697
 20
43.200448
 30
0.0
 10
34.999377
 20
42.998931
 30
0.0
 10
35.019697
 20
42.797414
 30
0.0
 10
35.077966
 20
42.609718
 30
0.0
 10
35.170163
 20
42.439869
 30
0.0
 10
35.292263
 20
42.291882
 30
0.0
 10
35.440250
 20
42.169780
 30
0.0
 10
35.610099
 20
42.077586
 30
0.0
 10
35.797794
 20
42.019314
 30
0.0
 10
35.999312
 20
41.998994
 30
0.0
 10
36.200829
 20
42.019314
 30
0.0
 10
36.388524
 20
42.077586
 30
0.0
 10
36.558373
 20
42.169780
 30
0.0
 10
36.706358
 20
42.291882
 30
0.0
 10
36.828457
 20
42.439869
 30
0.0
 10
36.920652
 20
42.609718
 30
0.0
 10
36.978923
 20
42.797414
 30
0.0
 10
36.999243
 20
42.998931
 30
0.0
 10
36.978923
 20
43.200448
 30
0.0
 10
36.920652
 20
43.388144
 30
0.0
 10
36.828457
 20
43.557993
 30
0.0
 10
36.706358
 20
43.705980
 30
0.0
 10
36.558373
 20
43.828082
 30
0.0
 10
36.388524
 20
43.920276
 30
0.0
 10
36.200829
 20
43.978548
 30
0.0
  0
LWPOLYLINE
  5
103
100
AcDbEntity
  8
Calque_1
 62
7
100
AcDbPolyline
 90
32
 70
1
 10
-49.000669
 20
43.998868
 30
0.0
 10
-49.202187
 20
43.978548
 30
0.0
 10
-49.389882
 20
43.920276
 30
0.0
 10
-49.559734
 20
43.828082
 30
0.0
 10
-49.707718
 20
43.705980
 30
0.0
 10
-49.829821
 20
43.557993
 30
0.0
 10
-49.922015
 20
43.388144
 30
0.0
 10
-49.980284
 20
43.200448
 30
0.0
 10
-50.000604
 20
42.998931
 30
0.0
 10
-49.980284
 20
42.797414
 30
0.0
 10
-49.922015
 20
42.609718
 30
0.0
 10
-49.829821
 20
42.439869
 30
0.0
 10
-49.707718
 20
42.291882
 30
0.0
 10
-49.559734
 20
42.169780
 30
0.0
 10
-49.389882
 20
42.077586
 30
0.0
 10
-49.202187
 20
42.019314
 30
0.0
 10
-49.000669
 20
41.998994
 30
0.0
 10
-48.799155
 20
42.019314
 30
0.0
 10
-48.611462
 20
42.077586
 30
0.0
 10
-48.441615
 20
42.169780
 30
0.0
 10
-48.293629
 20
42.291882
 30
0.0
 10
-48.171529
 20
42.439869
 30
0.0
 10
-48.079332
 20
42.609718
 30
0.0
 10
-48.021060
 20
42.797414
 30
0.0
 10
-48.000740
 20
42.998931
 30
0.0
 10
-48.021060
 20
43.200448
 30
0.0
 10
-48.079332
 20
43.388144
 30
0.0
 10
-48.171529
 20
43.557993
 30
0.0
 10
-48.293629
 20
43.705980
 30
0.0
 10
-48.441615
 20
43.828082
 30
0.0
 10
-48.611462
 20
43.920276
 30
0.0
 10
-48.799155
 20
43.978548
 30
0.0
  0
LWPOLYLINE
  5
104
100
AcDbEntity
  8
Calque_1
 62
7
100
AcDbPolyline
 90
4
 70
1
 10
55.899905
 20
30.999135
 30
0.0
 10
53.100076
 20
30.999135
 30
0.0
 10
53.100076
 20
27.999316
 30
0.0
 10
55.899905
 20
27.999316
 30
0.0
  0
LWPOLYLINE
  5
105
100
AcDbEntity
  8
Calque_1
 62
7
100
AcDbPolyline
 90
4
 70
1
 10
-53.100161
 20
30.999135
 30
0.0
 10
-55.899992
 20
30.999135
 30
0.0
 10
-55.899992
 20
27.999316
 30
0.0
 10
-53.100161
 20
27.999316
 30
0.0
  0
LWPOLYLINE
  5
106
100
AcDbEntity
  8
Calque_1
 62
7
100
AcDbPolyline
 90
72
 70
1
 10
46.499444
 20
30.498914
 30
0.0
 10
45.626208
 20
30.421523
 30
0.0
 10
44.798501
 20
30.199300
 30
0.0
 10
44.030900
 20
29.844176
 30
0.0
 10
43.337980
 20
29.368058
 30
0.0
 10
42.734320
 20
28.782906
 30
0.0
 10
42.234493
 20
28.100625
 30
0.0
 10
41.853078
 20
27.333148
 30
0.0
 10
41.604652
 20
26.492434
 30
0.0
 10
41.591582
 20
26.492434
 30
0.0
 10
41.578485
 20
26.492434
 30
0.0
 10
41.565388
 20
26.492434
 30
0.0
 10
41.552265
 20
26.492434
 30
0.0
 10
41.539141
 20
26.492434
 30
0.0
 10
41.526018
 20
26.492434
 30
0.0
 10
41.512895
 20
26.492434
 30
0.0
 10
41.499745
 20
26.492566
 30
0.0
 10
41.298228
 20
26.472194
 30
0.0
 10
41.110535
 20
26.413906
 30
0.0
 10
40.940683
 20
26.321725
 30
0.0
 10
40.792699
 20
26.199620
 30
0.0
 10
40.670596
 20
26.051638
 30
0.0
 10
40.578402
 20
25.881776
 30
0.0
 10
40.520131
 20
25.694080
 30
0.0
 10
40.499811
 20
25.492574
 30
0.0
 10
40.520131
 20
25.291067
 30
0.0
 10
40.578402
 20
25.103372
 30
0.0
 10
40.670596
 20
24.933509
 30
0.0
 10
40.792699
 20
24.785528
 30
0.0
 10
40.940683
 20
24.663423
 30
0.0
 10
41.110535
 20
24.571242
 30
0.0
 10
41.298228
 20
24.512954
 30
0.0
 10
41.499745
 20
24.492581
 30
0.0
 10
41.512233
 20
24.492793
 30
0.0
 10
41.524722
 20
24.492793
 30
0.0
 10
41.537210
 20
24.492793
 30
0.0
 10
41.549672
 20
24.492793
 30
0.0
 10
41.562134
 20
24.492793
 30
0.0
 10
41.574596
 20
24.492793
 30
0.0
 10
41.587031
 20
24.492793
 30
0.0
 10
41.599466
 20
24.492793
 30
0.0
 10
41.848214
 20
23.651497
 30
0.0
 10
42.230119
 20
22.883623
 30
0.0
 10
42.730566
 20
22.201078
 30
0.0
 10
43.334937
 20
21.615846
 30
0.0
 10
44.028625
 20
21.139860
 30
0.0
 10
44.797012
 20
20.785054
 30
0.0
 10
45.625483
 20
20.563413
 30
0.0
 10
46.499425
 20
20.486842
 30
0.0
 10
47.507091
 20
20.588389
 30
0.0
 10
48.445648
 20
20.879669
 30
0.0
 10
49.294981
 20
21.340626
 30
0.0
 10
50.034989
 20
21.951126
 30
0.0
 10
50.645568
 20
22.691086
 30
0.0
 10
51.106604
 20
23.540372
 30
0.0
 10
51.397998
 20
24.478876
 30
0.0
 10
51.499638
 20
25.486541
 30
0.0
 10
51.398085
 20
26.494286
 30
0.0
 10
51.106750
 20
27.432896
 30
0.0
 10
50.645740
 20
28.282261
 30
0.0
 10
50.035169
 20
29.022274
 30
0.0
 10
49.295140
 20
29.632853
 30
0.0
 10
48.445769
 20
30.093863
 30
0.0
 10
47.507160
 20
30.385196
 30
0.0
 10
46.499425
 20
30.486743
 30
0.0
 10
46.499425
 20
30.486796
 30
0.0
 10
46.499425
 20
30.486875
 30
0.0
 10
46.499425
 20
30.486928
 30
0.0
 10
46.499425
 20
30.487008
 30
0.0
 10
46.499425
 20
30.487060
 30
0.0
 10
46.499425
 20
30.487113
 30
0.0
 10
46.499425
 20
30.487193
 30
0.0
  0
LWPOLYLINE
  5
107
100
AcDbEntity
  8
Calque_1
 62
7
100
AcDbPolyline
 90
32
 70
1
 10
35.999312
 20
8.998925
 30
0.0
 10
35.797794
 20
8.978552
 30
0.0
 10
35.610099
 20
8.920291
 30
0.0
 10
35.440250
 20
8.828084
 30
0.0
 10
35.292263
 20
8.705978
 30
0.0
 10
35.170163
 20
8.557997
 30
0.0
 10
35.077966
 20
8.388134
 30
0.0
 10
35.019697
 20
8.200439
 30
0.0
 10
34.999377
 20
7.998932
 30
0.0
 10
35.019697
 20
7.797426
 30
0.0
 10
35.077966
 20
7.609730
 30
0.0
 10
35.170163
 20
7.439868
 30
0.0
 10
35.292263
 20
7.291886
 30
0.0
 10
35.440250
 20
7.169781
 30
0.0
 10
35.610099
 20
7.077600
 30
0.0
 10
35.797794
 20
7.019313
 30
0.0
 10
35.999312
 20
6.998940
 30
0.0
 10
36.200829
 20
7.019313
 30
0.0
 10
36.388524
 20
7.077600
 30
0.0
 10
36.558373
 20
7.169781
 30
0.0
 10
36.706358
 20
7.291886
 30
0.0
 10
36.828457
 20
7.439868
 30
0.0
 10
36.920652
 20
7.609730
 30
0.0
 10
36.978923
 20
7.797426
 30
0.0
 10
36.999243
 20
7.998932
 30
0.0
 10
36.978923
 20
8.200439
 30
0.0
 10
36.920652
 20
8.388134
 30
0.0
 10
36.828457
 20
8.557997
 30
0.0
 10
36.706358
 20
8.705978
 30
0.0
 10
36.558373
 20
8.828084
 30
0.0
 10
36.388524
 20
8.920291
 30
0.0
 10
36.200829
 20
8.978552
 30
0.0
  0
LWPOLYLINE
  5
108
100
AcDbEntity
  8
Calque_1
 62
7
100
AcDbPolyline
 90
33
 70
1
 10
-49.000669
 20
8.998925
 30
0.0
 10
-49.202187
 20
8.978552
 30
0.0
 10
-49.389882
 20
8.920291
 30
0.0
 10
-49.559734
 20
8.828084
 30
0.0
 10
-49.707718
 20
8.705978
 30
0.0
 10
-49.829821
 20
8.557997
 30
0.0
 10
-49.922015
 20
8.388134
 30
0.0
 10
-49.980284
 20
8.200439
 30
0.0
 10
-50.000604
 20
7.998932
 30
0.0
 10
-49.980284
 20
7.797426
 30
0.0
 10
-49.922015
 20
7.609730
 30
0.0
 10
-49.829821
 20
7.439868
 30
0.0
 10
-49.707718
 20
7.291886
 30
0.0
 10
-49.559734
 20
7.169781
 30
0.0
 10
-49.389882
 20
7.077600
 30
0.0
 10
-49.202187
 20
7.019313
 30
0.0
 10
-49.000669
 20
6.998940
 30
0.0
 10
-48.799155
 20
7.019313
 30
0.0
 10
-48.611462
 20
7.077600
 30
0.0
 10
-48.441615
 20
7.169781
 30
0.0
 10
-48.293629
 20
7.291886
 30
0.0
 10
-48.171529
 20
7.439868
 30
0.0
 10
-48.079332
 20
7.609730
 30
0.0
 10
-48.021060
 20
7.797426
 30
0.0
 10
-48.000740
 20
7.998932
 30
0.0
 10
-48.021060
 20
8.200439
 30
0.0
 10
-48.079332
 20
8.388134
 30
0.0
 10
-48.171529
 20
8.557997
 30
0.0
 10
-48.293629
 20
8.705978
 30
0.0
 10
-48.441615
 20
8.828084
 30
0.0
 10
-48.611462
 20
8.920291
 30
0.0
 10
-48.799155
 20
8.978552
 30
0.0
 10
-49.000669
 20
8.998925
 30
0.0
  0
ENDSEC
  0
SECTION
  2
OBJECTS
  0
DICTIONARY
  5
C
330
0
100
AcDbDictionary
  3
ACAD_GROUP
350
D
  3
ACAD_MLINESTYLE
350
17
  0
DICTIONARY
  5
D
330
C
100
AcDbDictionary
  0
DICTIONARY
  5
1A
330
C
100
AcDbDictionary
  0
DICTIONARY
  5
17
330
C
100
AcDbDictionary
  3
STANDARD
350
18
  0
DICTIONARY
  5
19
330
C
100
AcDbDictionary
  0
ENDSEC
  0
EOF
