  0
SECTION
  2
HEADER
  9
$ACADVER
  1
AC1014
  9
$HANDSEED
  5
FFFF
  9
$MEASUREMENT
 70
     1
  0
ENDSEC
  0
SECTION
  2
TABLES
  0
TABLE
  2
VPORT
  5
8
330
0
100
AcDbSymbolTable
 70
     4
  0
VPORT
  5
2E
330
8
100
AcDbSymbolTableRecord
100
AcDbViewportTableRecord
  2
*ACTIVE
 70
     0
 10
0.0
 20
0.0
 11
1.0
 21
1.0
 12
210.0
 22
148.5
 13
0.0
 23
0.0
 14
10.0
 24
10.0
 15
10.0
 25
10.0
 16
0.0
 26
0.0
 36
1.0
 17
0.0
 27
0.0
 37
0.0
 40
341.0
 41
1.24
 42
50.0
 43
0.0
 44
0.0
 50
0.0
 51
0.0
 71
     0
 72
   100
 73
     1
 74
     3
 75
     0
 76
     0
 77
     0
 78
     0
  0
ENDTAB
  0
TABLE
  2
LTYPE
  5
5
330
0
100
AcDbSymbolTable
 70
     1
  0
LTYPE
  5
14
330
5
100
AcDbSymbolTableRecord
100
AcDbLinetypeTableRecord
  2
BYBLOCK
 70
     0
  3

 72
    65
 73
     0
 40
0.0
  0
LTYPE
  5
15
330
5
100
AcDbSymbolTableRecord
100
AcDbLinetypeTableRecord
  2
BYLAYER
 70
     0
  3

 72
    65
 73
     0
 40
0.0
  0
LTYPE
  5
16
330
5
100
AcDbSymbolTableRecord
100
AcDbLinetypeTableRecord
  2
CONTINUOUS
 70
     0
  3
Solid line
 72
    65
 73
     0
 40
0.0
  0
ENDTAB
  0
TABLE
  2
LAYER
  5
2
100
AcDbSymbolTable
 70
2
  0
LAYER
  5
50
100
AcDbSymbolTableRecord
100
AcDbLayerTableRecord
  2
0
 70
0
  6
CONTINUOUS
  0
LAYER
  5
51
100
AcDbSymbolTableRecord
100
AcDbLayerTableRecord
  2
Calque_1
 70
0
  6
CONTINUOUS
  0
ENDTAB
  0
TABLE
  2
STYLE
  5
3
330
0
100
AcDbSymbolTable
 70
     1
  0
STYLE
  5
11
330
3
100
AcDbSymbolTableRecord
100
AcDbTextStyleTableRecord
  2
STANDARD
 70
     0
 40
0.0
 41
1.0
 50
0.0
 71
     0
 42
2.5
  3
txt
  4

  0
ENDTAB
  0
TABLE
  2
VIEW
  5
6
330
0
100
AcDbSymbolTable
 70
     0
  0
ENDTAB
  0
TABLE
  2
UCS
  5
7
330
0
100
AcDbSymbolTable
 70
     0
  0
ENDTAB
  0
TABLE
  2
APPID
  5
9
330
0
100
AcDbSymbolTable
 70
     2
  0
APPID
  5
12
330
9
100
AcDbSymbolTableRecord
100
AcDbRegAppTableRecord
  2
ACAD
 70
     0
  0
ENDTAB
  0
TABLE
  2
DIMSTYLE
  5
A
330
0
100
AcDbSymbolTable
 70
     1
  0
DIMSTYLE
105
27
330
A
100
AcDbSymbolTableRecord
100
AcDbDimStyleTableRecord
  2
ISO-25
 70
     0
  3

  4

  5

  6

  7

 40
1.0
 41
2.5
 42
0.625
 43
3.75
 44
1.25
 45
0.0
 46
0.0
 47
0.0
 48
0.0
140
2.5
141
2.5
142
0.0
143
0.03937007874016
144
1.0
145
0.0
146
1.0
147
0.625
 71
     0
 72
     0
 73
     0
 74
     0
 75
     0
 76
     0
 77
     1
 78
     8
170
     0
171
     3
172
     1
173
     0
174
     0
175
     0
176
     0
177
     0
178
     0
270
     2
271
     2
272
     2
273
     2
274
     3
340
11
275
     0
280
     0
281
     0
282
     0
283
     0
284
     8
285
     0
286
     0
287
     3
288
     0
  0
ENDTAB
  0
TABLE
  2
BLOCK_RECORD
  5
1
330
0
100
AcDbSymbolTable
 70
     1
  0
BLOCK_RECORD
  5
1F
330
1
100
AcDbSymbolTableRecord
100
AcDbBlockTableRecord
  2
*MODEL_SPACE
  0
BLOCK_RECORD
  5
1B
330
1
100
AcDbSymbolTableRecord
100
AcDbBlockTableRecord
  2
*PAPER_SPACE
  0
ENDTAB
  0
ENDSEC
  0
SECTION
  2
BLOCKS
  0
BLOCK
  5
20
330
1F
100
AcDbEntity
  8
0
100
AcDbBlockBegin
  2
*MODEL_SPACE
 70
     0
 10
0.0
 20
0.0
 30
0.0
  3
*MODEL_SPACE
  1

  0
ENDBLK
  5
21
330
1F
100
AcDbEntity
  8
0
100
AcDbBlockEnd
  0
BLOCK
  5
1C
330
1B
100
AcDbEntity
 67
     1
  8
0
100
AcDbBlockBegin
  2
*PAPER_SPACE
  1

  0
ENDBLK
  5
1D
330
1B
100
AcDbEntity
 67
     1
  8
0
100
AcDbBlockEnd
  0
ENDSEC
  0
SECTION
  2
ENTITIES
  0
LWPOLYLINE
  5
100
100
AcDbEntity
  8
Calque_1
 62
7
100
AcDbPolyline
 90
38
 70
1
 10
59.999422
 20
45.598759
 30
0.0
 10
56.999606
 20
45.598759
 30
0.0
 10
56.999606
 20
46.998158
 30
0.0
 10
56.999606
 20
50.997918
 30
0.0
 10
56.999606
 20
53.843218
 30
0.0
 10
-56.845644
 20
53.843218
 30
0.0
 10
-56.845644
 20
50.997918
 30
0.0
 10
-56.999635
 20
50.997918
 30
0.0
 10
-56.999635
 20
46.998158
 30
0.0
 10
-56.999635
 20
45.598759
 30
0.0
 10
-59.999454
 20
45.598759
 30
0.0
 10
-59.999454
 20
37.398747
 30
0.0
 10
-56.999635
 20
37.398747
 30
0.0
 10
-56.999635
 20
29.598695
 30
0.0
 10
-59.999454
 20
29.598695
 30
0.0
 10
-59.999454
 20
21.398676
 30
0.0
 10
-56.999635
 20
21.398676
 30
0.0
 10
-56.999635
 20
13.599156
 30
0.0
 10
-59.999454
 20
13.599156
 30
0.0
 10
-59.999454
 20
5.398634
 30
0.0
 10
-56.999635
 20
5.398634
 30
0.0
 10
-56.999635
 20
3.999226
 30
0.0
 10
-56.999635
 20
-0.002068
 30
0.0
 10
-56.845644
 20
-0.002068
 30
0.0
 10
-56.845644
 20
-2.846868
 30
0.0
 10
56.999606
 20
-2.846868
 30
0.0
 10
56.999606
 20
-0.002068
 30
0.0
 10
56.999606
 20
3.999226
 30
0.0
 10
56.999606
 20
5.398634
 30
0.0
 10
59.999422
 20
5.398634
 30
0.0
 10
59.999422
 20
13.599156
 30
0.0
 10
56.999606
 20
13.599156
 30
0.0
 10
56.999606
 20
21.398676
 30
0.0
 10
59.999422
 20
21.398676
 30
0.0
 10
59.999422
 20
29.598695
 30
0.0
 10
56.999606
 20
29.598695
 30
0.0
 10
56.999606
 20
37.398747
 30
0.0
 10
59.999422
 20
37.398747
 30
0.0
  0
SPLINE
  5
101
100
AcDbEntity
  8
Calque_1
 62
7
100
AcDbSpline
 70
8
 71
3
 72
8
 73
4
 74
0
 40
0
 40
0
 40
0
 40
0
 40
1
 40
1
 40
1
 40
1
 10
51.499683
 20
25.499718
 30
0.0
 10
51.499799
 20
22.738129
 30
0.0
 10
49.261051
 20
20.499384
 30
0.0
 10
46.499470
 20
20.499516
 30
0.0
  0
LWPOLYLINE
  5
102
100
AcDbEntity
  8
Calque_1
 62
7
100
AcDbPolyline
 90
4
 70
1
 10
55.899931
 20
22.998585
 30
0.0
 10
55.899931
 20
19.998765
 30
0.0
 10
53.100102
 20
19.998765
 30
0.0
 10
53.100102
 20
22.998585
 30
0.0
  0
SPLINE
  5
103
100
AcDbEntity
  8
Calque_1
 62
7
100
AcDbSpline
 70
8
 71
3
 72
8
 73
4
 74
0
 40
0
 40
0
 40
0
 40
0
 40
1
 40
1
 40
1
 40
1
 10
46.499470
 20
20.499516
 30
0.0
 10
44.123105
 20
20.502426
 30
0.0
 10
42.076873
 20
22.177001
 30
0.0
 10
41.604681
 20
24.505995
 30
0.0
  0
SPLINE
  5
104
100
AcDbEntity
  8
Calque_1
 62
7
100
AcDbSpline
 70
8
 71
3
 72
8
 73
4
 74
0
 40
0
 40
0
 40
0
 40
0
 40
1
 40
1
 40
1
 40
1
 10
41.604681
 20
24.505995
 30
0.0
 10
41.569841
 20
24.502027
 30
0.0
 10
41.534831
 20
24.499910
 30
0.0
 10
41.499777
 20
24.499910
 30
0.0
  0
SPLINE
  5
105
100
AcDbEntity
  8
Calque_1
 62
7
100
AcDbSpline
 70
8
 71
3
 72
8
 73
4
 74
0
 40
0
 40
0
 40
0
 40
0
 40
1
 40
1
 40
1
 40
1
 10
41.499777
 20
24.499910
 30
0.0
 10
40.947541
 20
24.499936
 30
0.0
 10
40.499871
 20
24.947611
 30
0.0
 10
40.499840
 20
25.499850
 30
0.0
  0
SPLINE
  5
106
100
AcDbEntity
  8
Calque_1
 62
7
100
AcDbSpline
 70
8
 71
3
 72
8
 73
4
 74
0
 40
0
 40
0
 40
0
 40
0
 40
1
 40
1
 40
1
 40
1
 10
40.499840
 20
25.499850
 30
0.0
 10
40.499871
 20
26.052088
 30
0.0
 10
40.947541
 20
26.499763
 30
0.0
 10
41.499777
 20
26.499790
 30
0.0
  0
SPLINE
  5
107
100
AcDbEntity
  8
Calque_1
 62
7
100
AcDbSpline
 70
8
 71
3
 72
8
 73
4
 74
0
 40
0
 40
0
 40
0
 40
0
 40
1
 40
1
 40
1
 40
1
 10
41.499777
 20
26.499790
 30
0.0
 10
41.533085
 20
26.499525
 30
0.0
 10
41.566407
 20
26.497144
 30
0.0
 10
41.599517
 20
26.493704
 30
0.0
  0
SPLINE
  5
108
100
AcDbEntity
  8
Calque_1
 62
7
100
AcDbSpline
 70
8
 71
3
 72
8
 73
4
 74
0
 40
0
 40
0
 40
0
 40
0
 40
1
 40
1
 40
1
 40
1
 10
41.599517
 20
26.493704
 30
0.0
 10
42.072317
 20
28.824392
 30
0.0
 10
44.121329
 20
30.499575
 30
0.0
 10
46.499476
 20
30.499681
 30
0.0
  0
SPLINE
  5
109
100
AcDbEntity
  8
Calque_1
 62
7
100
AcDbSpline
 70
8
 71
3
 72
8
 73
4
 74
0
 40
0
 40
0
 40
0
 40
0
 40
1
 40
1
 40
1
 40
1
 10
46.499476
 20
30.499681
 30
0.0
 10
49.260853
 20
30.499787
 30
0.0
 10
51.499516
 20
28.261359
 30
0.0
 10
51.499688
 20
25.499982
 30
0.0
  0
LWPOLYLINE
  5
10a
100
AcDbEntity
  8
Calque_1
 62
7
100
AcDbPolyline
 90
1
 70
1
 10
46.499470
 20
20.499516
 30
0.0
  0
SPLINE
  5
10b
100
AcDbEntity
  8
Calque_1
 62
7
100
AcDbSpline
 70
8
 71
3
 72
8
 73
4
 74
0
 40
0
 40
0
 40
0
 40
0
 40
1
 40
1
 40
1
 40
1
 10
36.999275
 20
42.998918
 30
0.0
 10
36.999246
 20
42.446677
 30
0.0
 10
36.551576
 20
41.999007
 30
0.0
 10
35.999335
 20
41.998978
 30
0.0
  0
SPLINE
  5
10c
100
AcDbEntity
  8
Calque_1
 62
7
100
AcDbSpline
 70
8
 71
3
 72
8
 73
4
 74
0
 40
0
 40
0
 40
0
 40
0
 40
1
 40
1
 40
1
 40
1
 10
35.999335
 20
41.998978
 30
0.0
 10
35.447097
 20
41.999007
 30
0.0
 10
34.999427
 20
42.446677
 30
0.0
 10
34.999396
 20
42.998918
 30
0.0
  0
SPLINE
  5
10d
100
AcDbEntity
  8
Calque_1
 62
7
100
AcDbSpline
 70
8
 71
3
 72
8
 73
4
 74
0
 40
0
 40
0
 40
0
 40
0
 40
1
 40
1
 40
1
 40
1
 10
34.999396
 20
42.998918
 30
0.0
 10
34.999427
 20
43.551159
 30
0.0
 10
35.447097
 20
43.998807
 30
0.0
 10
35.999335
 20
43.998858
 30
0.0
  0
SPLINE
  5
10e
100
AcDbEntity
  8
Calque_1
 62
7
100
AcDbSpline
 70
8
 71
3
 72
8
 73
4
 74
0
 40
0
 40
0
 40
0
 40
0
 40
1
 40
1
 40
1
 40
1
 10
35.999335
 20
43.998858
 30
0.0
 10
36.551576
 20
43.998807
 30
0.0
 10
36.999246
 20
43.551159
 30
0.0
 10
36.999275
 20
42.998918
 30
0.0
  0
LWPOLYLINE
  5
10f
100
AcDbEntity
  8
Calque_1
 62
7
100
AcDbPolyline
 90
2
 70
0
 10
51.499688
 20
25.499982
 30
0.0
 10
51.499683
 20
25.499718
 30
0.0
  0
SPLINE
  5
110
100
AcDbEntity
  8
Calque_1
 62
7
100
AcDbSpline
 70
8
 71
3
 72
8
 73
4
 74
0
 40
0
 40
0
 40
0
 40
0
 40
1
 40
1
 40
1
 40
1
 10
36.999275
 20
7.998985
 30
0.0
 10
36.999246
 20
7.446747
 30
0.0
 10
36.551576
 20
6.999072
 30
0.0
 10
35.999335
 20
6.999045
 30
0.0
  0
SPLINE
  5
111
100
AcDbEntity
  8
Calque_1
 62
7
100
AcDbSpline
 70
8
 71
3
 72
8
 73
4
 74
0
 40
0
 40
0
 40
0
 40
0
 40
1
 40
1
 40
1
 40
1
 10
35.999335
 20
6.999045
 30
0.0
 10
35.447097
 20
6.999072
 30
0.0
 10
34.999427
 20
7.446747
 30
0.0
 10
34.999396
 20
7.998985
 30
0.0
  0
SPLINE
  5
112
100
AcDbEntity
  8
Calque_1
 62
7
100
AcDbSpline
 70
8
 71
3
 72
8
 73
4
 74
0
 40
0
 40
0
 40
0
 40
0
 40
1
 40
1
 40
1
 40
1
 10
34.999396
 20
7.998985
 30
0.0
 10
34.999427
 20
8.551224
 30
0.0
 10
35.447097
 20
8.998899
 30
0.0
 10
35.999335
 20
8.998925
 30
0.0
  0
SPLINE
  5
113
100
AcDbEntity
  8
Calque_1
 62
7
100
AcDbSpline
 70
8
 71
3
 72
8
 73
4
 74
0
 40
0
 40
0
 40
0
 40
0
 40
1
 40
1
 40
1
 40
1
 10
35.999335
 20
8.998925
 30
0.0
 10
36.551576
 20
8.998899
 30
0.0
 10
36.999246
 20
8.551224
 30
0.0
 10
36.999275
 20
7.998985
 30
0.0
  0
LWPOLYLINE
  5
114
100
AcDbEntity
  8
Calque_1
 62
7
100
AcDbPolyline
 90
1
 70
1
 10
36.999275
 20
42.998918
 30
0.0
  0
SPLINE
  5
115
100
AcDbEntity
  8
Calque_1
 62
7
100
AcDbSpline
 70
8
 71
3
 72
8
 73
4
 74
0
 40
0
 40
0
 40
0
 40
0
 40
1
 40
1
 40
1
 40
1
 10
36.981680
 20
25.499215
 30
0.0
 10
36.981151
 20
24.954358
 30
0.0
 10
36.544591
 20
24.510202
 30
0.0
 10
35.999833
 20
24.500307
 30
0.0
  0
LWPOLYLINE
  5
116
100
AcDbEntity
  8
Calque_1
 62
7
100
AcDbPolyline
 90
1
 70
1
 10
36.999275
 20
7.998985
 30
0.0
  0
SPLINE
  5
117
100
AcDbEntity
  8
Calque_1
 62
7
100
AcDbSpline
 70
8
 71
3
 72
8
 73
4
 74
0
 40
0
 40
0
 40
0
 40
0
 40
1
 40
1
 40
1
 40
1
 10
35.999833
 20
11.998744
 30
0.0
 10
33.790893
 20
11.998586
 30
0.0
 10
32.000201
 20
10.207939
 30
0.0
 10
32.000071
 20
7.998985
 30
0.0
  0
LWPOLYLINE
  5
118
100
AcDbEntity
  8
Calque_1
 62
7
100
AcDbPolyline
 90
2
 70
0
 10
35.999833
 20
24.500307
 30
0.0
 10
35.999833
 20
11.998744
 30
0.0
  0
SPLINE
  5
119
100
AcDbEntity
  8
Calque_1
 62
7
100
AcDbSpline
 70
8
 71
3
 72
8
 73
4
 74
0
 40
0
 40
0
 40
0
 40
0
 40
1
 40
1
 40
1
 40
1
 10
-45.000399
 20
7.998985
 30
0.0
 10
-45.000519
 20
10.207939
 30
0.0
 10
-46.791200
 20
11.998612
 30
0.0
 10
-49.000151
 20
11.998744
 30
0.0
  0
LWPOLYLINE
  5
11a
100
AcDbEntity
  8
Calque_1
 62
7
100
AcDbPolyline
 90
4
 70
0
 10
32.000071
 20
7.998985
 30
0.0
 10
32.000071
 20
3.999226
 30
0.0
 10
-45.000399
 20
3.999226
 30
0.0
 10
-45.000399
 20
7.998985
 30
0.0
  0
SPLINE
  5
11b
100
AcDbEntity
  8
Calque_1
 62
7
100
AcDbSpline
 70
8
 71
3
 72
8
 73
4
 74
0
 40
0
 40
0
 40
0
 40
0
 40
1
 40
1
 40
1
 40
1
 10
-49.000151
 20
38.999167
 30
0.0
 10
-46.791200
 20
38.999299
 30
0.0
 10
-45.000519
 20
40.789967
 30
0.0
 10
-45.000399
 20
42.998918
 30
0.0
  0
LWPOLYLINE
  5
11c
100
AcDbEntity
  8
Calque_1
 62
7
100
AcDbPolyline
 90
2
 70
0
 10
-49.000151
 20
11.998744
 30
0.0
 10
-49.000151
 20
38.999167
 30
0.0
  0
SPLINE
  5
11d
100
AcDbEntity
  8
Calque_1
 62
7
100
AcDbSpline
 70
8
 71
3
 72
8
 73
4
 74
0
 40
0
 40
0
 40
0
 40
0
 40
1
 40
1
 40
1
 40
1
 10
32.000071
 20
42.998918
 30
0.0
 10
31.999912
 20
40.789758
 30
0.0
 10
33.790681
 20
38.998788
 30
0.0
 10
35.999833
 20
38.998648
 30
0.0
  0
LWPOLYLINE
  5
11e
100
AcDbEntity
  8
Calque_1
 62
7
100
AcDbPolyline
 90
4
 70
0
 10
-45.000399
 20
42.998918
 30
0.0
 10
-45.000399
 20
46.998677
 30
0.0
 10
32.000071
 20
46.998677
 30
0.0
 10
32.000071
 20
42.998918
 30
0.0
  0
SPLINE
  5
11f
100
AcDbEntity
  8
Calque_1
 62
7
100
AcDbSpline
 70
8
 71
3
 72
8
 73
4
 74
0
 40
0
 40
0
 40
0
 40
0
 40
1
 40
1
 40
1
 40
1
 10
35.999833
 20
26.498625
 30
0.0
 10
36.544782
 20
26.488571
 30
0.0
 10
36.981450
 20
26.044256
 30
0.0
 10
36.981680
 20
25.499215
 30
0.0
  0
LWPOLYLINE
  5
120
100
AcDbEntity
  8
Calque_1
 62
7
100
AcDbPolyline
 90
2
 70
0
 10
35.999833
 20
38.998648
 30
0.0
 10
35.999833
 20
26.498625
 30
0.0
  0
SPLINE
  5
121
100
AcDbEntity
  8
Calque_1
 62
7
100
AcDbSpline
 70
8
 71
3
 72
8
 73
4
 74
0
 40
0
 40
0
 40
0
 40
0
 40
1
 40
1
 40
1
 40
1
 10
-48.000211
 20
42.998918
 30
0.0
 10
-48.000251
 20
42.446677
 30
0.0
 10
-48.447920
 20
41.999007
 30
0.0
 10
-49.000151
 20
41.998978
 30
0.0
  0
SPLINE
  5
122
100
AcDbEntity
  8
Calque_1
 62
7
100
AcDbSpline
 70
8
 71
3
 72
8
 73
4
 74
0
 40
0
 40
0
 40
0
 40
0
 40
1
 40
1
 40
1
 40
1
 10
-49.000151
 20
41.998978
 30
0.0
 10
-49.552378
 20
41.999007
 30
0.0
 10
-50.000059
 20
42.446677
 30
0.0
 10
-50.000090
 20
42.998918
 30
0.0
  0
SPLINE
  5
123
100
AcDbEntity
  8
Calque_1
 62
7
100
AcDbSpline
 70
8
 71
3
 72
8
 73
4
 74
0
 40
0
 40
0
 40
0
 40
0
 40
1
 40
1
 40
1
 40
1
 10
-50.000090
 20
42.998918
 30
0.0
 10
-50.000059
 20
43.551159
 30
0.0
 10
-49.552378
 20
43.998807
 30
0.0
 10
-49.000151
 20
43.998858
 30
0.0
  0
SPLINE
  5
124
100
AcDbEntity
  8
Calque_1
 62
7
100
AcDbSpline
 70
8
 71
3
 72
8
 73
4
 74
0
 40
0
 40
0
 40
0
 40
0
 40
1
 40
1
 40
1
 40
1
 10
-49.000151
 20
43.998858
 30
0.0
 10
-48.447920
 20
43.998807
 30
0.0
 10
-48.000251
 20
43.551159
 30
0.0
 10
-48.000211
 20
42.998918
 30
0.0
  0
LWPOLYLINE
  5
125
100
AcDbEntity
  8
Calque_1
 62
7
100
AcDbPolyline
 90
1
 70
1
 10
36.981680
 20
25.499215
 30
0.0
  0
SPLINE
  5
126
100
AcDbEntity
  8
Calque_1
 62
7
100
AcDbSpline
 70
8
 71
3
 72
8
 73
4
 74
0
 40
0
 40
0
 40
0
 40
0
 40
1
 40
1
 40
1
 40
1
 10
-48.000211
 20
7.998985
 30
0.0
 10
-48.000251
 20
7.446747
 30
0.0
 10
-48.447920
 20
6.999072
 30
0.0
 10
-49.000151
 20
6.999045
 30
0.0
  0
SPLINE
  5
127
100
AcDbEntity
  8
Calque_1
 62
7
100
AcDbSpline
 70
8
 71
3
 72
8
 73
4
 74
0
 40
0
 40
0
 40
0
 40
0
 40
1
 40
1
 40
1
 40
1
 10
-49.000151
 20
6.999045
 30
0.0
 10
-49.552378
 20
6.999072
 30
0.0
 10
-50.000059
 20
7.446747
 30
0.0
 10
-50.000090
 20
7.998985
 30
0.0
  0
SPLINE
  5
128
100
AcDbEntity
  8
Calque_1
 62
7
100
AcDbSpline
 70
8
 71
3
 72
8
 73
4
 74
0
 40
0
 40
0
 40
0
 40
0
 40
1
 40
1
 40
1
 40
1
 10
-50.000090
 20
7.998985
 30
0.0
 10
-50.000059
 20
8.551224
 30
0.0
 10
-49.552378
 20
8.998899
 30
0.0
 10
-49.000151
 20
8.998925
 30
0.0
  0
SPLINE
  5
129
100
AcDbEntity
  8
Calque_1
 62
7
100
AcDbSpline
 70
8
 71
3
 72
8
 73
4
 74
0
 40
0
 40
0
 40
0
 40
0
 40
1
 40
1
 40
1
 40
1
 10
-49.000151
 20
8.998925
 30
0.0
 10
-48.447920
 20
8.998899
 30
0.0
 10
-48.000251
 20
8.551224
 30
0.0
 10
-48.000211
 20
7.998985
 30
0.0
  0
LWPOLYLINE
  5
12a
100
AcDbEntity
  8
Calque_1
 62
7
100
AcDbPolyline
 90
1
 70
1
 10
-48.000211
 20
42.998918
 30
0.0
  0
LWPOLYLINE
  5
12b
100
AcDbEntity
  8
Calque_1
 62
7
100
AcDbPolyline
 90
1
 70
1
 10
-48.000211
 20
7.998985
 30
0.0
  0
LWPOLYLINE
  5
12c
100
AcDbEntity
  8
Calque_1
 62
7
100
AcDbPolyline
 90
4
 70
1
 10
-53.099639
 20
22.998585
 30
0.0
 10
-53.099639
 20
19.998765
 30
0.0
 10
-55.899471
 20
19.998765
 30
0.0
 10
-55.899471
 20
22.998585
 30
0.0
  0
ENDSEC
  0
SECTION
  2
OBJECTS
  0
DICTIONARY
  5
C
330
0
100
AcDbDictionary
  3
ACAD_GROUP
350
D
  3
ACAD_MLINESTYLE
350
17
  0
DICTIONARY
  5
D
330
C
100
AcDbDictionary
  0
DICTIONARY
  5
1A
330
C
100
AcDbDictionary
  0
DICTIONARY
  5
17
330
C
100
AcDbDictionary
  3
STANDARD
350
18
  0
DICTIONARY
  5
19
330
C
100
AcDbDictionary
  0
ENDSEC
  0
EOF
