  0
SECTION
  2
HEADER
  9
$ACADVER
  1
AC1014
  9
$HANDSEED
  5
FFFF
  9
$MEASUREMENT
 70
     1
  0
ENDSEC
  0
SECTION
  2
TABLES
  0
TABLE
  2
VPORT
  5
8
330
0
100
AcDbSymbolTable
 70
     4
  0
VPORT
  5
2E
330
8
100
AcDbSymbolTableRecord
100
AcDbViewportTableRecord
  2
*ACTIVE
 70
     0
 10
0.0
 20
0.0
 11
1.0
 21
1.0
 12
210.0
 22
148.5
 13
0.0
 23
0.0
 14
10.0
 24
10.0
 15
10.0
 25
10.0
 16
0.0
 26
0.0
 36
1.0
 17
0.0
 27
0.0
 37
0.0
 40
341.0
 41
1.24
 42
50.0
 43
0.0
 44
0.0
 50
0.0
 51
0.0
 71
     0
 72
   100
 73
     1
 74
     3
 75
     0
 76
     0
 77
     0
 78
     0
  0
ENDTAB
  0
TABLE
  2
LTYPE
  5
5
330
0
100
AcDbSymbolTable
 70
     1
  0
LTYPE
  5
14
330
5
100
AcDbSymbolTableRecord
100
AcDbLinetypeTableRecord
  2
BYBLOCK
 70
     0
  3

 72
    65
 73
     0
 40
0.0
  0
LTYPE
  5
15
330
5
100
AcDbSymbolTableRecord
100
AcDbLinetypeTableRecord
  2
BYLAYER
 70
     0
  3

 72
    65
 73
     0
 40
0.0
  0
LTYPE
  5
16
330
5
100
AcDbSymbolTableRecord
100
AcDbLinetypeTableRecord
  2
CONTINUOUS
 70
     0
  3
Solid line
 72
    65
 73
     0
 40
0.0
  0
ENDTAB
  0
TABLE
  2
LAYER
  5
2
100
AcDbSymbolTable
 70
2
  0
LAYER
  5
50
100
AcDbSymbolTableRecord
100
AcDbLayerTableRecord
  2
0
 70
0
  6
CONTINUOUS
  0
LAYER
  5
51
100
AcDbSymbolTableRecord
100
AcDbLayerTableRecord
  2
Calque_1
 70
0
  6
CONTINUOUS
  0
ENDTAB
  0
TABLE
  2
STYLE
  5
3
330
0
100
AcDbSymbolTable
 70
     1
  0
STYLE
  5
11
330
3
100
AcDbSymbolTableRecord
100
AcDbTextStyleTableRecord
  2
STANDARD
 70
     0
 40
0.0
 41
1.0
 50
0.0
 71
     0
 42
2.5
  3
txt
  4

  0
ENDTAB
  0
TABLE
  2
VIEW
  5
6
330
0
100
AcDbSymbolTable
 70
     0
  0
ENDTAB
  0
TABLE
  2
UCS
  5
7
330
0
100
AcDbSymbolTable
 70
     0
  0
ENDTAB
  0
TABLE
  2
APPID
  5
9
330
0
100
AcDbSymbolTable
 70
     2
  0
APPID
  5
12
330
9
100
AcDbSymbolTableRecord
100
AcDbRegAppTableRecord
  2
ACAD
 70
     0
  0
ENDTAB
  0
TABLE
  2
DIMSTYLE
  5
A
330
0
100
AcDbSymbolTable
 70
     1
  0
DIMSTYLE
105
27
330
A
100
AcDbSymbolTableRecord
100
AcDbDimStyleTableRecord
  2
ISO-25
 70
     0
  3

  4

  5

  6

  7

 40
1.0
 41
2.5
 42
0.625
 43
3.75
 44
1.25
 45
0.0
 46
0.0
 47
0.0
 48
0.0
140
2.5
141
2.5
142
0.0
143
0.03937007874016
144
1.0
145
0.0
146
1.0
147
0.625
 71
     0
 72
     0
 73
     0
 74
     0
 75
     0
 76
     0
 77
     1
 78
     8
170
     0
171
     3
172
     1
173
     0
174
     0
175
     0
176
     0
177
     0
178
     0
270
     2
271
     2
272
     2
273
     2
274
     3
340
11
275
     0
280
     0
281
     0
282
     0
283
     0
284
     8
285
     0
286
     0
287
     3
288
     0
  0
ENDTAB
  0
TABLE
  2
BLOCK_RECORD
  5
1
330
0
100
AcDbSymbolTable
 70
     1
  0
BLOCK_RECORD
  5
1F
330
1
100
AcDbSymbolTableRecord
100
AcDbBlockTableRecord
  2
*MODEL_SPACE
  0
BLOCK_RECORD
  5
1B
330
1
100
AcDbSymbolTableRecord
100
AcDbBlockTableRecord
  2
*PAPER_SPACE
  0
ENDTAB
  0
ENDSEC
  0
SECTION
  2
BLOCKS
  0
BLOCK
  5
20
330
1F
100
AcDbEntity
  8
0
100
AcDbBlockBegin
  2
*MODEL_SPACE
 70
     0
 10
0.0
 20
0.0
 30
0.0
  3
*MODEL_SPACE
  1

  0
ENDBLK
  5
21
330
1F
100
AcDbEntity
  8
0
100
AcDbBlockEnd
  0
BLOCK
  5
1C
330
1B
100
AcDbEntity
 67
     1
  8
0
100
AcDbBlockBegin
  2
*PAPER_SPACE
  1

  0
ENDBLK
  5
1D
330
1B
100
AcDbEntity
 67
     1
  8
0
100
AcDbBlockEnd
  0
ENDSEC
  0
SECTION
  2
ENTITIES
  0
LWPOLYLINE
  5
100
100
AcDbEntity
  8
Calque_1
 62
7
100
AcDbPolyline
 90
141
 70
1
 10
-59.999999
 20
160.000065
 30
0.0
 10
-59.999999
 20
155.900055
 30
0.0
 10
-57.000182
 20
155.900055
 30
0.0
 10
-57.000182
 20
148.100017
 30
0.0
 10
-59.999999
 20
148.100017
 30
0.0
 10
-59.999999
 20
139.900000
 30
0.0
 10
-57.000182
 20
139.900000
 30
0.0
 10
-57.000182
 20
132.099959
 30
0.0
 10
-59.999999
 20
132.099959
 30
0.0
 10
-59.999999
 20
123.899942
 30
0.0
 10
-57.000182
 20
123.899942
 30
0.0
 10
-57.000182
 20
116.099901
 30
0.0
 10
-59.999999
 20
116.099901
 30
0.0
 10
-59.999999
 20
107.899887
 30
0.0
 10
-57.000182
 20
107.899887
 30
0.0
 10
-57.000182
 20
100.099846
 30
0.0
 10
-59.999999
 20
100.099846
 30
0.0
 10
-59.999999
 20
91.899829
 30
0.0
 10
-57.000182
 20
91.899829
 30
0.0
 10
-57.000182
 20
84.099788
 30
0.0
 10
-59.999999
 20
84.099788
 30
0.0
 10
-59.999999
 20
75.899771
 30
0.0
 10
-57.000182
 20
75.899771
 30
0.0
 10
-57.000182
 20
68.099730
 30
0.0
 10
-59.999999
 20
68.099730
 30
0.0
 10
-59.999999
 20
59.899718
 30
0.0
 10
-57.000182
 20
59.899718
 30
0.0
 10
-57.000182
 20
52.100198
 30
0.0
 10
-59.999999
 20
52.100198
 30
0.0
 10
-59.999999
 20
43.900179
 30
0.0
 10
-57.000182
 20
43.900179
 30
0.0
 10
-57.000182
 20
36.100130
 30
0.0
 10
-59.999999
 20
36.100130
 30
0.0
 10
-59.999999
 20
27.900097
 30
0.0
 10
-57.000182
 20
27.900097
 30
0.0
 10
-57.000182
 20
20.100048
 30
0.0
 10
-59.999999
 20
20.100048
 30
0.0
 10
-59.999999
 20
11.900028
 30
0.0
 10
-57.000182
 20
11.900028
 30
0.0
 10
-57.000182
 20
4.100006
 30
0.0
 10
-59.999999
 20
4.100006
 30
0.0
 10
-59.999999
 20
1.636074
 30
0.0
 10
-59.999999
 20
-0.000004
 30
0.0
 10
-51.899719
 20
-0.000004
 30
0.0
 10
-51.899719
 20
2.999815
 30
0.0
 10
-44.099678
 20
2.999815
 30
0.0
 10
-44.099678
 20
-0.000004
 30
0.0
 10
-35.899662
 20
-0.000004
 30
0.0
 10
-35.899662
 20
2.999815
 30
0.0
 10
-28.099620
 20
2.999815
 30
0.0
 10
-28.099620
 20
-0.000004
 30
0.0
 10
-19.899605
 20
-0.000004
 30
0.0
 10
-19.899605
 20
2.999815
 30
0.0
 10
-12.099564
 20
2.999815
 30
0.0
 10
-12.099564
 20
-0.000004
 30
0.0
 10
-3.899549
 20
-0.000004
 30
0.0
 10
-3.899549
 20
2.999815
 30
0.0
 10
3.900492
 20
2.999815
 30
0.0
 10
3.900492
 20
-0.000004
 30
0.0
 10
12.100509
 20
-0.000004
 30
0.0
 10
12.100509
 20
2.999815
 30
0.0
 10
19.900550
 20
2.999815
 30
0.0
 10
19.900550
 20
-0.000004
 30
0.0
 10
28.100049
 20
-0.000004
 30
0.0
 10
28.100049
 20
2.999815
 30
0.0
 10
35.900090
 20
2.999815
 30
0.0
 10
35.900090
 20
-0.000004
 30
0.0
 10
44.100107
 20
-0.000004
 30
0.0
 10
44.100107
 20
2.999815
 30
0.0
 10
51.900148
 20
2.999815
 30
0.0
 10
51.900148
 20
-0.000004
 30
0.0
 10
59.999912
 20
-0.000004
 30
0.0
 10
59.999912
 20
4.100006
 30
0.0
 10
57.000095
 20
4.100006
 30
0.0
 10
57.000095
 20
11.900028
 30
0.0
 10
59.999912
 20
11.900028
 30
0.0
 10
59.999912
 20
20.100048
 30
0.0
 10
57.000095
 20
20.100048
 30
0.0
 10
57.000095
 20
27.900097
 30
0.0
 10
59.999912
 20
27.900097
 30
0.0
 10
59.999912
 20
36.100130
 30
0.0
 10
57.000095
 20
36.100130
 30
0.0
 10
57.000095
 20
43.900179
 30
0.0
 10
59.999912
 20
43.900179
 30
0.0
 10
59.999912
 20
52.100198
 30
0.0
 10
57.000095
 20
52.100198
 30
0.0
 10
57.000095
 20
59.899718
 30
0.0
 10
59.999912
 20
59.899718
 30
0.0
 10
59.999912
 20
68.099730
 30
0.0
 10
57.000095
 20
68.099730
 30
0.0
 10
57.000095
 20
75.899771
 30
0.0
 10
59.999912
 20
75.899771
 30
0.0
 10
59.999912
 20
84.099788
 30
0.0
 10
57.000095
 20
84.099788
 30
0.0
 10
57.000095
 20
91.899829
 30
0.0
 10
59.999912
 20
91.899829
 30
0.0
 10
59.999912
 20
100.099846
 30
0.0
 10
57.000095
 20
100.099846
 30
0.0
 10
57.000095
 20
107.899887
 30
0.0
 10
59.999912
 20
107.899887
 30
0.0
 10
59.999912
 20
116.099901
 30
0.0
 10
57.000095
 20
116.099901
 30
0.0
 10
57.000095
 20
123.899942
 30
0.0
 10
59.999912
 20
123.899942
 30
0.0
 10
59.999912
 20
132.099959
 30
0.0
 10
57.000095
 20
132.099959
 30
0.0
 10
57.000095
 20
139.900000
 30
0.0
 10
59.999912
 20
139.900000
 30
0.0
 10
59.999912
 20
148.100017
 30
0.0
 10
57.000095
 20
148.100017
 30
0.0
 10
57.000095
 20
155.900055
 30
0.0
 10
59.999912
 20
155.900055
 30
0.0
 10
59.999912
 20
160.000065
 30
0.0
 10
51.900148
 20
160.000065
 30
0.0
 10
51.900148
 20
156.999730
 30
0.0
 10
44.100107
 20
156.999730
 30
0.0
 10
44.100107
 20
160.000065
 30
0.0
 10
35.900090
 20
160.000065
 30
0.0
 10
35.900090
 20
156.999730
 30
0.0
 10
28.100049
 20
156.999730
 30
0.0
 10
28.100049
 20
160.000065
 30
0.0
 10
19.900550
 20
160.000065
 30
0.0
 10
19.900550
 20
156.999730
 30
0.0
 10
12.100509
 20
156.999730
 30
0.0
 10
12.100509
 20
160.000065
 30
0.0
 10
3.900492
 20
160.000065
 30
0.0
 10
3.900492
 20
156.999730
 30
0.0
 10
-3.899549
 20
156.999730
 30
0.0
 10
-3.899549
 20
160.000065
 30
0.0
 10
-12.099564
 20
160.000065
 30
0.0
 10
-12.099564
 20
156.999730
 30
0.0
 10
-19.899605
 20
156.999730
 30
0.0
 10
-19.899605
 20
160.000065
 30
0.0
 10
-28.099620
 20
160.000065
 30
0.0
 10
-28.099620
 20
156.999730
 30
0.0
 10
-35.899662
 20
156.999730
 30
0.0
 10
-35.899662
 20
160.000065
 30
0.0
 10
-44.099678
 20
160.000065
 30
0.0
 10
-44.099678
 20
156.999730
 30
0.0
 10
-51.900235
 20
156.999730
 30
0.0
 10
-51.900235
 20
160.000065
 30
0.0
  0
LWPOLYLINE
  5
101
100
AcDbEntity
  8
Calque_1
 62
7
100
AcDbPolyline
 90
4
 70
1
 10
-47.055053
 20
138.999795
 30
0.0
 10
-17.254806
 20
138.999795
 30
0.0
 10
-17.254806
 20
135.999978
 30
0.0
 10
-47.055053
 20
135.999978
 30
0.0
  0
LWPOLYLINE
  5
102
100
AcDbEntity
  8
Calque_1
 62
7
100
AcDbPolyline
 90
4
 70
1
 10
17.254716
 20
138.999795
 30
0.0
 10
47.054447
 20
138.999795
 30
0.0
 10
47.054447
 20
135.999978
 30
0.0
 10
17.254716
 20
135.999978
 30
0.0
  0
LWPOLYLINE
  5
103
100
AcDbEntity
  8
Calque_1
 62
7
100
AcDbPolyline
 90
7
 70
1
 10
-38.249905
 20
130.000863
 30
0.0
 10
-26.749833
 20
129.994672
 30
0.0
 10
-26.749833
 20
110.999965
 30
0.0
 10
-39.249845
 20
110.999965
 30
0.0
 10
-42.763842
 20
113.018963
 30
0.0
 10
-42.763842
 20
116.640447
 30
0.0
 10
-38.249905
 20
116.640447
 30
0.0
  0
LWPOLYLINE
  5
104
100
AcDbEntity
  8
Calque_1
 62
7
100
AcDbPolyline
 90
7
 70
1
 10
26.750261
 20
130.000334
 30
0.0
 10
38.250334
 20
129.995175
 30
0.0
 10
38.250334
 20
110.999951
 30
0.0
 10
25.750321
 20
110.999951
 30
0.0
 10
22.236323
 20
113.018950
 30
0.0
 10
22.236323
 20
116.640434
 30
0.0
 10
26.750261
 20
116.640434
 30
0.0
  0
LWPOLYLINE
  5
105
100
AcDbEntity
  8
Calque_1
 62
7
100
AcDbPolyline
 90
12
 70
1
 10
42.250606
 20
125.505002
 30
0.0
 10
42.617792
 20
125.442431
 30
0.0
 10
42.938084
 20
125.254775
 30
0.0
 10
43.164620
 20
124.942120
 30
0.0
 10
43.250546
 20
124.504547
 30
0.0
 10
42.938065
 20
123.754548
 30
0.0
 10
42.250606
 20
123.504549
 30
0.0
 10
41.563150
 20
123.754548
 30
0.0
 10
41.250669
 20
124.504547
 30
0.0
 10
41.336600
 20
124.942120
 30
0.0
 10
41.563150
 20
125.254775
 30
0.0
 10
41.883441
 20
125.442431
 30
0.0
  0
LWPOLYLINE
  5
106
100
AcDbEntity
  8
Calque_1
 62
7
100
AcDbPolyline
 90
12
 70
1
 10
-43.750344
 20
125.504473
 30
0.0
 10
-43.383129
 20
125.441942
 30
0.0
 10
-43.062729
 20
125.254394
 30
0.0
 10
-42.836023
 20
124.941900
 30
0.0
 10
-42.749888
 20
124.504536
 30
0.0
 10
-43.062062
 20
123.754868
 30
0.0
 10
-43.749407
 20
123.504980
 30
0.0
 10
-44.436961
 20
123.754868
 30
0.0
 10
-44.749768
 20
124.504536
 30
0.0
 10
-44.664032
 20
124.941900
 30
0.0
 10
-44.437660
 20
125.254394
 30
0.0
 10
-44.117482
 20
125.441942
 30
0.0
  0
LWPOLYLINE
  5
107
100
AcDbEntity
  8
Calque_1
 62
7
100
AcDbPolyline
 90
12
 70
1
 10
-22.750077
 20
125.504473
 30
0.0
 10
-22.382859
 20
125.441942
 30
0.0
 10
-22.062460
 20
125.254394
 30
0.0
 10
-21.835756
 20
124.941900
 30
0.0
 10
-21.749622
 20
124.504536
 30
0.0
 10
-22.061795
 20
123.754868
 30
0.0
 10
-22.749138
 20
123.504980
 30
0.0
 10
-23.436692
 20
123.754868
 30
0.0
 10
-23.749498
 20
124.504536
 30
0.0
 10
-23.663763
 20
124.941900
 30
0.0
 10
-23.437388
 20
125.254394
 30
0.0
 10
-23.117212
 20
125.441942
 30
0.0
  0
LWPOLYLINE
  5
108
100
AcDbEntity
  8
Calque_1
 62
7
100
AcDbPolyline
 90
12
 70
1
 10
21.250337
 20
125.501378
 30
0.0
 10
21.616806
 20
125.439010
 30
0.0
 10
21.936676
 20
125.251950
 30
0.0
 10
22.163362
 20
124.940265
 30
0.0
 10
22.250277
 20
124.504023
 30
0.0
 10
21.936673
 20
123.756276
 30
0.0
 10
21.250339
 20
123.507025
 30
0.0
 10
20.564005
 20
123.756276
 30
0.0
 10
20.250398
 20
124.504023
 30
0.0
 10
20.337359
 20
124.940265
 30
0.0
 10
20.564036
 20
125.251950
 30
0.0
 10
20.883878
 20
125.439010
 30
0.0
  0
LWPOLYLINE
  5
109
100
AcDbEntity
  8
Calque_1
 62
7
100
AcDbPolyline
 90
12
 70
1
 10
42.250606
 20
113.004464
 30
0.0
 10
42.617792
 20
112.941892
 30
0.0
 10
42.938084
 20
112.754237
 30
0.0
 10
43.164620
 20
112.441581
 30
0.0
 10
43.250546
 20
112.004008
 30
0.0
 10
42.938065
 20
111.254015
 30
0.0
 10
42.250606
 20
111.004018
 30
0.0
 10
41.563150
 20
111.254015
 30
0.0
 10
41.250669
 20
112.004008
 30
0.0
 10
41.336600
 20
112.441581
 30
0.0
 10
41.563150
 20
112.754237
 30
0.0
 10
41.883441
 20
112.941892
 30
0.0
  0
LWPOLYLINE
  5
10a
100
AcDbEntity
  8
Calque_1
 62
7
100
AcDbPolyline
 90
12
 70
1
 10
-43.750344
 20
113.003935
 30
0.0
 10
-43.383129
 20
112.941403
 30
0.0
 10
-43.062729
 20
112.753853
 30
0.0
 10
-42.836023
 20
112.441362
 30
0.0
 10
-42.749888
 20
112.003995
 30
0.0
 10
-43.062062
 20
111.254340
 30
0.0
 10
-43.749407
 20
111.004455
 30
0.0
 10
-44.436961
 20
111.254340
 30
0.0
 10
-44.749768
 20
112.003995
 30
0.0
 10
-44.664032
 20
112.441362
 30
0.0
 10
-44.437660
 20
112.753853
 30
0.0
 10
-44.117482
 20
112.941403
 30
0.0
  0
LWPOLYLINE
  5
10b
100
AcDbEntity
  8
Calque_1
 62
7
100
AcDbPolyline
 90
12
 70
1
 10
-22.750077
 20
113.003935
 30
0.0
 10
-22.382859
 20
112.941403
 30
0.0
 10
-22.062460
 20
112.753853
 30
0.0
 10
-21.835756
 20
112.441362
 30
0.0
 10
-21.749622
 20
112.003995
 30
0.0
 10
-22.061795
 20
111.254340
 30
0.0
 10
-22.749138
 20
111.004455
 30
0.0
 10
-23.436692
 20
111.254340
 30
0.0
 10
-23.749498
 20
112.003995
 30
0.0
 10
-23.663763
 20
112.441362
 30
0.0
 10
-23.437388
 20
112.753853
 30
0.0
 10
-23.117212
 20
112.941403
 30
0.0
  0
LWPOLYLINE
  5
10c
100
AcDbEntity
  8
Calque_1
 62
7
100
AcDbPolyline
 90
12
 70
1
 10
21.250337
 20
113.000839
 30
0.0
 10
21.616806
 20
112.938471
 30
0.0
 10
21.936676
 20
112.751408
 30
0.0
 10
22.163362
 20
112.439724
 30
0.0
 10
22.250277
 20
112.003484
 30
0.0
 10
21.936673
 20
111.255727
 30
0.0
 10
21.250339
 20
111.006473
 30
0.0
 10
20.564005
 20
111.255727
 30
0.0
 10
20.250398
 20
112.003484
 30
0.0
 10
20.337359
 20
112.439724
 30
0.0
 10
20.564036
 20
112.751408
 30
0.0
 10
20.883878
 20
112.938471
 30
0.0
  0
LWPOLYLINE
  5
10d
100
AcDbEntity
  8
Calque_1
 62
7
100
AcDbPolyline
 90
4
 70
1
 10
-9.900215
 20
92.999993
 30
0.0
 10
9.900125
 20
92.999993
 30
0.0
 10
9.900125
 20
90.000176
 30
0.0
 10
-9.900215
 20
90.000176
 30
0.0
  0
LWPOLYLINE
  5
10e
100
AcDbEntity
  8
Calque_1
 62
7
100
AcDbPolyline
 90
24
 70
1
 10
-33.000095
 20
71.999725
 30
0.0
 10
33.000008
 20
71.999725
 30
0.0
 10
34.169884
 20
71.764722
 30
0.0
 10
35.123165
 20
71.123065
 30
0.0
 10
35.764822
 20
70.169785
 30
0.0
 10
35.999825
 20
68.999908
 30
0.0
 10
35.999825
 20
25.999939
 30
0.0
 10
35.764822
 20
24.830084
 30
0.0
 10
35.123165
 20
23.876790
 30
0.0
 10
34.169884
 20
23.235149
 30
0.0
 10
33.000008
 20
23.000146
 30
0.0
 10
-33.000095
 20
23.000146
 30
0.0
 10
-34.169974
 20
23.235149
 30
0.0
 10
-35.123258
 20
23.876790
 30
0.0
 10
-35.764912
 20
24.830084
 30
0.0
 10
-35.999915
 20
25.999939
 30
0.0
 10
-35.999915
 20
68.999935
 30
0.0
 10
-35.764912
 20
70.169811
 30
0.0
 10
-35.123258
 20
71.123092
 30
0.0
 10
-33.858348
 20
71.764749
 30
0.0
 10
-33.000095
 20
71.999752
 30
0.0
 10
-33.000095
 20
71.999746
 30
0.0
 10
-33.000095
 20
71.999738
 30
0.0
 10
-33.000095
 20
71.999733
 30
0.0
  0
LWPOLYLINE
  5
10f
100
AcDbEntity
  8
Calque_1
 62
7
100
AcDbPolyline
 90
4
 70
1
 10
-31.499908
 20
14.899954
 30
0.0
 10
-28.500091
 20
14.899954
 30
0.0
 10
-28.500091
 20
7.099905
 30
0.0
 10
-31.499908
 20
7.099905
 30
0.0
  0
LWPOLYLINE
  5
110
100
AcDbEntity
  8
Calque_1
 62
7
100
AcDbPolyline
 90
4
 70
1
 10
28.499835
 20
14.899954
 30
0.0
 10
31.500167
 20
14.899954
 30
0.0
 10
31.500167
 20
7.099905
 30
0.0
 10
28.499835
 20
7.099905
 30
0.0
  0
ENDSEC
  0
SECTION
  2
OBJECTS
  0
DICTIONARY
  5
C
330
0
100
AcDbDictionary
  3
ACAD_GROUP
350
D
  3
ACAD_MLINESTYLE
350
17
  0
DICTIONARY
  5
D
330
C
100
AcDbDictionary
  0
DICTIONARY
  5
1A
330
C
100
AcDbDictionary
  0
DICTIONARY
  5
17
330
C
100
AcDbDictionary
  3
STANDARD
350
18
  0
DICTIONARY
  5
19
330
C
100
AcDbDictionary
  0
ENDSEC
  0
EOF
